<svg fill="none" height="320" viewBox="0 0 372 320" width="372" xmlns="http://www.w3.org/2000/svg" xmlns:xlink="http://www.w3.org/1999/xlink"><mask id="a" fill="#fff"><path d="m289.757 262.791s-1.347-1.151 0 0z" fill="#fff"/></mask><mask id="b" fill="#fff"><path d="m263.569 234.948 5.822-5.759 4.559-3.795 2.5-1.031 2.376.207 1.788 1.221.803 1.975.006 2.315-.557 1.676-.926 1.423-1.787 1.768-2.403 2.234-1.541 1.371-1.807 2.084 1.807-.656 2.461-1.1 1.975-.875 1.975-.766 2.59-.881 1.723-.329 2.344-.328h1.975l2.344.438 1.6.933 1.049 1.48.188 2.084-.188 1.757-.926 1.261-1.852.985-2.092.604-2.648.496-1.671.38-2.092.823-1.237.547-.861.605h1.852 3.206 3.328l2.837.161 2.344.496 2.092.547 2.59.881 1.91 1.261 1.114 1.48.181 2.085-.181 1.641-.926 1.319-1.353.933-1.483.437-1.237.162-2.584-.599-2.344-.714-2.591-.547-2.713-.329h-1.599l-1.853.329-2.836.766 2.137.218 2.921.329 3.082.714 3.083 1.37 2.959 1.866 2.59 2.574 1.354 1.809.492 1.1.065 2.084-.557 1.912-1.172 1.158-.926.656-1.723.496h-1.483l-1.975-.496-1.6-1.203-1.968-2.085-2.221-1.647-2.222-.714-2.778-.109-2.648.771-2.034 1.152-1.113 1.422-.739 1.538-.181 1.538.492 2.516.738 1.21 1.354 1.203 1.729 1.043 2.713.604 2.714-.167 2.091-.927 1.483-1.1 1.237-1.319 1.353-1.364 1.231-.605 1.729-.438 1.353.11 1.729.109 1.665.599 1.295 1.371.492.881.123 2.084-.984 2.195-1.606 2.084-2.215 1.97-2.344 1.756-2.96 1.204-3.27.714-3.348.495h-3.866l-4.682-.167-4.565-.38-3.698-.224-4.196-.438-3.083 1.209-12.084 4.826h-2.344l-2.091-.656-1.729-2.742-1.73-2.856-1.353-2.304-1.975-3.288-2.221-3.726-1.723-3.075-.473-1.474 6.884-3.41 3.698-1.693 2.713-1.647 2.714-1.532 1.087-1.313 1.011-2.418 1.107-2.085 2.221-3.507 1.852-2.523 1.108-1.428.123-3.616.615-3.289 1.237-3.403 1.476-2.851 1.975-2.96z" fill="#fff"/></mask><mask id="c" fill="#fff"><path d="m324.558 319.194-1.82-1.18-.854-1.958-.065-2.316.505-1.687.887-1.44 1.742-1.808 2.344-2.286 1.503-1.4 1.748-2.125-1.787.697-2.435 1.146-1.949.922-1.949.812-2.565.927-1.722.368-2.332.381-1.975.04-2.351-.386-1.625-.898-1.088-1.463-.246-2.079.143-1.757.887-1.278 1.826-1.025 2.079-.651 2.635-.547 1.658-.42 2.072-.87 1.218-.57.848-.622-1.852.04-3.206.069-3.328.069-2.843-.103-2.351-.444-2.111-.506-2.609-.818-1.95-1.221-1.146-1.457-.239-2.079.135-1.647.888-1.336 1.334-.962 1.47-.472 1.224-.19 2.609.547 2.358.662 2.609.496 2.72.27 1.6-.034 1.845-.369 2.811-.829-2.144-.167-2.927-.271-3.102-.645-3.121-1.307-3.005-1.803-2.661-2.516-1.399-1.786-.525-1.082-.116-2.085.498-1.923 1.147-1.181.906-.68 1.71-.529 1.476-.029 1.988.449 1.632 1.175 2.034 2.038 2.266 1.596 2.234.668 2.778.052 2.63-.824 2.001-1.198 1.075-1.445.692-1.555.149-1.538-.563-2.511-.771-1.186-1.385-1.181-1.755-1.002-2.733-.547-2.707.225-2.072.973-1.451 1.129-1.191 1.342-1.321 1.399-1.218.628-1.716.478-1.36-.081-1.729-.075-1.677-.57-1.334-1.342-.512-.863-.181-2.085.926-2.212 1.548-2.119 2.163-2.015 2.299-1.809 2.927-1.267 3.244-.783 3.335-.564 3.866-.081 4.688.063 4.572.288 3.704.139 4.203.351 3.05-1.273 11.955-5.079 2.337-.046 2.118.61 1.8 2.701 1.8 2.816 1.419 2.275 2.059 3.242 2.325 3.686 1.806 3.035.506 1.463-6.787 3.553-3.652 1.774-2.668 1.704-2.675 1.59-1.049 1.336-.945 2.436-1.049 2.107-2.131 3.554-1.781 2.562-1.068 1.452-.026 3.616-.531 3.306-1.14 3.421-1.405 2.885-1.891 3-2.72 3.225-5.666 5.88-4.456 3.893-2.467 1.083" fill="#fff"/></mask><g stroke="#563a5f"><path d="m72.6138 30.764.0026.013c.0175.0866.0305.1799.0295.2714-.0007.0761-.0106.23-.1096.3735-.0562.0814-.1394.1562-.2504.2007-.108.0432-.211.0454-.291.0339-.1444-.0208-.2545-.0913-.3139-.1341-.1297-.0934-.257-.2336-.3737-.3808-.123-.1551-.258-.349-.4006-.5755-.5388-.8555-1.4987-2.2878-2.1288-3.1799-.6394-.9051-1.751-2.5585-2.4735-3.6873-.7153-1.1174-2.0331-3.0879-2.9081-4.3905-.8738-1.301-2.2351-3.3302-3.0138-4.5131-.645-.9799-1.5593-2.3191-2.222-3.2899-.1328-.1944-.2554-.3741-.3638-.5331-.2821-.414-.6344-.9185-.9822-1.41653-.4316-.61813-.8562-1.22629-1.1311-1.63897m16.9304 22.8472-16.9312-22.84834c.0003.00038.0005.00076.0008.00114m16.9304 22.8472-.0033-.0128zm-16.9304-22.8472c-.5037-.74847-1.0506-1.4736-1.6387-2.17245m1.6387 2.17245c.0001.00028.0003.00055.0005.00083l-1.6392-2.17328m0 0c-.4197-.4635-.9065-.87802-1.449-1.23244-.6375-.33021-1.3124-.60148-2.0139-.80919-.7563-.20222-1.5502-.27353-2.3379-.20957-.7864.1426-1.5395.39894-2.2292.7577-.6891.41581-1.2945.92749-1.7933 1.51331-.4544.63403-.7644 1.337-.9158 2.06971-.0843.88514.0352 1.77719.3525 2.62253.4422 1.0839.9629 2.1416 1.559 3.1664.5274.8982 3.0791 4.727 5.6735 8.5223l6.6827 9.7552.0003.0004c.6503.9514 1.1202 1.6929 1.4074 2.216.1415.2577.2507.4837.3118.6653.0291.0865.0599.1987.062.3158.0018.1018-.0195.3683-.2773.5204-.2235.1319-.4459.0626-.5195.0365-.1004-.0356-.195-.0911-.275-.1445-.1647-.1098-.3633-.2755-.5886-.4831-.4554-.4195-1.0793-1.0656-1.8631-1.9332l-.0001-.0001-8.1917-9.0759c-1.5582-1.725-3.0674-3.353-4.2394-4.5855-.5862-.6165-1.0865-1.1323-1.4656-1.5111-.1897-.1897-.347-.3428-.4683-.4563-.0607-.0568-.1104-.1017-.1494-.1354-.0195-.0168-.035-.0297-.047-.0393l-.0116-.009c-.5196-.3138-1.0954-.5509-1.7048-.7009-.6089-.1246-1.228-.2073-1.8515-.2472-.5852-.0059-1.166.0825-1.7138.2603-.5087.1902-1.0041.4068-1.4836.6486-.4141.2337-.7993.5036-1.1502.8054-.3577.3389-.6783.7061-.9579 1.0965-.2438.3777-.4391.7772-.583 1.1909-.1066.3931-.16.7955-.1593 1.1989v.0009c0 .3391.0609.973.1239 1.3992.0739.4737.2025.94.384 1.3917l-.4639.1864m22.3466-18.76765-10.5041 35.32405.9063.806.0003.0003c1.7665 1.568 3.3643 2.9572 4.5177 3.9331.5759.4873 1.0448.8747 1.3696 1.1303.1603.1262.2949.2278.393.2938.042.0283.106.0699.1722.0986.0191.0082.049.0202.0861.0298.0304.0078.104.0247.1969.013.106-.0134.2722-.0723.374-.247.0875-.15.0706-.2928.0606-.3475l-.4919.0892.4919-.0892c-.0156-.0864-.0515-.153-.0608-.1703l-.0008-.0016c-.0155-.0289-.0325-.0562-.0472-.0786-.0299-.0457-.068-.0986-.1102-.155-.0855-.1141-.2057-.2658-.3542-.448-.2979-.3657-.7224-.8699-1.2408-1.4741-1.0374-1.2091-2.4581-2.8273-4.011-4.5572l-7.7701-8.6835c-1.5488-1.7338-2.9915-3.389-4.067-4.659-.5381-.6354-.9822-1.172-1.3012-1.5728-.1597-.2008-.2854-.3641-.3747-.487-.0706-.0971-.1038-.1492-.1159-.1682-.0054-.0086-.0066-.0104-.0049-.0066l-.4604.1951m0 0c-.1957-.487-.3346-.9907-.4145-1.5031zm-.4091 10.3292-.0005.0001c-.4589.1281-.8883.3229-1.2708.5751-.1517.1301-.3568.3286-.5709.5357-.1094.1059-.2211.2141-.3292.3164-.3249.3674-.6066.762-.8413 1.1776-.228.4233-.4192.8608-.5722 1.3088-.1079.4514-.1622.9112-.1621 1.372.017.4735.1108.9432.2792 1.3948.1881.4088.4319.7972.7271 1.1564.289.3236.7303.8684.981 1.2239-.0007-.001-.0005-.0009.0006.0006.0034.0041.0153.0188.0408.0474.031.0347.0733.0801.1276.1368.1084.1131.2568.2627.442.4457.3698.3654.8782.8559 1.4888 1.437 1.2208 1.1618 2.8442 2.6803 4.5719 4.2743l29.5421 27.2507c1.7298 1.593 3.4006 3.0946 4.6984 4.2301.6492.568 1.2032 1.0426 1.6236 1.3907.2104.1743.3849.3147.5198.4185.0675.0519.1229.0928.1664.1235.0216.0152.039.027.0525.0357.0067.0043.0119.0075.0158.0099l.0044.0026.0004.0002c.5555.2941 1.1439.5375 1.7563.7262.5669.163 1.1437.298 1.7278.4043.586.0587 1.179.0269 1.7523-.0939.9607-.273 1.8875-.6308 2.7665-1.0678l.0042-.0021 3.1084-1.5088.0048-.0023c.7295-.3445 2.4017-1.1483 3.7164-1.8189l.0075-.0038v.0001l5.7829-2.8277.002-.0009c1.8568-.8976 5.4169-2.6417 7.9085-3.8792 1.243-.6173 2.483-1.2531 3.476-1.7799.991-.525 1.705-.9253 1.953-1.0941.672-.5352 1.253-1.1511 1.726-1.8282.652-1.1581 1.118-2.3902 1.385-3.6602l.001-.0039c.304-1.3933.906-4.1627 1.334-6.1544.427-1.9918 1.02-4.819 1.291-6.3141.366-2.2772.554-4.5742.563-6.8744-.001-2.3259-.155-5.9164-.38-7.9719-.227-2.0827-.512-5.0347-.648-6.5693-.135-1.5204-.424-3.5096-.636-4.4098l-.002-.0079c-.18-.8234-.448-1.6304-.799-2.4102-.365-.5492-.845-1.0361-1.418-1.4336-.762-.4513-1.631-.7489-2.544-.8685-.881-.0817-1.772-.0077-2.62.2173-.69.2424-1.353.5421-1.978.8949-.652.4621-1.222 1.0054-1.693 1.6115l-.005.0064v-.0001c-.4433.5527-.7433 1.1804-.8834 1.8386-.0113.2411.0232.9723.099 2.0214.0773 1.0712.1935 2.4245.3291 3.8001.2723 2.7638.4503 6.1661.3973 7.5547-.027.7039-.118 1.4189-.242 2.007-.062.2937-.1344.5643-.2147.7903-.0745.2097-.175.4375-.3176.5974l-.0052.0059-.0055.0057c-.3748.3945-.8525.6913-1.3837.8673l-.0477.0158-.0498.006c-.5351.0645-1.0814-.0197-1.5655-.2444l-.0067-.0031c-.098-.0474-.1756-.1174-.2209-.1609-.0542-.0519-.1102-.1135-.1662-.1793-.1125-.1323-.2459-.3068-.3952-.5135-.2997-.4148-.6823-.9859-1.1203-1.6684-.877-1.3664-1.9885-3.1989-3.1246-5.1647l-.0005-.001-13.7675-23.9512-.0005-.0009c-2.2874-3.9989-4.3878-7.57848-4.6955-8.01691-.325-.45905-.7192-.87882-1.1729-1.24729-.5546-.32765-1.1788-.55695-1.8375-.6729-.6998-.11549-1.4106-.17105-2.1225-.16587-.6309.06579-1.2432.22659-1.8107.47457-.6099.28163-1.1924.60697-1.7415.97255-.5176.41832-.9503.90848-1.282 1.44893-.3265.59329-.5224 1.23344-.5797 1.88685.0071.69635.1027 1.39014.2855 2.06826.1816.61629.6772 1.95721 1.1067 2.98321.4305 1.0285 1.1646 2.6548 1.6323 3.6064.2083.4237.4964.995.7931 1.5833.3562.7062.7247 1.4368.9822 1.9659.2434.5003.6281 1.2716 1.0486 2.1148.4107.8236.8556 1.7157 1.2364 2.4906.7621 1.5506 1.7044 3.393 2.1095 4.1537.0003.0004.0005.0008.0007.0012l-.4413.235zm0 0c.5894-.1651 1.1965-.2771 1.8119-.334.5562-.0299 1.1143-.0137 1.667.0482.5552.0972 1.0924.2598 1.5972.4831m-5.0761-.1973 5.0761.1973m0 0c.0037.002.0226.0122.0615.0372.0421.0272.0966.0646.1642.1132.135.097.3107.2304.5237.3976.4253.334.987.7932 1.6465 1.3456 1.3182 1.1041 3.0175 2.5722 4.7792 4.136zm35.9004-4.3274c-.0005-.0004-.0011-.0009-.0018-.0014.0045.0029.0052.0038.0018.0014z"/><path d="m73.389 4.29834c-.3591-.50745-.7949-.96863-1.2951-1.37062-.6167-.36981-1.3102-.6263-2.0399-.75441-.7366-.12174-1.4849-.1796-2.2341-.17277-.6913.06957-1.3639.24492-1.9881.5183-.6417.296-1.2547.63888-1.8326 1.02509-.5713.45838-1.0508.99973-1.4182 1.60097-.3667.66294-.5866 1.38244-.6476 2.11926.0055.74889.1077 1.49475.3044 2.22293.1878.63921.6929 2.00411 1.1268 3.04071.4338 1.0366 1.1721 2.6721 1.6448 3.6338.4727.9618 1.2952 2.5627 1.7744 3.5475s1.5218 3.0522 2.2859 4.6071 1.7096 3.4035 2.1176 4.1694c.412.7631.7269 1.5648.939 2.39.1101.5471-.2526.2879-.7965-.5759-.544-.8638-1.5089-2.3036-2.1435-3.2019-.6346-.8984-1.742-2.5455-2.4608-3.6684-.7188-1.123-2.0399-3.0983-2.9141-4.3998s-2.2341-3.3287-3.0112-4.5092c-.7771-1.1806-1.9428-2.8795-2.5903-3.8297-.6476-.95022-1.6125-2.30355-2.1112-3.05221-.5155-.76621-1.0753-1.50818-1.6772-2.22293-.4561-.50499-.9852-.95423-1.5736-1.33606-.6746-.35127-1.3886-.63886-2.1305-.85808-.8218-.22055-1.684-.29684-2.5385-.22459-.8486.15138-1.6628.42777-2.409.81776-.7452.44773-1.4017 1.00236-1.9427 1.64128-.5059.70095-.8514 1.48373-1.0167 2.30356-.0969.97297.0332 1.95325.3821 2.87947.4517 1.1083.9839 2.1894 1.593 3.2365.5375.9156 3.1019 4.7626 5.6922 8.5519l6.683 9.7556c2.5903 3.7893 2.1629 4.0312-.9584.5758l-8.1919-9.076c-3.1213-3.4553-6.0483-6.5248-6.4757-6.8185-.5715-.3476-1.2039-.6084-1.8715-.7717-.639-.1312-1.2886-.2179-1.9428-.2591-.6469-.008-1.29.0896-1.8974.2879-.5328.1988-1.0518.4257-1.5541.6796-.4494.2527-.8682.5461-1.2499.8753-.3867.3654-.7337.7627-1.0361 1.1864-.2712.4184-.4885.8627-.6476 1.3245-.1212.4411-.1821.8935-.1813 1.3476 0 .3743.0648 1.0366.1295 1.4742.0799.5124.2188 1.0161.4145 1.5031.1683.3974 2.8493 3.559 5.9512 7.0316l7.7709 8.6844c3.1019 3.4553 5.6728 6.4615 5.7052 6.64.0323.1785-2.817-2.2344-6.3463-5.3673l-.9066-.8062c-3.5293-3.1328-6.8125-5.8856-7.2982-6.1102-.5492-.2436-1.133-.4199-1.7355-.524-.5883-.0668-1.1824-.0842-1.7743-.0519-.6485.0595-1.2886.1772-1.9104.3513-.5177.1445-1.0039.3665-1.4376.6565-.2461.2073-.6476.6105-.9584.9042-.355.399-.6632.8293-.9196 1.2842-.2457.4555-.4514.9272-.6152 1.4109-.1213.4996-.1821 1.0093-.1813 1.5204.0183.5369.1252 1.0686.3173 1.5779.2089.4581.4808.8914.8095 1.29.2784.311.7123.8466.9519 1.1863.2396.3398 3.2832 3.2308 6.7413 6.4212l29.5424 27.251c3.4646 3.1905 6.696 6.0181 7.1817 6.283.5863.3108 1.2069.5674 1.852.7659.5908.17 1.1918.3104 1.8003.4204.6494.0673 1.307.0321 1.9427-.1037.9956-.2818 1.9567-.6523 2.8688-1.1057l3.1083-1.5088c.7318-.3455 2.409-1.1518 3.7301-1.8256l5.7828-2.8276c1.8586-.8984 5.4203-2.6433 7.9139-3.8815 2.493-1.2381 4.973-2.5511 5.504-2.9197.72-.572 1.344-1.2334 1.852-1.9638.683-1.2077 1.171-2.495 1.451-3.8239.304-1.3936.906-4.1637 1.334-6.1562.427-1.9926 1.023-4.8317 1.295-6.3348.371-2.3044.561-4.6289.57-6.9568 0-2.3381-.156-5.9489-.382-8.0278-.227-2.079-.512-5.0275-.648-6.5594s-.427-3.5475-.648-4.4804c-.19-.8707-.474-1.7231-.848-2.5454-.407-.6232-.946-1.1707-1.587-1.6125-.828-.4937-1.771-.8164-2.758-.9445-.95-.0891-1.91-.0088-2.824.2361-.732.256-1.434.5742-2.098.9502-.699.4927-1.312 1.0749-1.8195 1.7277-.4989.6215-.8372 1.3334-.9908 2.0847-.0388.5068.1555 3.1789.4274 5.9374.272 2.7585.4469 6.1333.3951 7.4866-.0519 1.3533-.3497 2.747-.6476 3.081-.3152.3316-.7211.5855-1.1786.7371-.4448.0536-.8973-.0168-1.2952-.2015-.382-.1843-2.5449-3.5648-4.8115-7.4866l-13.7674-23.9512c-2.2795-3.98513-4.3971-7.59595-4.7209-8.05666z" stroke-miterlimit="10" stroke-width="3"/><path d="m17.4316 71.11.0019.0008c.6196.2534 2.1436.7365 3.3289 1.0763 1.1762.3373 3.0719.8247 4.2041 1.0878 1.1381.2646 3.0398.696 4.2222.9546l.0033.0007 5.4591 1.2324.001.0002c1.8171.4141 4.0665.9026 4.9882 1.0918.0002 0 .0003.0001.0005.0001l-.1005.4898c.6914.1404 1.3692.3284 2.0271.5623zm0 0c-.7261-.2936-1.4114-.6588-2.0431-1.0884-.5528-.4585-.999-1.0036-1.3176-1.6043-.2695-.564-.4324-1.1616-.4835-1.7692.0181-.6003.0918-1.1984.2202-1.7884.1268-.5392.3562-1.0577.6802-1.5332.4265-.4966.9097-.9542 1.4422-1.3655.5066-.3884 1.1002-.683 1.7453-.8632.6169-.0996 1.2468-.1219 1.871-.0664.5949.0638 5.0621.8121 9.9477 1.6707l.0006.0001 29.6784 5.183h.0001c2.4497.427 4.7619.7852 6.5127 1.018.8747.1164 1.6141.2021 2.1624.2493.2733.0235.5061.0381.6876.0415.0902.0017.1752.0008.2499-.0045.0607-.0042.1644-.0138.2631-.0519l.0018-.0006c.4982-.1942.9255-.5271 1.2132-.9616l.0327-.0494.0202-.0556c.1833-.5035.2164-1.0431.0948-1.5633l-.0011-.0043c-.052-.2141-.1932-.4298-.3283-.6081-.1477-.1948-.3397-.4103-.5582-.6331-.4378-.4465-1.0077-.9483-1.6059-1.4094-1.1944-.9205-4.3091-2.8757-6.9186-4.3901-1.3019-.7556-2.571-1.5123-3.5663-2.1212-.9756-.597-1.6545-1.0318-1.8635-1.1905-.5077-.5142-.8772-1.1176-1.0867-1.7655h.0001l-.0025-.0072c-.2337-.6867-.3552-1.3985-.3617-2.114.0788-.6424.2235-1.2774.4325-1.8973.3163-.7135.7905-1.3684 1.3984-1.9249.662-.5579 1.4581-.982 2.3329-1.2387.7154-.158 1.4589-.1927 2.1896-.102.9159.2399 1.804.5553 2.6528.942l.0066.0031.0068.0028c.9264.3897 2.8652 1.4239 4.297 2.2728 1.4408.8541 4.2343 2.4738 6.2107 3.6033 1.96 1.1201 5.2491 3.2248 7.2901 4.6676l.0003.0003c2.0298 1.4323 3.9465 2.9861 5.7368 4.6505 1.1268 1.1289 3.2635 3.2989 4.7564 4.8219 1.0603 1.0817 2.4098 2.4697 3.4797 3.5702.439.4515.8309.8546 1.1364 1.1683l.0009.0009c.9595.9799 1.7634 2.0695 2.391 3.2382.3035.7456.4858 1.5245.5422 2.3136-.0034.2694-.0882 1.0044-.2359 2.0197-.1481 1.0175-.3528 2.2745-.5785 3.5249-.4531 2.5096-1.1134 6.0788-1.4628 7.9319-.3497 1.8544-.8357 4.4592-1.0757 5.7917-.2395 1.3294-.5498 3.0025-.6916 3.7305-.1428.733-.4086 2.128-.5902 3.109l-.0008.004m-76.9128-33.358 76.9128 33.358m0 0c-.1538.874-.4073 1.733-.7568 2.563-.2392.455-.5654.875-.9666 1.238-.4526.34-.9253.66-1.4163.956zm-52.2431-26.1094c.0063.0045.0043.0039-.0027-.0019.0012.0008.0021.0014.0027.0019zm.1479-.7265c.0086-.0024.0102-.002.0021-.0004-.0006.0002-.0013.0003-.0021.0004zm-33.45929-2.6157c.98472.0221 1.96749.0883 2.94469.1982l14.0884 40.3924c-.0018 0-.0036 0-.0054 0-.5121-.012-1.0202-.081-1.5122-.205-.5175-.168-1.0041-.4-1.4455-.689-.4168-.29-.7956-.62-1.1299-.981-.3056-.386-.5781-.79-.8155-1.211-.2233-.423-.3963-.865-.5164-1.318-.0767-.344-.1595-.845-.1923-1.134.0137-.407.1043-.81.2693-1.193l.0007-.002c.2154-.505.4886-.99.8159-1.447.3091-.402.6623-.777 1.0547-1.12.4238-.324.896-.597 1.4044-.81.0023-.001.0077-.003.0169-.006.005-.001.0107-.003.0172-.005.0117-.003.0257-.007.0422-.011.0514-.013.1194-.028.2049-.045.1708-.035.3985-.076.6786-.121.5593-.091 1.3131-.2 2.209-.32 1.7908-.239 4.1382-.519 6.6115-.784h.0011l1.2928-.132h.004c2.4771-.274 4.6936-.526 6.2689-.725.7865-.099 1.4191-.185 1.8459-.255.2103-.034.3846-.066.5051-.096.0501-.013.1324-.035.2056-.071.0214-.01.0548-.029.0911-.056.031-.023.0989-.079.1487-.176.0603-.116.0839-.276.0152-.434-.0571-.132-.1524-.202-.1962-.229-.0767-.049-.1522-.068-.1746-.074h-.0008c-.0352-.009-.0699-.015-.0993-.019-.0595-.009-.1304-.016-.2065-.022-.1541-.012-.3627-.021-.6152-.03-.5067-.016-1.2138-.027-2.067-.034-1.7065-.014-4.0128-.014-6.5036-.014h-.0039-.0021l-12.4723.051h-.0003c-2.4902.012-4.8451-.003-6.6317-.036-.8938-.016-1.6427-.037-2.1942-.062-.2762-.012-.4992-.025-.6645-.039-.0828-.007-.1475-.013-.1953-.02-.0381-.005-.0558-.008-.0596-.009-.5171-.157-1.0158-.357-1.4896-.597-.0595-.034-.1221-.07-.1867-.107-.39964-.229-.87544-.502-1.1561-.685-.36888-.26-.7009-.5569-.98978-.8838-.27862-.36-.51143-.7448-.69487-1.1475-.16874-.4376-.29397-.887-.37448-1.343-.05118-.4198-.05118-.8432-.00002-1.263.08465-.4782.199-.952.34256-1.4193.17152-.4774.44363-.9253.80507-1.3195.41533-.4106.86883-.7904 1.35598-1.1353.48455-.3068 1.02114-.5464 1.59124-.7094.0008-.0002.0018-.0004.0029-.0006.0045-.0009.0106-.0021.0186-.0036.0163-.0028.0377-.0062.0649-.0099.0546-.0074.1258-.0154.2141-.0237.1766-.0167.4103-.0336.6961-.0505.571-.0337 1.3372-.0665 2.2449-.0963 1.8149-.0596 4.1857-.107 6.6723-.1272h.0003l13.0875-.1151h.0003c1.2511-.0116 2.2045-.0495 2.8522-.11.3204-.0299.5857-.067.7804-.1148.0937-.023.2009-.0555.296-.1064.057-.0306.3059-.1687.3257-.4765.0202-.3137-.2164-.4816-.2715-.519-.09-.0612-.1939-.1044-.2843-.1364-.1883-.0668-.4478-.1295-.7625-.1903-.6365-.123-1.5797-.2532-2.8227-.3861l-.0002-.0001-12.7506-1.359c-.0001-.0001-.0001-.0001-.0002-.0001-4.9556-.53-9.9227-1.1154-11.0508-1.2975-1.28026-.2213-2.54338-.5144-3.78174-.8773-.95721-.3091-1.8319-.784-2.57385-1.3942-.55177-.564-.97503-1.213-1.25021-1.9111-.20356-.7104-.27449-1.4448-.21051-2.1744.10708-.6865.3412-1.3545.69454-1.9769.42303-.5779.96768-1.0828 1.6075-1.4861.61466-.3617 1.2718-.6646 1.96038-.9031.65273-.1602 1.32666-.2445 2.0047-.2506z"/><path d="m19.5949 60.5338c-.6762-.0605-1.3586-.0354-2.0269.0748-.7148.1961-1.3762.5216-1.9427.956-.5666.4374-1.0809.9257-1.5348 1.457-.3667.5322-.6274 1.1167-.7706 1.7277-.1375.6304-.2155 1.27-.2331 1.9119.0538.6824.2355 1.352.5375 1.9811.3544.6714.8514 1.2757 1.4635 1.7795.6671.4557 1.3906.8421 2.1564 1.1518.6476.2649 2.1953.7544 3.3804 1.0941 1.185.3398 3.0889.8293 4.2287 1.0942 1.1397.265 3.0436.6969 4.2286.956l5.4591 1.2324c1.8197.4147 4.0733.9042 4.9993 1.0942.9276.1883 1.8305.4624 2.6939.8178.5504.2649.0972.357-.9972.2073-1.0945-.1497-2.9724-.3686-4.1575-.478s-3.3285-.3571-4.7661-.5471c-1.4377-.19-4.0021-.4953-5.6923-.6853-1.6901-.1901-4.3193-.4953-5.8281-.6853-1.5089-.1901-3.7754-.4319-4.9993-.5471-1.224-.1152-3.0242-.2937-4.0021-.4089-.9949-.112-1.99563-.1793-2.99823-.2015-.72691.0058-1.44978.0968-2.14996.2706-.72962.2511-1.42658.5716-2.07871.956-.70201.4414-1.30218.9986-1.76789 1.6413-.39327.6858-.65379 1.4256-.77062 2.1884-.07266.8045.00613 1.6142.23313 2.3957.30356.7794.77418 1.4991 1.38581 2.1192.79858.6614 1.73908 1.1727 2.76515 1.5031 1.25972.3695 2.54449.6676 3.84662.8926 1.1397.1843 6.1261.7717 11.08 1.3015l12.7508 1.3591c4.954.5298 4.9216.9963-.0648 1.0424l-13.0875.1151c-4.9798.0404-9.4999.1901-10.0374.3283-.6226.177-1.21035.4393-1.74199.7775-.5163.3646-.9972.7672-1.43762 1.2036-.41151.4464-.72359.9585-.91956 1.5088-.15244.4946-.27351.9964-.36264 1.5031-.05828.4688-.05828.942 0 1.4109.08692.4974.22345.9869.40797 1.4627.20293.4484.46139.8753.77062 1.2728.31976.3639.68715.6929 1.0944.9789.34322.225.96489.576 1.38582.818.507.257 1.0404.471 1.593.639.4469.127 4.8957.207 9.8821.184l12.4723-.051c4.9863 0 9.2215 0 9.4028.115s-3.7171.576-8.6711 1.123l-1.2951.132c-4.954.53-9.4093 1.123-9.9144 1.325-.5545.232-1.0708.53-1.5348.887-.4238.368-.8056.773-1.1397 1.209-.3502.488-.6432 1.007-.8742 1.549-.1942.451-.2994.928-.3109 1.411.0324.305.1231.858.2073 1.232.1307.496.3195.979.5633 1.44.2543.451.5466.884.8743 1.296.3642.396.7769.756 1.2304 1.071.4855.318 1.0198.572 1.5865.754.5354.137 1.0881.212 1.6449.225.4468 0 1.185.035 1.6383.069.4533.035 4.8763-.294 9.8367-.743l42.3515-3.801c4.9605-.443 9.4611-.956 9.9986-1.151.6342-.224 1.2434-.5 1.8197-.824.5141-.31 1.0092-.645 1.483-1.002.4564-.41.8289-.887 1.1008-1.411.368-.87.6349-1.771.7965-2.689.1814-.979.4469-2.373.5893-3.104.1425-.732.4534-2.4076.693-3.7379s.7252-3.9333 1.0749-5.7876c.3497-1.8544 1.0102-5.4249 1.4635-7.9358s.8225-5.0505.8225-5.6494c-.0591-.8579-.2576-1.7036-.5893-2.5109-.6524-1.2203-1.489-2.3557-2.4867-3.3747-1.0491-1.0769-3.1213-3.2135-4.6172-4.7396s-3.6394-3.7029-4.7662-4.8317c-1.809-1.6823-3.7454-3.2524-5.7958-4.6992-2.0528-1.4513-5.3555-3.5648-7.3306-4.6935-1.9751-1.1288-4.7661-2.747-6.2038-3.5993-1.4376-.8523-3.3997-1.9005-4.3581-2.3036-.885-.4032-1.8108-.731-2.7652-.979-.8033-.1036-1.6217-.0664-2.409.1094-.9482.2759-1.8154.7363-2.5385 1.3476-.666.6079-1.188 1.3286-1.5347 2.1193-.2273.6689-.3834 1.3553-.4663 2.0501.0035.7806.1343 1.5565.3886 2.3036.2379.7357.6583 1.4147 1.2304 1.9868.4209.334 2.9011 1.8544 5.5108 3.3689 2.6098 1.5146 5.6987 3.4554 6.8643 4.3538 1.1657.8983 2.2083 1.9465 2.3119 2.3726.0993.4249.0726.8656-.0777 1.2785-.2266.3422-.5688.6123-.9779.7717-.3885.1497-4.7208-.4262-9.61-1.2785l-29.6784-5.183c-4.8827-.8581-9.3834-1.6125-9.9857-1.6758z" stroke-miterlimit="10" stroke-width="3"/><path d="m275.621 28.1798.028.0843c.209.6437.151 1.3336-.151 1.9312-.288.5704-.766.9969-1.316 1.2456-.653.3352-2.212 1.0675-3.468 1.6485-1.255.5803-3.547 1.755-5.084 2.6057-1.514.8377-4.238 2.5281-6.011 3.7431-1.783 1.2218-4.188 3.0245-5.31 3.9888-1.153.9917-3.064 2.748-4.218 3.8866-1.15 1.1352-2.981 3.0924-4.055 4.3398-1.078 1.2518-2.627 3.1362-3.455 4.2047-.809 1.1702-1.335 2.4638-1.556 3.8013-.061 1.385.26 2.7703.947 4.037 1.324 2.0272 2.808 3.9706 4.44 5.8156 2.426 2.6099 5.024 5.0903 7.782 7.4279l.003.0027 1.464 1.2271v.0002c1.274 1.0679 2.593 2.1058 3.692 2.9127.326.2398.63.4564.904.6458-.432-.7392-.956-1.5788-1.538-2.4545v-.0007l-8.749-13.1878-.008-.0117v-.0001c-1.021-1.572-1.623-3.3913-1.763-5.0887-.136-1.6544.155-3.4381 1.234-4.6981 1.179-1.3748 2.862-1.6381 4.391-1.0966 1.45.5136 2.76 1.7218 3.732 3.3095 0 .0004.001.0008.001.0012l16.511 26.8158v.0001c.737 1.1967 1.98 2.5164 3.421 3.654 1.445 1.1407 2.97 2.0044 4.211 2.3843 1.108.3392 2.166.6293 3.056.8471-.414-.8079-.943-1.7665-1.546-2.78zm0 0-.037-.0806c-.144-.3132-.641-1.1734-1.249-2.2002-.635-1.073-1.456-2.4356-2.311-3.8289-.001-.0004-.001-.0007-.001-.0011l-.239-.39-.001-.0016c-.824-1.3431-1.534-2.6804-2.011-3.7398-.24-.533-.408-.9665-.504-1.2791-.013-.0428-.024-.081-.033-.115.221-.3686.564-.7009 1.016-.9431 1.017-.5267 2.064-1.0055 3.139-1.4342.974-.3755 2.296-.8966 2.939-1.1617l.009-.0039.01-.004c.269-.1155.553-.2069.845-.2723.183.1971.416.4691.692.8125.687.8562 1.562 2.0574 2.45 3.3908 0 .0006.001.0012.001.0019l3.373 5.0832.001.0019c.999 1.5 2.262 2.8164 3.525 3.7388.631.4615 1.295.8481 1.956 1.1025.64.2466 1.387.4111 2.136.2894 1.829-.2807 3.681-.4344 5.538-.4595h5.729c1.936.03 3.869.1626 5.788.3971 1.727.2244 4.132.5705 5.353.8031l.007.0013.007.0013 4.513.814c1.627.3414 3.226.7794 4.785 1.311 1.502.5195 4.07 1.4327 5.7 2.0285 2.261.8892 4.453 1.9091 6.561 3.0527 2.175 1.1929 4.279 2.483 6.305 3.8651 1.455 1.0334 3.935 2.8807 5.526 4.1068 1.998 1.5976 3.899 3.288 5.694 5.064 1.575 1.588 3.635 3.8443 4.566 4.9912 1.068 1.3487 2.052 2.748 2.946 4.1915.603 1.0452.966 2.176 1.077 3.3293-.095 1.0399-.446 2.0589-1.041 2.9846-.682 1.0014-2.164 2.9432-3.282 4.305-1.106 1.3466-3.169 3.612-4.572 4.9995-1.39 1.376-4.239 3.8886-6.313 5.5517-2.423 1.8981-4.979 3.6581-7.655 5.269-2.147 1.2479-5.616 3.0336-7.667 3.9539-1.623.7283-2.512 2.246-2.756 3.8753-.244 1.6205.118 3.4405 1.037 5.1229.001.0001.001.0002.001.0003l.956 1.7586zm-13.69 25.5258 21.279 35.7155 46.921 9.0433c.771 1.4205 1.498 2.7786 2.047 3.8226.275.523.503.963.669 1.291.084.164.143.283.183.364-.171.108-.379.234-.625.376-.796.461-1.892 1.043-3.093 1.631-1.195.585-2.386 1.115-3.333 1.496-.473.189-.869.335-1.167.432-.194-.191-.443-.468-.738-.829-.698-.854-1.554-2.059-2.385-3.403l-3.114-5.044v-.0007c-.117-.1885-.238-.3851-.364-.5886-1.731-2.7993-4.278-6.9185-5.829-9.5065l-.006-.0084-27.261-44.8137c-.001-.0003-.001-.0006-.001-.0008-1.694-2.7945-3.422-5.6433-3.836-6.3468-.34-.5753-.868-.8875-1.329-1.0492-.461-.162-.952-.2115-1.411-.2028-.92.0175-1.956.2742-2.93.7176-1.598.7274-2.106 2.3843-2.088 3.8365.019 1.4923.557 3.173 1.503 4.7416l.001.0018 27.754 45.8907c.719 1.1941.67 1.932.552 2.2165-.067.1634-.306.5282-1.319.5138-1.051-.0151-2.417-.4698-3.764-1.3084-1.334-.8306-2.501-1.9457-3.208-3.1 0-.0001 0-.0003 0-.0005l-25.256-41.2849v-.0005c-.956-1.5612-2.197-2.8182-3.505-3.5408-1.259-.696-2.956-1.0635-4.359-.0362-1.331.9748-1.649 2.683-1.562 4.141.091 1.5389.639 3.2552 1.572 4.8306zm7.259-37.3704c0 .0003.001.0066.001.0183-.001-.0127-.002-.0185-.001-.0183z" stroke-width="3"/><path d="m329.374 41.8225c-.328-.4844-.668-.9621-1.019-1.433.527.2289 1.048.4689 1.562.7199 1.164.5946 3.068 1.6229 4.234 2.2719 1.108.6177 3.233 2.01 4.689 3.0491 1.443 1.03 3.536 2.6784 4.628 3.649 1.12.9964 2.756 2.5369 3.614 3.3949.854.8543 2.143 2.2494 2.838 3.0567.711.8259 1.688 2.006 2.169 2.6313.401.5211.897 1.1912 1.215 1.6372-.001.0028-.002.0057-.003.0086-.076.243-.246.577-.501.8964-.702.8765-1.911 2.3053-2.647 3.1608-.703.8172-2.284 2.479-3.464 3.6836-1.16 1.1845-2.825 2.778-3.681 3.5394-.85.7563-2.187 1.8212-2.933 2.3502-.772.5468-2.311 1.5751-3.39 2.2622-1.084.6902-2.845 1.763-3.901 2.3376l.717 1.3176-.717-1.3176c-1.082.589-2.846 1.4982-3.913 2.0092-1.028.492-2.617 1.1561-3.531 1.4781-.037-.0065-.214-.0323-.554-.2493-.444-.2834-.942-.7647-1.339-1.3781-.308-.5746-.413-1.2017-.318-1.8105.097-.6199.403-1.2254.911-1.7305 1.759-1.662 3.355-3.4584 4.768-5.3697l.014-.019.013-.0194c1.161-1.6782 2.195-3.4251 3.094-5.229l.025-.0492.021-.0509c.777-1.8953 1.324-3.8619 1.63-5.8657l.005-.0331.003-.0332c.261-2.4305.233-4.8788-.081-7.304l-.002-.0108-.001-.0109c-.322-2.2219-.856-4.4141-1.596-6.5528l-.014-.0403-.016-.0395c-.689-1.6774-1.525-3.3024-2.498-4.8604l-.015-.0237z" stroke-width="3"/><path d="m303.874 42.3321-.044-.0065-.045-.0039-1.45-.1268-1.667-.4458-.679-.4709-.258-.463-.094-.5757v-.1168l.266-.3611.375-.3117 1.041-.3842 1.458-.105 2.449.3771 2.267.4714 2.809 1.0154 2.618 1.4004 2.302 1.701 1.508 1.389 1.506 1.752 1.501 2.4174.79 2.0663.605 2.21.133 1.5539-.116 1.3165-.309.55-.375.3864-.562.3193-.678.0679-1.415-.6089-.115-.1026-.03-.2202-.008-.062-.014-.0611-.282-1.2836-.04-.9121-.004-.0883-.014-.0872-.156-.956-.015-.0959-.028-.093-.408-1.3649-.021-.0696-.027-.0672-.667-1.6355-.054-.1312-.077-.1188-.971-1.4973-.057-.0876-.068-.0789-1.224-1.4109-.078-.0902-.092-.0766-1.684-1.411-.066-.0556-.072-.0476-1.794-1.1806-.125-.0821-.138-.0559-2.811-1.1345-.165-.0668-.177-.0261z" stroke-width="3"/><path d="m27.5736 251.596.0021-.008.002-.008c.3522-1.408.8435-2.788 1.4691-4.123.5291-1.062 1.438-2.741 2.008-3.716.6239-1.054 1.3248-2.072 2.0987-3.048.7691-.897 1.6022-1.751 2.4944-2.557.788-.707 2.0478-1.766 2.7952-2.348 1.114-.814 2.291-1.56 3.5229-2.232 1.285-.679 3.2744-1.702 4.4553-2.264 1.262-.572 2.5708-1.06 3.9159-1.461 1.0273-.278 2.9237-.763 4.2322-1.088 1.4905-.327 3.018-.507 4.5547-.537h4.9286c1.6974.041 3.3878.207 5.0536.496 1.5294.275 3.0353.643 4.5074 1.1.9901.344 2.9975 1.174 4.459 1.843 2.0003.97 3.9332 2.045 5.7884 3.218 1.7664 1.145 3.3911 2.448 4.8488 3.887 1.3376 1.505 2.5871 3.069 3.7438 4.686 1.1974 1.762 2.1937 3.624 2.9756 5.556.6819 1.908 1.2081 3.856 1.5748 5.829.2745 1.745.4337 3.501.4767 5.262-.0458 1.665-.2484 3.325-.606 4.962-.455 1.741-1.1015 3.441-1.9314 5.075-1.0696 1.841-2.3329 3.591-3.7743 5.227-1.3961 1.568-3.5085 3.87-4.6824 5.114l-.0168.018-.0163.018c-1.5014 1.699-2.7469 3.571-3.7009 5.571l-.0168.035-.015.036c-.8729 2.105-1.4118 4.311-1.5987 6.555l-.0007.009-.0007.009c-.1362 1.921-.4745 3.827-1.0108 5.694-.5756 1.703-1.3287 3.357-2.2506 4.94-.8754 1.366-1.9249 2.642-3.1303 3.803-1.1369 1.004-2.3448 1.945-3.6168 2.815-2.45 1.594-5.2732 2.698-8.2725 3.225-1.4823.245-2.9885.362-4.4971.347-1.0199-.059-1.9626-.426-2.677-1.01-.3872-.395-.6044-.862-.6582-1.331.1192-.409.3535-.803.7014-1.143.8681-.531 1.8701-.887 2.9329-1.034l.0074-.001.0073-.001c1.3638-.202 3.6104-.582 4.9974-.921 1.4757-.329 2.8818-.886 4.1543-1.649l.064-.039.0598-.044c.9876-.735 1.8927-1.559 2.7009-2.459l.0067-.008c.6561-.741 1.6607-1.907 2.2485-2.59l.0215-.025.0205-.026c.8128-1.034 1.4312-2.19 1.8234-3.42l.01-.032.0086-.031c.3287-1.213.5598-2.446.6915-3.69l.001-.009.0008-.01c.0901-.966.2384-2.446.3284-3.292.0826-.777.3348-2.23.5519-3.197.2533-1.041.6243-2.059 1.1085-3.038.4464-.826 1.1505-2.021 1.5711-2.647.4598-.686 1.2663-1.875 1.8453-2.643 1.034-1.306 2.1508-2.56 3.3452-3.756l.0079-.008.0079-.008c1.3165-1.358 3.2858-3.54 4.3801-4.875 1.0586-1.276 1.9566-2.656 2.6752-4.116l.0415-.084.0306-.089c.4441-1.286.7693-2.603.9718-3.939l.0025-.016.0021-.016c.2002-1.55.2305-3.114.0905-4.669l-.0019-.021-.0024-.021c-.1429-1.209-.4904-3.149-.7786-4.309l-.0032-.012c-.3444-1.338-.8064-2.648-1.381-3.918l-.0103-.023-.0109-.022c-.4807-.976-1.3514-2.534-2.0127-3.497l-.0084-.013-.0087-.012c-.9945-1.389-2.0883-2.718-3.2743-3.978h.0001l-.0066-.007c-1.3449-1.412-2.8158-2.722-4.3973-3.917l-.0315-.024-.0327-.022c-1.6297-1.102-3.3753-2.057-5.2111-2.852l-.0124-.005-.0124-.005c-1.7753-.732-3.6082-1.344-5.4835-1.833l-.0366-.009-.037-.008c-1.904-.395-3.8453-.627-5.7977-.693h-.0072-.0073c-1.7157-.041-4.4956-.002-6.2091.149l-.0145.001-.0144.002c-2.2222.239-4.407.707-6.5106 1.396l-.0128.004-.0127.005c-1.959.681-3.8414 1.53-5.6205 2.535l-.0325.019-.0316.02c-1.4548.92-2.852 1.913-4.1849 2.972l-.0082.007-.0082.006c-1.1204.917-2.1838 1.888-3.185 2.911l-.0212.021-.0202.023c-.7856.87-1.4967 1.793-2.1264 2.762l-.0072.012-.0071.011c-.4917.787-1.3026 2.298-1.8192 3.389h-.0001l-.0057.013c-.6336 1.371-1.1812 2.774-1.64 4.201l-.0029.009-.0028.009c-.3993 1.299-.6684 2.628-.8034 3.971l-.0033.033-.0019.033c-.0451.807-.1443 1.61-.2972 2.407-.1281.497-.3266.983-.5934 1.444-.2501.282-.6104.514-1.0504.638-.52.123-1.0687.127-1.5906.012-.4879-.183-.9334-.431-1.322-.731-.3343-.458-.4937-.974-.4834-1.482.0259-1.141.1516-2.279.3762-3.404.0422-.191.0895-.407.1406-.64.2388-1.092.5611-2.566.8399-3.631z" stroke-width="3"/><path d="m58.7603 239.658.2926 1.471-2.0269.403-.0023.001c-1.0898.215-2.1651.483-3.2211.802-.8507.295-1.6727.648-2.4585 1.056zm0 0 3.0955.012v1.5h1.2377c.8047.013 1.6075.07 2.404.171.8441.118 1.6759.295 2.4877.528.6638.201 1.8212.627 2.573.936.7967.337 1.5693.715 2.3135 1.133.5436.316 1.5683.99 2.2669 1.496l.8653-1.195-.8653 1.195c.704.51 1.6583 1.249 2.1324 1.647.5633.501 1.0804 1.039 1.5474 1.608.4396.559 1.0929 1.441 1.4381 1.971.3993.621.7494 1.265 1.0482 1.926.2244.513.5529 1.425.7209 1.969.1712.555.4236 1.481.5499 2.046.1258.605.1968 1.218.2123 1.832v1.773c-.0023.104-.0312.216-.0961.328-.2334.244-.4929.47-.776.676l-.0033.003m-23.1521-21.555 23.1521 21.555m0 0c-.254.186-.5231.357-.8054.512-.1925.066-.395.113-.6034.139-.259.004-.5112-.045-.7359-.138-.3005-.141-.5881-.3-.8607-.476-.2114-.217-.3755-.456-.4911-.706-.2068-.45-.3286-.92-.3644-1.395l-.0006-.008m3.8615 2.072-3.8615-2.072m0 0-.0006-.007m.0006.007-.0006-.007m0 0c-.0783-.92-.2298-1.833-.4532-2.733l-.0013-.006m.4545 2.739-.4545-2.739m0 0c-.2476-.981-.6338-1.927-1.1468-2.814l-.0376-.065m1.1844 2.879-1.1844-2.879m0 0-.0438-.061m.0438.061-.0438-.061m0 0c-.555-.77-1.1623-1.508-1.8182-2.209l-.0118-.013m1.83 2.222-1.83-2.222m0 0-.0121-.012m.0121.012-.0121-.012m0 0c-.8185-.836-1.6938-1.625-2.6206-2.362-2.028-1.635-4.5141-2.717-7.1702-3.143-1.1926-.201-2.4044-.294-3.6172-.278h-.0295m13.4375 5.783-13.4375-5.783m0 0-.0294.001m.0294-.001-.0294.001m0 0c-.8064.043-1.952.15-2.5731.238l-.0207.003m2.5938-.241-2.5938.241m0 0-.0206.003m.0206-.003-.0206.003m0 0c-.8536.145-1.6921.358-2.5058.635l-.0093.003m2.5151-.638-2.5151.638m0 0-.0092.004m.0092-.004-.0092.004m0 0c-.7157.254-1.7406.672-2.3019.944l-.012.006m2.3139-.95-2.3139.95m0 0-.0118.006m.0118-.006-.0118.006m0 0c-.6639.337-1.2931.729-1.879 1.173l-.0076.006m1.8866-1.179-1.8866 1.179m0 0-.0075.006m.0075-.006-.0075.006m0 0c-.4543.354-1.1145.923-1.5002 1.278l-.0107.01m1.5109-1.288-1.5109 1.288m0 0-.0104.01m.0104-.01-.0104.01m0 0c-.5175.496-1.0022 1.019-1.4512 1.568l-.0156.019m1.4668-1.587-1.4668 1.587m0 0-.015.019m.015-.019-.015.019m0 0c-.493.645-.9432 1.316-1.3478 2.011l-.0116.02m1.3594-2.031-1.3594 2.031m0 0-.0109.02m.0109-.02-.0109.02m0 0c-.388.715-.7128 1.458-.9705 2.222l-.0135.04m.984-2.262-.984 2.262m0 0-.0113.041m.0113-.041-.0113.041m0 0c-.2027.735-.3419 1.484-.4159 2.239l-.0014.015m.4173-2.254-.4173 2.254m0 0-.0011.014m.0011-.014-.0011.014m0 0c-.041.521-.1418 1.317-.2217 1.769m.2217-1.769-.2217 1.769m0 0c-.0904.398-.2412.789-.4511 1.161-.1701.246-.4033.471-.6938.653-.2397.134-.5057.236-.7893.302-.2368.029-.4754.047-.7147.053-.2037-.011-.404-.044-.5964-.097-.1661-.049-.3242-.112-.472-.187-.1311-.089-.3221-.22-.4869-.334-.1721-.156-.3308-.322-.4753-.495-.1517-.227-.255-.468-.3115-.711-.0755-.354-.1747-1.008-.2159-1.423-.0381-.514-.0381-1.029-.0002-1.542.0523-.514.1457-1.024.2798-1.527.1279-.43.4268-1.337.666-2.027.2602-.688.5953-1.354 1.0018-1.99.3643-.538.9999-1.394 1.4115-1.913.4186-.528 1.1254-1.381 1.5652-1.89.5147-.579 1.0704-1.13 1.664-1.649.6133-.508 1.2613-.984 1.9405-1.424.5938-.366 1.6445-.974 2.3309-1.33z" stroke-width="3"/><path d="m33.2704 294.15c.0011.601-.1983 1.196-.5817 1.707-.3841.513-.937.92-1.595 1.163-.6581.243-1.3852.308-2.0872.184-.7021-.124-1.3399-.429-1.8352-.87-.4947-.44-.8236-.993-.9558-1.585-.1321-.592-.0645-1.206.1977-1.767.2626-.563.7118-1.053 1.3001-1.402.5886-.349 1.2857-.537 2.0025-.536.96.001 1.8701.341 2.5331.931.6611.588 1.0201 1.371 1.0215 2.175z"/><path d="m48.308 292.393-16.1281-15.37 3.3539-2.784 16.1281 15.37z" stroke-width="3"/><path d="m57.0623 274.666c0 .602-.2001 1.195-.584 1.706-.3846.512-.9376.919-1.5953 1.161-.6579.243-1.3845.307-2.086.183-.7015-.125-1.3388-.43-1.8338-.87-.4944-.44-.8231-.992-.9555-1.584-.1323-.591-.0651-1.205.1963-1.766.262-.563.7103-1.053 1.2977-1.402.5877-.349 1.284-.538 2.0003-.538.962 0 1.8744.34 2.5388.931.6625.589 1.0215 1.375 1.0215 2.179z"/><path d="m68.413 265.051c.0009.488-.1605.978-.4815 1.406-.3223.431-.7938.782-1.3672.994-.5736.212-1.2106.27-1.8264.161-.6157-.108-1.1674-.374-1.59-.75-.4215-.374-.6927-.836-.8012-1.319-.1082-.482-.0546-.984.1608-1.447.2165-.465.5926-.882 1.0998-1.183.5078-.302 1.1156-.469 1.7454-.469.8462 0 1.6376.3 2.2049.803.5634.501.8542 1.153.8554 1.804z" stroke-width="2"/><path d="m103.903 244.72c.971-8.857-5.7506-16.7-15.0304-17.489" stroke-miterlimit="10" stroke-width="3"/><path d="m115.404 244.576c2.305-13.291-9.189-25.88-25.7025-28.149" stroke-miterlimit="10" stroke-width="3"/><path d="m20.9081 303.462c.0011.602-.1982 1.196-.5817 1.707-.3841.513-.937.921-1.5949 1.164-.6581.243-1.3852.307-2.0873.183-.702-.124-1.3398-.429-1.8352-.87-.4947-.44-.8235-.993-.9558-1.585-.132-.592-.0644-1.206.1977-1.767.2627-.563.7118-1.053 1.3001-1.402.5887-.349 1.2858-.537 2.0026-.536.9599.001 1.87.342 2.533.931.6612.588 1.0201 1.372 1.0215 2.175z"/></g><path d="m289.757 262.791c.65-.76.65-.76.65-.76-.001 0 .001.001 0 0-.011-.009.01.009-.001 0-.003-.003.001 0-.003-.003s0-.001-.001-.001 0 0-.001-.001-.001-.001-.001-.001c-.004-.003.003.002-.001-.001h-.001c0-.001 0-.001-.001-.001-.002-.002.001.001-.001-.001-.01-.009.006.005-.004-.003-.028-.025.014.011-.017-.015-.005-.004-.005-.005-.011-.009-.021-.018.009.008-.012-.011-.043-.037.03.026-.013-.011-.004-.003-.001-.001-.004-.003-.001-.001-.001-.001-.002-.002 0 0-.001-.001-.002-.001-.004-.004-.002-.003-.007-.007-.006-.005-.025-.021-.032-.027-.001-.001-.008-.007-.009-.008-.001 0-.001-.001-.002-.002-.001 0-.001-.001-.002-.001-.001-.001-.002-.002-.002-.002-.001-.001-.002-.002-.003-.002-.008-.008.005.003-.004-.004-.007-.006.003.002-.005-.004 0-.001-.001-.001-.002-.002-.001 0-.001-.001-.002-.002-.001 0-.002-.001-.003-.002 0 0-.001-.001-.002-.002-.006-.005-.012-.01-.019-.016-.014-.012.005.004-.009-.008-.049-.041.043.037-.005-.004-.052-.045.047.04-.005-.005 0 0-.04-.033-.041-.034-.025-.022.006.005-.02-.018-.009-.008.004.004-.005-.004-.001-.001-.002-.002-.003-.002-.001-.001-.002-.002-.003-.003-.01-.008.005.005-.005-.004-.003-.003-.002-.002-.005-.005-.049-.042.039.033-.011-.009-.005-.004-.004-.004-.01-.009-.041-.035.036.031-.005-.004-.037-.032.031.027-.006-.005-.018-.016.009.008-.01-.009-.024-.02.013.012-.011-.009-.059-.051.055.047-.005-.004-.001-.001-.002-.001-.002-.002-.001-.001-.002-.002-.003-.002-.026-.023.015.013-.011-.009-.034-.03.024.02-.01-.009-.001-.001-.002-.002-.003-.002 0-.001-.001-.002-.002-.003-.016-.013.011.009-.005-.004-.001-.001-.002-.002-.003-.002-.001-.001-.002-.002-.002-.002-.001-.001-.002-.002-.003-.003-.001 0-.002-.001-.003-.002-.047-.04.027.023-.02-.017-.045-.039.041.034-.005-.004-.001-.001-.001-.002-.002-.003-.001 0-.002-.001-.003-.002-.001 0-.001-.001-.002-.002s-.002-.001-.003-.002c-.003-.003-.001-.001-.005-.004 0-.001-.001-.002-.002-.002-.001-.001-.002-.002-.002-.002-.001-.001-.002-.002-.003-.002-.001-.001-.001-.002-.002-.002-.021-.018.011.009-.01-.009-.061-.052.051.044-.009-.008-.049-.041.043.038-.005-.004-.001 0-.001-.001-.002-.002-.001 0-.002-.001-.002-.002-.002-.001-.009-.006-.01-.007-.03-.027.022.018-.008-.008-.001-.001-.002-.001-.003-.002 0 0-.001-.001-.002-.002-.011-.009.007.006-.004-.003-.001-.001-.002-.002-.002-.002-.001-.001-.002-.001-.002-.002-.001-.001-.002-.001-.003-.002 0 0-.001-.001-.002-.002-.044-.037.036.031-.008-.007-.001 0-.001-.001-.002-.001-.001-.001-.001-.002-.002-.002-.001-.001-.001-.001-.002-.002-.001 0-.001-.001-.002-.001-.001-.001-.001-.002-.002-.002 0-.001-.001-.001-.002-.002 0 0-.001-.001-.002-.002 0 0-.001-.001-.002-.001 0-.001-.001-.001-.002-.002 0 0-.001-.001-.001-.001-.001-.001-.002-.001-.002-.002-.001-.001-.002-.001-.002-.002-.001 0-.001-.001-.002-.001-.001-.001-.001-.001-.002-.002 0 0-.001-.001-.002-.001 0-.001-.001-.001-.001-.002-.029-.024.021.019-.007-.006-.039-.033.012.011-.025-.021-.001 0-.001-.001-.002-.001 0 0 0-.001-.001-.001 0-.001-.001-.001-.001-.001-.001-.001-.001-.001-.002-.001 0-.001 0-.001-.001-.002 0 0-.001 0-.001-.001 0 0-.001 0-.001-.001-.001 0-.001 0-.002-.001-.039-.033.035.029-.004-.004-.001 0-.001 0-.001-.001-.001 0-.001 0-.001-.001-.001 0-.001 0-.001-.001-.001 0-.001 0-.001 0-.001-.001-.001-.001-.002-.001 0-.001 0-.001 0-.001-.001 0-.001-.001-.001-.001-.001 0-.001-.001-.001-.001-.001 0-.001 0-.001-.001-.001 0-.001 0-.001 0 0-.001-.001-.001-.001-.001s-.001-.001-.001-.001 0 0-.001 0c0-.001 0-.001-.001-.001-.036-.031.035.029-.001-.001-.026-.023.025.021-.001-.002-.001 0-.001 0-.001 0s0-.001-.001-.001c-.021-.018.019.016-.002-.002-.001 0-.001 0-.001 0 0-.001 0-.001 0-.001h-.001s0 0 0-.001c-.001 0-.001 0-.001 0v-.001h-.001c-.65.76-1.3 1.52-1.3 1.52h.001v.001h.001v.001h.001c0 .001.001.001.001.001 0 .001.001.001.001.001.001 0 .001.001.001.001h.001v.001c.001 0 .001 0 .001.001h.001c0 .001 0 .001.001.001v.001h.001c.001.001.001.001.001.001.001 0 .001.001.001.001s.001.001.001.001.001 0 .001.001c.001 0 .001 0 .001.001.001 0 .001 0 .001.001.028.023-.025-.022.003.001 0 .001 0 .001.001.002 0 0 .001 0 .001.001 0 0 .001 0 .001.001.001 0 .001 0 .002.001 0 0 0 .001.001.001 0 0 .001.001.001.001.001 0 .001.001.002.001 0 .001.001.001.001.002.001 0 .001 0 .002.001 0 0 .001.001.001.001l.002.002s.001 0 .001.001c.001 0 .002.001.002.001l.002.002s.001.001.002.001c0 .001.001.001.001.002.001 0 .001.001.002.001l.002.002c.001 0 .001.001.002.002 0 0 .001.001.002.001 0 .001.001.001.002.002 0 0 .001.001.002.002.017.015-.014-.012.004.003l.002.002c.001.001.002.001.002.002.001 0 .002.001.002.002.001 0 .002.001.003.002.001 0 .001.001.002.002.001 0 .002.001.002.002.001 0 .002.001.003.002.001 0 .001.001.002.002.001 0 .002.001.003.002l.002.002c.001.001.002.002.003.002.001.001.002.002.002.002.001.001.011.009.011.01.001.001.002.001.003.002s.002.002.003.003c.001 0 .002.001.003.002l.003.003c.041.035-.035-.03.006.005.001.001.002.002.003.002.001.001.002.002.003.003s.002.002.003.003.002.002.004.003c.032.027-.026-.022.006.005.062.053-.055-.047.007.006.024.02-.017-.014.007.006.001.001.002.002.004.003.001.001.002.002.003.003s.003.002.004.003.002.002.003.004c.011.008-.002-.003.008.006.001.001.003.002.004.003l.004.004c.001.001.002.002.004.003.001.001.002.002.004.003.001.002.002.003.004.004.001.001.002.002.004.003.008.007 0 .001.008.007.002.002.003.003.004.004.002.001.003.003.005.004.001.001.003.002.004.003.002.002.003.003.004.004.002.002.003.003.005.004l.004.004c.002.001.003.002.005.004.001.001.003.002.005.004.024.021-.016-.013.009.008.036.031-.017-.015.019.016.002.002.003.003.005.004l.005.005c.002.001.004.003.005.004.002.001.004.003.005.004.002.002.004.003.005.005.002.001.004.003.006.004.032.028-.022-.018.01.009.002.002.004.003.006.005.001.002.003.003.005.005.002.001.004.003.006.004.001.002.003.003.005.005s.004.003.006.005c.002.001.004.003.005.005.002.001.004.003.006.005.002.001.004.003.006.004.028.025-.005-.004.023.021.002.001.004.003.007.005.002.002.004.003.006.005s.004.004.006.005c.002.002.004.004.006.006.002.001.004.003.006.005s.004.004.007.005c.002.002.004.004.006.006s.004.003.006.005c.003.002.005.004.007.006s.004.004.006.005c.01.009.004.003.014.012.061.052-.048-.041.013.011.056.048-.041-.035.014.012.002.002.005.004.007.006s.005.004.007.006.005.004.007.006.005.004.007.006c.003.002.005.004.007.006.003.002.005.005.008.007.011.009.003.002.014.012.003.002.005.004.008.007.002.002.005.004.007.006.003.002.005.004.008.006.002.003.005.005.007.007.042.036-.026-.023.016.013.002.002.005.005.008.007.002.002.005.004.007.006l1.3-1.52c-.063-.053.048.041-.015-.013-.003-.002-.006-.004-.008-.007-.003-.002-.005-.004-.008-.006-.034-.029.004.003-.03-.026-.002-.002-.005-.004-.007-.006-.003-.002-.005-.004-.008-.006-.002-.003-.004-.005-.007-.007-.002-.002-.005-.004-.007-.006s-.005-.004-.007-.006c-.003-.002-.005-.004-.007-.006-.003-.002-.005-.004-.007-.006-.003-.002-.005-.004-.007-.006-.003-.002-.005-.004-.007-.006s-.005-.004-.007-.006-.005-.004-.007-.005c-.002-.002-.004-.004-.007-.006-.002-.002-.004-.004-.006-.006s-.005-.004-.007-.006c-.002-.001-.004-.003-.006-.005-.003-.002-.005-.004-.007-.006s-.004-.003-.006-.005-.005-.004-.007-.006c-.002-.001-.004-.003-.006-.005s-.004-.004-.006-.005c-.002-.002-.004-.004-.006-.006-.003-.002-.005-.003-.007-.005-.01-.009-.002-.002-.012-.01-.056-.049.033.028-.023-.021-.055-.047.043.038-.012-.009-.02-.017.009.007-.011-.01-.033-.028.011.009-.022-.019-.002-.001-.003-.003-.005-.004-.002-.002-.004-.003-.006-.005-.017-.015.007.006-.01-.009-.002-.001-.003-.003-.005-.004s-.003-.003-.005-.004c-.002-.002-.003-.003-.005-.005-.002-.001-.003-.002-.005-.004-.002-.001-.003-.003-.005-.004s-.003-.003-.005-.004c-.001-.002-.003-.003-.005-.004-.001-.002-.003-.003-.004-.004-.002-.002-.003-.003-.005-.004-.002-.002-.003-.003-.005-.004-.001-.002-.003-.003-.004-.004-.002-.002-.003-.003-.005-.004-.001-.001-.003-.003-.004-.004-.002-.001-.003-.003-.005-.004-.001-.001-.003-.002-.004-.004-.002-.001-.003-.002-.004-.003-.002-.001-.003-.003-.005-.004-.001-.001-.003-.002-.004-.004-.001-.001-.003-.002-.004-.003-.002-.001-.003-.003-.004-.004-.026-.022.017.015-.008-.007-.002-.001-.003-.002-.004-.003-.002-.001-.003-.002-.004-.003-.002-.002-.003-.003-.004-.004-.002-.001-.003-.002-.004-.003-.023-.02.015.013-.008-.007-.001-.001-.002-.002-.003-.003-.002-.001-.003-.002-.004-.003-.01-.008.002.002-.007-.006-.001-.001-.003-.002-.004-.003s-.002-.002-.003-.003-.003-.002-.004-.003-.002-.002-.003-.003-.002-.002-.003-.003-.003-.001-.004-.002c-.047-.041.041.035-.006-.006-.001-.001-.002-.002-.003-.003-.001 0-.002-.001-.003-.002s-.002-.002-.003-.003-.002-.002-.003-.002c-.001-.001-.002-.002-.003-.003s-.002-.002-.003-.002c-.001-.001-.002-.002-.003-.003s-.002-.001-.003-.002c-.051-.044.04.034-.011-.01-.001 0-.002-.001-.002-.002-.001-.001-.002-.001-.003-.002s-.002-.001-.003-.002c0-.001-.001-.002-.002-.002-.035-.03.025.021-.009-.008-.004-.003-.001-.001-.005-.004-.001-.001-.001-.001-.002-.002s-.002-.001-.002-.002c-.001-.001-.002-.001-.002-.002-.001 0-.002-.001-.002-.001-.001-.001-.002-.002-.002-.002-.001-.001-.002-.001-.002-.002-.051-.043.042.037-.008-.006-.001-.001-.001-.001-.002-.002 0 0-.001-.001-.001-.001-.001-.001-.002-.001-.002-.002-.001 0-.001-.001-.002-.001 0-.001-.001-.001-.001-.002-.001 0-.001 0-.002-.001 0 0-.001-.001-.002-.001 0-.001-.001-.001-.001-.001-.001-.001-.001-.001-.001-.002-.001 0-.001-.001-.002-.001 0 0-.001-.001-.001-.001-.001-.001-.001-.001-.002-.001 0-.001-.001-.001-.001-.001 0-.001-.001-.001-.001-.001-.001-.001-.001-.001-.001-.002-.001 0-.001 0-.002-.001 0 0 0 0-.001-.001 0 0-.001 0-.001-.001h-.001c0-.001-.001-.001-.001-.001 0-.001-.001-.001-.001-.001s-.001-.001-.001-.001-.001-.001-.001-.001-.001 0-.001-.001c0 0 0 0-.001 0 0-.001 0-.001-.001-.001v-.001c-.001 0-.001 0-.001 0 0-.001-.001-.001-.001-.001s0 0-.001-.001-.001-.001-.001-.001c-.001 0-.001-.001-.001-.001s0 0-.001 0c0 0 0 0 0-.001-.001 0-.001 0-.001 0v-.001h-.001c0-.001 0-.001 0-.001-.001 0-.001 0-.001 0s-.65.76-1.3 1.52h.001v.001h.001v.001h.001v.001h.001c0 .001.001.001.001.001.001 0 .001.001.001.001h.001c.003.003-.001 0 .002.003h.001s0 .001.001.001v.001h.001c.001 0 .001.001.001.001s.001 0 .001.001h.001c0 .001.001.001.001.001 0 .001 0 .001.001.001 0 0 0 .001.001.001 0 0 0 0 .001.001 0 0 0 0 .001.001h.001c0 .001 0 .001.001.001 0 .001.001.001.001.001 0 .001.001.001.001.001 0 .001.001.001.001.001.001.001.001.001.001.001.001.001.001.001.001.001.001.001.001.001.002.001 0 .001 0 .001.001.001 0 .001.001.001.001.001.001.001.001.001.001.001l.002.002s.001 0 .001.001c0 0 .001 0 .001.001.042.035-.038-.033.003.002.001.001.001.001.001.001.001.001.001.001.002.002 0 0 .001 0 .001.001.001 0 .001.001.002.001 0 0 .001.001.001.001l.002.002s.001 0 .001.001c.001 0 .001.001.002.001 0 .001.001.001.001.002.001 0 .001 0 .002.001.001 0 .001.001.002.001 0 .001.001.001.001.002.001 0 .001.001.002.001 0 .001.001.001.001.001.001.001.002.001.002.002.001 0 .001.001.002.001.007.006-.004-.003.003.003.001.001.001.001.002.002.001 0 .001.001.002.001 0 .001.001.001.002.002 0 0 .001.001.001.001.001.001.002.001.002.002.001 0 .001.001.002.001.035.031-.032-.027.004.004 0 0 .001.001.002.001 0 .001.001.001.002.002.056.049-.054-.045.003.003.001.001.002.001.002.002.001 0 .002.001.002.002.001 0 .002.001.002.001.001.001.002.001.002.002.001.001.002.001.002.002.001 0 .002.001.002.001.001.001.002.002.002.002.001.001.002.001.002.002.001 0 .002.001.003.002 0 0 .001.001.002.001 0 .001.001.002.002.002 0 .001.001.001.002.002s.001.001.002.002c.001 0 .001.001.002.002.007.006-.003-.003.004.003.037.031-.031-.027.005.004 0 .001.001.001.002.002l.002.002c.001.001.002.001.002.002.001 0 .002.001.003.002.003.003 0 0 .004.004.001 0 .002.001.002.002.001 0 .002.001.003.001 0 .001.001.002.002.002.001.001.002.002.002.002.001.001.002.002.003.002 0 .001.001.002.002.002.001.001.002.002.002.002.001.001.002.002.003.002 0 .001.001.002.002.002.001.001.002.002.002.002.043.037-.004-.003.039.034.001.001.002.001.003.002s.002.001.002.002c.028.024-.022-.019.006.004 0 .001.001.002.002.003.001 0 .002.001.003.002.051.044-.046-.04.005.004.056.049-.047-.04.01.009.001.001.002.001.003.002 0 .001.001.002.002.002.001.001.002.002.003.003.001 0 .001.001.002.002.021.017-.01-.009.011.009.001 0 .001.001.002.002s.002.001.003.002.002.002.003.002c0 .001.001.002.002.003.003.002.002.001.005.004.001.001.002.002.003.002.001.001.002.002.003.003.008.006-.003-.003.005.004.02.017-.015-.013.005.005 0 0 .01.008.011.009.008.007.002.001.01.009.027.023-.022-.019.005.004.001.001.002.002.003.002l.003.003c.005.004-.001-.001.005.004.026.022-.02-.017.005.004l.003.003c.001 0 .002.001.002.002.001.001.002.001.003.002s.002.002.003.002c.046.04-.036-.03.01.009.001.001.002.002.003.003 0 0 .001.001.002.002.005.004.001 0 .005.004.011.009-.005-.005.006.005.045.039-.041-.035.005.004.001.001.001.001.002.002s.002.002.003.002c.002.003.002.002.005.005.001 0 .002.001.002.002.001.001.002.001.003.002s.002.002.003.002c0 .001.001.002.002.002.014.012.006.006.02.017.001.001.002.002.002.003.001 0 .002.001.003.002.001 0 .002.001.002.002.001 0 .002.001.003.002l.002.002c.001.001.002.001.003.002 0 .001.001.001.002.002s.002.001.002.002c.001.001.002.002.003.002.001.001.001.002.002.002.001.001.002.002.003.002 0 .001.001.002.002.002.001.001.002.002.002.002.001.001.002.002.003.002.001.001.001.002.002.002.001.001.002.002.002.002.046.039-.008-.007.036.031.003.002.006.005.008.007.054.046-.049-.042.005.003 0 .001.001.002.002.002 0 .001.001.001.002.002 0 .001.001.001.002.002 0 0 .001.001.002.001.001.002.002.002.004.004.001.001.006.005.007.006.003.003.027.023.028.024.063.054-.037-.032.023.02.021.017-.001-.001.018.015.062.053-.049-.042.011.009.002.002-.002-.001.001.001v.001c.004.002-.002-.002.001.001h.001s0 0 .65-.76z" fill="#563a5f" mask="url(#a)"/><path d="m263.569 234.948 5.822-5.759 4.559-3.795 2.5-1.031 2.376.207 1.788 1.221.803 1.975.006 2.315-.557 1.676-.926 1.423-1.787 1.768-2.403 2.234-1.541 1.371-1.807 2.084 1.807-.656 2.461-1.1 1.975-.875 1.975-.766 2.59-.881 1.723-.329 2.344-.328h1.975l2.344.438 1.6.933 1.049 1.48.188 2.084-.188 1.757-.926 1.261-1.852.985-2.092.604-2.648.496-1.671.38-2.092.823-1.237.547-.861.605h1.852 3.206 3.328l2.837.161 2.344.496 2.092.547 2.59.881 1.91 1.261 1.114 1.48.181 2.085-.181 1.641-.926 1.319-1.353.933-1.483.437-1.237.162-2.584-.599-2.344-.714-2.591-.547-2.713-.329h-1.599l-1.853.329-2.836.766 2.137.218 2.921.329 3.082.714 3.083 1.37 2.959 1.866 2.59 2.574 1.354 1.809.492 1.1.065 2.084-.557 1.912-1.172 1.158-.926.656-1.723.496h-1.483l-1.975-.496-1.6-1.203-1.968-2.085-2.221-1.647-2.222-.714-2.778-.109-2.648.771-2.034 1.152-1.113 1.422-.739 1.538-.181 1.538.492 2.516.738 1.21 1.354 1.203 1.729 1.043 2.713.604 2.714-.167 2.091-.927 1.483-1.1 1.237-1.319 1.353-1.364 1.231-.605 1.729-.438 1.353.11 1.729.109 1.665.599 1.295 1.371.492.881.123 2.084-.984 2.195-1.606 2.084-2.215 1.97-2.344 1.756-2.96 1.204-3.27.714-3.348.495h-3.866l-4.682-.167-4.565-.38-3.698-.224-4.196-.438-3.083 1.209-12.084 4.826h-2.344l-2.091-.656-1.729-2.742-1.73-2.856-1.353-2.304-1.975-3.288-2.221-3.726-1.723-3.075-.473-1.474 6.884-3.41 3.698-1.693 2.713-1.647 2.714-1.532 1.087-1.313 1.011-2.418 1.107-2.085 2.221-3.507 1.852-2.523 1.108-1.428.123-3.616.615-3.289 1.237-3.403 1.476-2.851 1.975-2.96z" mask="url(#b)" stroke="#563a5f" stroke-width="6"/><path d="m322.738 318.014-2.749 1.2.361.826.756.49zm-.854-1.958-2.999.083.016.583.233.534zm-.065-2.316-2.874-.86-.139.462.014.482zm.505-1.687-2.554-1.574-.207.336-.113.378zm.887-1.44-2.16-2.081-.225.233-.169.275zm1.742-1.808-2.095-2.148-.033.033-.032.034zm2.344-2.286-2.044-2.195-.026.023-.024.024zm1.503-1.4 2.044 2.196.146-.136.126-.153zm1.748-2.125 2.317 1.907 7.304-8.877-10.711 4.175zm-1.787.697-1.09-2.795-.095.037-.093.044zm-2.435 1.146-1.278-2.714-.004.002zm-1.949.922 1.153 2.769.065-.027.064-.03zm-1.949.812 1.02 2.821.067-.024.066-.028zm-2.565.927.628 2.933.2-.042.192-.07zm-1.722.368.482 2.961.073-.012.072-.015zm-2.332.381.062 2.999.212-.004.209-.035zm-1.975.04-.486 2.96.272.045.275-.006zm-2.351-.386-1.451 2.626.454.25.512.084zm-1.625-.898-2.407 1.79.387.521.569.314zm-1.088-1.463-2.979.352.094.796.478.642zm-.246-2.079-2.99-.243-.024.298.035.298zm.143-1.757-2.465-1.71-.46.663-.066.805zm.887-1.278-1.469-2.616-.602.338-.394.568zm1.826-1.025-.896-2.863-.299.094-.274.153zm2.079-.651-.61-2.937-.145.03-.142.044zm2.635-.547.61 2.937.064-.013.064-.016zm1.658-.42.737 2.908.217-.055.207-.087zm2.072-.87 1.161 2.766.056-.023.056-.026zm1.218-.57 1.272 2.717.265-.124.237-.174zm.848-.622 1.774 2.419 7.673-5.625-9.512.207zm-1.852.04.065 3zm-3.206.069.063 3h.002zm-3.328.069-.109 2.998.085.004.086-.002zm-2.843-.103-.556 2.948.221.042.226.008zm-2.351-.444-.7 2.918.072.017.072.013zm-2.111-.506-.897 2.862.098.031.099.024zm-2.609-.818-1.593 2.542.327.205.368.116zm-1.95-1.221-2.358 1.855.323.41.443.277zm-1.146-1.457-2.98.343.097.844.525.668zm-.239-2.079-2.99-.247-.025.296.034.294zm.135-1.647-2.499-1.66-.427.644-.063.769zm.888-1.336-1.755-2.434-.443.32-.302.454zm1.334-.962-.918-2.856-.452.145-.385.278zm1.47-.472-.461-2.965-.233.037-.224.072zm1.224-.19.615-2.936-.535-.113-.541.084zm2.609.547.812-2.888-.097-.027-.099-.021zm2.358.662-.812 2.888.125.036.127.024zm2.609.496-.559 2.947.13.025.132.013zm2.72.27-.297 2.985.18.018.182-.004zm1.6-.034.064 2.999.264-.006.259-.051zm1.845-.369.588 2.942.132-.026.129-.039zm2.811-.829.849 2.877-.616-5.868zm-2.144-.167-.276 2.987.022.002.021.002zm-2.927-.271-.611 2.937.166.035.169.015zm-3.102-.645-1.159 2.767.266.112.283.058zm-3.121-1.307-1.543 2.572.185.112.199.083zm-3.005-1.803-2.061 2.18.238.225.28.168zm-2.661-2.516-2.362 1.85.138.176.162.154zm-1.399-1.786-2.7 1.308.14.29.198.253zm-.525-1.082-2.995.167.034.6.261.541zm-.116-2.085-2.904-.753-.118.453.026.468zm.498-1.923-2.152-2.09-.553.569-.199.768zm1.147-1.181-1.8-2.4-.188.141-.165.169zm.906-.68-.888-2.865-.496.154-.415.311zm1.71-.529-.059-3-.424.008-.405.126zm1.476-.029.662-2.926-.356-.081-.364.007zm1.988.449 1.753-2.435-.496-.357-.595-.134zm1.632 1.175 2.124-2.119-.172-.173-.199-.143zm2.034 2.038-2.124 2.119.184.185.213.15zm2.266 1.596-1.727 2.453.4.281.468.14zm2.234.668-.859 2.874.393.118.41.007zm2.778.052-.056 2.999.488.009.465-.146zm2.63-.824.896 2.863.339-.106.305-.183zm2.001-1.198 1.54 2.574.511-.306.356-.478zm1.075-1.445 2.407 1.79.198-.266.135-.303zm.692-1.555 2.741 1.221.198-.446.047-.486zm.149-1.538 2.986.289.047-.477-.105-.469zm-.563-2.511 2.927-.656-.118-.526-.293-.452zm-.771-1.186 2.516-1.634-.238-.366-.332-.284zm-1.385-1.181 1.945-2.283-.214-.182-.244-.14zm-1.755-1.002 1.487-2.605-.422-.241-.476-.095zm-2.733-.547.589-2.941-.415-.083-.422.035zm-2.707.225-.248-2.99-.538.045-.489.229zm-2.072.973-1.276-2.715-.302.142-.265.205zm-1.451 1.129-1.842-2.368-.218.17-.183.206zm-1.191 1.342 2.181 2.059.032-.033.03-.034zm-1.321 1.399 1.374 2.667.456-.235.351-.373zm-1.218.628.805 2.89.296-.083.274-.141zm-1.716.478-.177 2.995.5.029.482-.134zm-1.36-.081.178-2.995-.024-.001-.024-.001zm-1.729-.075-.965 2.841.406.138.429.019zm-1.677-.57-2.128 2.115.496.499.666.227zm-1.334-1.342-2.581 1.529.19.322.263.264zm-.512-.863-2.988.259.059.681.348.588zm-.181-2.085-2.767-1.159-.286.682.064.737zm.926-2.212-2.423-1.769-.208.285-.136.326zm1.548-2.119-2.046-2.195-.209.195-.168.231zm2.163-2.015-1.855-2.358-.099.077-.092.086zm2.299-1.809-1.192-2.753-.357.155-.306.24zm2.927-1.267-.704-2.916-.251.061-.237.102zm3.244-.783-.501-2.958-.102.017-.101.025zm3.335-.564-.063-3-.22.005-.218.037zm3.866-.081.041-3h-.052l-.052.001zm4.688.063.189-2.994-.074-.004-.074-.001zm4.572.288-.188 2.994.038.003.038.001zm3.704.139.25-2.99-.069-.006-.069-.002zm4.203.351-.25 2.989.73.061.676-.281zm3.05-1.273 1.156 2.769.009-.004.008-.004zm11.955-5.079-.06-3-.58.012-.534.227zm2.337-.046.831-2.883-.436-.126-.454.009zm2.118.61 2.496-1.664-.609-.914-1.056-.304zm1.8 2.701 2.528-1.616-.016-.024-.016-.024zm1.8 2.816 2.546-1.587-.009-.014-.009-.015zm1.419 2.275-2.546 1.587.006.011.007.01zm2.059 3.242 2.537-1.6-.005-.008zm2.325 3.686 2.578-1.535-.02-.033-.021-.033zm1.806 3.035 2.836-.979-.1-.291-.158-.265zm.506 1.463 1.391 2.657 2.287-1.197-.843-2.44zm-6.787 3.553 1.311 2.698.04-.019.04-.021zm-3.652 1.774-1.311-2.699-.157.076-.148.095zm-2.668 1.704 1.532 2.579.042-.025.041-.026zm-2.675 1.59-1.533-2.579-.481.286-.345.44zm-1.049 1.336-2.36-1.853-.275.351-.162.416zm-.945 2.436 2.685 1.336.062-.123.049-.128zm-1.049 2.107 2.572 1.543.061-.101.052-.105zm-2.131 3.554 2.464 1.712.057-.083.052-.087zm-1.781 2.562 2.416 1.779.024-.033.024-.034zm-1.068 1.452-2.416-1.779-.577.784-.007.973zm-.026 3.616 2.962.476.036-.226.002-.228zm-.531 3.306 2.846.948.077-.231.039-.241zm-1.14 3.421 2.697 1.313.087-.178.062-.187zm-1.405 2.885 2.538 1.599.087-.138.072-.148zm-1.891 3 2.293 1.934.134-.159.111-.175zm-2.72 3.225 2.16 2.082.069-.072.064-.076zm-5.666 5.88 1.974 2.259.097-.085.089-.092zm-4.456 3.893 1.206 2.747.422-.185.346-.303zm-3.217-1.59-1.82-1.18-3.265 5.033 1.819 1.181zm-.703.136-.855-1.958-5.499 2.401.855 1.958zm-.606-.841-.064-2.315-5.998.167.065 2.315zm-.189-1.371.505-1.688-5.748-1.72-.505 1.687zm.185-.974.887-1.44-5.108-3.147-.887 1.439zm.494-.932 1.742-1.808-4.321-4.163-1.742 1.808zm1.676-1.742 2.344-2.286-4.189-4.296-2.345 2.286zm2.294-2.239 1.502-1.399-4.089-4.391-1.502 1.4zm1.774-1.688 1.749-2.125-4.634-3.813-1.748 2.125zm-1.658-6.827-1.787.697 2.18 5.59 1.787-.696zm-1.975.778-2.435 1.146 2.555 5.429 2.435-1.146zm-2.439 1.148-1.949.921 2.564 5.425 1.949-.921zm-1.821.864-1.949.812 2.307 5.539 1.949-.812zm-1.816.76-2.564.928 2.04 5.642 2.565-.927zm-2.172.815-1.722.369 1.255 5.867 1.723-.369zm-1.577.342-2.331.38.965 5.921 2.331-.38zm-1.91.341-1.975.04.122 5.999 1.976-.04zm-1.428.079-2.351-.385-.971 5.92 2.35.386zm-1.385-.051-1.626-.898-2.902 5.251 1.625.899zm-.67-.063-1.088-1.462-4.814 3.58 1.088 1.463zm-.516-.025-.246-2.079-5.958.706.246 2.078zm-.235-1.484.143-1.756-5.981-.485-.142 1.756zm-.383-.288.887-1.279-4.929-3.42-.887 1.278zm-.109-.373 1.826-1.025-2.937-5.232-1.826 1.025zm1.254-.778 2.079-.651-1.793-5.726-2.078.651zm1.792-.576 2.636-.548-1.22-5.874-2.635.547zm2.764-.577 1.657-.42-1.474-5.816-1.658.42zm2.081-.562 2.072-.87-2.322-5.532-2.072.869zm2.184-.919 1.217-.57-2.545-5.434-1.217.57zm1.719-.868.848-.622-3.548-4.838-.848.622zm-.991-6.04-1.852.04.13 5.999 1.852-.041zm-1.852.04-3.205.069.129 5.999 3.206-.069zm-3.203.069-3.328.069.124 5.999 3.329-.069zm-3.157.07-2.843-.103-.218 5.996 2.843.103zm-2.396-.053-2.351-.444-1.112 5.896 2.351.444zm-2.206-.413-2.111-.507-1.401 5.835 2.111.507zm-1.915-.452-2.609-.818-1.795 5.726 2.61.817zm-1.914-.498-1.949-1.22-3.185 5.084 1.949 1.221zm-1.184-.533-1.146-1.457-4.716 3.71 1.146 1.457zm-.524.054-.239-2.078-5.961.686.24 2.079zm-.23-1.488.136-1.647-5.979-.494-.136 1.647zm-.354-.235.887-1.336-4.999-3.319-.887 1.336zm.142-.562 1.334-.961-3.509-4.867-1.334.961zm.497-.539 1.47-.472-1.835-5.712-1.47.472zm1.013-.364 1.224-.19-.921-5.929-1.224.19zm.148-.218 2.61.547 1.231-5.872-2.61-.547zm2.414.499 2.357.662 1.623-5.776-2.357-.662zm2.609.722 2.61.495 1.119-5.895-2.61-.495zm2.872.533 2.72.27.594-5.97-2.72-.271zm3.082.284 1.599-.034-.129-5.999-1.6.035zm2.122-.091 1.846-.369-1.175-5.884-1.846.369zm2.107-.434 2.811-.829-1.698-5.755-2.811.83zm2.195-6.697-2.144-.167-.466 5.982 2.144.167zm-2.101-.163-2.927-.271-.552 5.974 2.927.271zm-2.592-.221-3.102-.645-1.221 5.874 3.101.645zm-2.554-.475-3.121-1.307-2.318 5.534 3.121 1.307zm-2.737-1.113-3.005-1.802-3.086 5.145 3.005 1.802zm-2.487-1.41-2.661-2.516-4.123 4.36 2.662 2.516zm-2.361-2.187-1.399-1.785-4.723 3.701 1.399 1.785zm-1.06-1.243-.525-1.082-5.4 2.616.525 1.082zm-.229.058-.117-2.084-5.991.335.117 2.084zm-.208-1.164.498-1.924-5.808-1.505-.498 1.923zm-.253-.587 1.146-1.18-4.305-4.18-1.146 1.181zm.793-.869.907-.68-3.599-4.801-.907.68zm-.005-.215 1.71-.53-1.776-5.731-1.71.53zm.88-.396 1.477-.029-.117-5.999-1.477.029zm.757-.102 1.988.449 1.323-5.852-1.988-.449zm.897-.042 1.631 1.175 3.506-4.87-1.632-1.175zm1.26.858 2.034 2.039 4.248-4.237-2.034-2.039zm2.431 2.374 2.266 1.595 3.454-4.907-2.267-1.595zm3.134 2.016 2.234.668 1.719-5.748-2.234-.669zm3.037.793 2.778.052.112-5.999-2.778-.052zm3.731-.085 2.629-.823-1.793-5.726-2.629.824zm3.273-1.112 2.001-1.198-3.081-5.148-2.001 1.198zm2.868-1.982 1.075-1.445-4.815-3.581-1.075 1.446zm1.408-2.014.693-1.555-5.481-2.442-.693 1.555zm.938-2.487.149-1.538-5.972-.578-.149 1.538zm.091-2.484-.564-2.51-5.854 1.313.563 2.511zm-.975-3.488-.771-1.186-5.031 3.268.77 1.187zm-1.341-1.836-1.386-1.18-3.891 4.567 1.386 1.181zm-1.844-1.502-1.755-1.002-2.975 5.211 1.755 1.002zm-2.653-1.338-2.733-.547-1.178 5.883 2.733.547zm-3.57-.595-2.707.224.496 5.98 2.707-.225zm-3.734.498-2.073.974 2.551 5.431 2.072-.974zm-2.64 1.321-1.45 1.129 3.684 4.736 1.451-1.129zm-1.851 1.505-1.192 1.342 4.487 3.984 1.191-1.342zm-1.13 1.274-1.321 1.4 4.363 4.118 1.321-1.399zm-.514.793-1.218.627 2.75 5.333 1.217-.627zm-.648.404-1.716.478 1.61 5.78 1.716-.478zm-.733.373-1.36-.081-.355 5.99 1.36.081zm-1.408-.083-1.729-.075-.26 5.995 1.729.074zm-.893.082-1.678-.57-1.931 5.681 1.678.57zm-.516.155-1.334-1.342-4.255 4.23 1.334 1.342zm-.88-.755-.511-.864-5.163 3.057.512.864zm-.104.405-.181-2.085-5.978.52.182 2.084zm-.403-.666.926-2.212-5.534-2.317-.926 2.211zm.582-1.601 1.547-2.12-4.845-3.538-1.548 2.119zm1.17-1.694 2.163-2.016-4.091-4.389-2.163 2.015zm1.972-1.853 2.299-1.808-3.709-4.716-2.299 1.809zm1.636-1.413 2.927-1.267-2.383-5.506-2.927 1.267zm2.44-1.103 3.244-.784-1.408-5.832-3.244.783zm3.04-.742 3.335-.564-1.001-5.916-3.335.564zm2.897-.523 3.867-.081-.126-5.998-3.866.08zm3.763-.08 4.689.063.081-5.999-4.688-.064zm4.541.057 4.572.288.377-5.988-4.572-.288zm4.648.292 3.705.139.223-5.996-3.704-.139zm3.567.13 4.202.351.5-5.979-4.203-.351zm5.608.131 3.05-1.273-2.311-5.537-3.05 1.272zm3.067-1.281 11.955-5.079-2.347-5.522-11.954 5.079zm10.841-4.841 2.337-.046-.118-5.999-2.338.046zm1.447-.163 2.118.611 1.662-5.765-2.118-.611zm.453-.608 1.8 2.701 4.992-3.328-1.8-2.701zm1.769 2.653 1.8 2.816 5.055-3.232-1.8-2.816zm1.782 2.787 1.418 2.275 5.091-3.174-1.418-2.275zm1.431 2.296 2.06 3.243 5.064-3.217-2.059-3.242zm2.055 3.235 2.324 3.685 5.075-3.201-2.325-3.685zm2.284 3.62 1.807 3.034 5.155-3.069-1.806-3.035zm1.549 2.479.505 1.463 5.671-1.959-.505-1.462zm1.949-2.174-6.787 3.553 2.783 5.316 6.787-3.554zm-6.706 3.512-3.652 1.774 2.621 5.397 3.653-1.774zm-3.957 1.945-2.668 1.704 3.231 5.056 2.668-1.704zm-2.585 1.653-2.675 1.59 3.066 5.158 2.674-1.59zm-3.501 2.316-1.05 1.336 4.72 3.705 1.049-1.336zm-1.487 2.103-.945 2.436 5.593 2.171.946-2.436zm-.834 2.185-1.049 2.108 5.371 2.673 1.049-2.108zm-.936 1.902-2.131 3.553 5.146 3.085 2.13-3.553zm-2.022 3.384-1.78 2.562 4.927 3.424 1.781-2.562zm-1.733 2.496-1.068 1.451 4.832 3.557 1.068-1.451zm-1.652 3.208-.026 3.617 6 .043.026-3.617zm.012 3.162-.531 3.306 5.924.952.531-3.306zm-.415 2.834-1.14 3.42 5.692 1.897 1.14-3.421zm-.991 3.055-1.405 2.885 5.394 2.627 1.405-2.885zm-1.246 2.599-1.891 3.001 5.076 3.199 1.891-3.001zm-1.646 2.666-2.72 3.225 4.586 3.868 2.72-3.225zm-2.587 3.077-5.666 5.88 4.32 4.164 5.666-5.88zm-5.48 5.703-4.456 3.893 3.948 4.518 4.456-3.893zm-3.687 3.405-2.467 1.083 2.411 5.494 2.467-1.083z" fill="#563a5f" mask="url(#c)"/></svg>