<svg fill="none" height="100" viewBox="0 0 138 100" width="138" xmlns="http://www.w3.org/2000/svg" xmlns:xlink="http://www.w3.org/1999/xlink"><clipPath id="a"><path d="m0 0h137.088v99.4312h-137.088z"/></clipPath><g clip-path="url(#a)"><path d="m66.1463 99.4312c10.9736 0 20.6509-5.2879 26.3626-13.3283 2.2612 1.2799 4.8197 1.9499 7.4216 1.9435 7.9975 0 14.4795-6.1594 14.4795-13.7624 0-.365-.02-.7268-.05-1.0852 3.521-.4948 6.894-1.7341 9.892-3.6344 2.998-1.9004 5.551-4.4176 7.488-7.3821 3.471-4.4791 5.355-9.9728 5.361-15.627 0-14.6535-12.498-26.5316-27.917-26.5316-2.67-.0006-5.327.3634-7.897 1.0819-4.0784-12.22664-16.1137-21.1056-30.3319-21.1056-11.9063 0-19.7083 3.9462-26.3626 13.3283-2.2613-1.2797-4.8197-1.9496-7.4216-1.9435-7.9971 0-14.4794 6.1627-14.4794 13.7624 0 .365.0198.7267.0463 1.0852-3.5201.4958-6.8924 1.7359-9.8899 3.6368-2.99739 1.9009-5.55031 4.4184-7.48677 7.383-2.27645 2.9492-3.88829 6.3508-4.726152 9.974-.185209.8155-.330731 1.6442-.439873 2.4894-.373467 3.0062-.2100004 6.0543.482869 9.0039.21641.9057.481376 1.7993.793756 2.6769 3.73396 10.4738 14.16197 18.0144 26.45857 18.0144 2.6712-.0003 5.3298-.3654 7.9011-1.0852 4.0482 12.2365 16.0934 21.1056 30.3149 21.1056z" fill="#ede7f0"/><path d="m58.6685 34.1051v31.2243l27.2026-15.6138" fill="#7c0c84"/></g></svg>