<svg fill="none" height="36" viewBox="0 0 45 36" width="45" xmlns="http://www.w3.org/2000/svg"><path d="m22.1678 19.6017.3322.2953.3322-.2953 17.5289-15.58234.9828-.87369h-1.315-35.05638-1.31496l.98275.87368zm6.1973-1.7316-.3309-.3921-.3834.3408-5.1542 4.5816-5.1515-4.5815-.3835-.341-.3309.3922-12.33424 14.6169-.69402.8224h1.07615 35.63861 1.0762l-.6941-.8224zm13.4402 13.0523.8822 1.0459v-1.3683-25.03371-1.11332l-.8322.7396-12.0684 10.72603-.3642.3237.3142.3724zm-26.5422-14.3062.3142-.3725-.3642-.3237-12.06847-10.72454-.83213-.73947v1.11322 25.03079 1.3682l.88218-1.0458zm-14.7631 18.6143v-34.00003h44v34.00003z" fill="#eceded" stroke="#eceded"/></svg>