<svg fill="none" height="512" viewBox="0 0 720 512" width="720" xmlns="http://www.w3.org/2000/svg"><path d="m0 0h720v512h-720z" fill="#fff"/><path d="m2.5 2.5h715v507h-715z" stroke="#563a5f" stroke-opacity=".1" stroke-width="5"/><path d="m0 0h720v512h-720z" fill="#eceded" fill-opacity=".1"/><path d="m2.5 2.5h715v507h-715z" stroke="#563a5f" stroke-opacity=".1" stroke-width="5"/><g fill="#000"><path d="m288.4 60.28c1.12-.2133 2.347-.3733 3.68-.48 1.36-.1333 2.707-.2 4.04-.2 1.387 0 2.773.12 4.16.36 1.413.2133 2.68.6667 3.8 1.36 1.12.6667 2.027 1.6133 2.72 2.84.72 1.2 1.08 2.7733 1.08 4.72 0 1.76-.307 3.2533-.92 4.48-.613 1.2-1.427 2.1867-2.44 2.96s-2.173 1.3333-3.48 1.68c-1.28.3467-2.613.52-4 .52-.133 0-.347 0-.64 0s-.6 0-.92 0c-.32-.0267-.64-.0533-.96-.08-.293-.0267-.507-.0533-.64-.08v9.64h-5.48zm8.16 4.04c-.533 0-1.04.0267-1.52.08-.48.0267-.867.0667-1.16.12v9.08c.107.0267.267.0533.48.08s.44.0533.68.08h.68.52c.72 0 1.427-.0667 2.12-.2.72-.1333 1.36-.3733 1.92-.72.56-.3733 1-.88 1.32-1.52.347-.64.52-1.48.52-2.52 0-.88-.16-1.6-.48-2.16-.32-.5867-.747-1.0533-1.28-1.4-.507-.3467-1.093-.5867-1.76-.72s-1.347-.2-2.04-.2zm34.298.56h-8.16v23.12h-5.48v-23.12h-8.2v-4.88h21.84zm23.45 15.6c0-.8533-.32-1.5467-.96-2.08-.613-.5333-1.4-1.0133-2.36-1.44-.933-.4533-1.96-.9067-3.08-1.36-1.093-.48-2.12-1.0533-3.08-1.72-.933-.6933-1.72-1.5467-2.36-2.56-.613-1.0133-.92-2.3067-.92-3.88 0-1.36.227-2.5333.68-3.52.453-1.0133 1.093-1.8533 1.92-2.52.853-.6667 1.853-1.16 3-1.48s2.427-.48 3.84-.48c1.627 0 3.16.1467 4.6.44 1.44.2667 2.627.6667 3.56 1.2l-1.72 4.6c-.587-.3733-1.467-.7067-2.64-1-1.173-.32-2.44-.48-3.8-.48-1.28 0-2.267.2533-2.96.76-.667.5067-1 1.1867-1 2.04 0 .8.307 1.4667.92 2 .64.5333 1.427 1.0267 2.36 1.48.96.4533 1.987.92 3.08 1.4 1.12.48 2.147 1.0667 3.08 1.76.96.6667 1.747 1.5067 2.36 2.52.64.9867.96 2.2267.96 3.72s-.253 2.7867-.76 3.88c-.48 1.0667-1.173 1.96-2.08 2.68-.88.72-1.96 1.2533-3.24 1.6-1.253.3467-2.64.52-4.16.52-2 0-3.76-.1867-5.28-.56s-2.64-.7467-3.36-1.12l1.76-4.68c.293.16.667.3333 1.12.52.48.1867 1.013.36 1.6.52s1.2.2933 1.84.4c.667.1067 1.347.16 2.04.16 1.627 0 2.867-.2667 3.72-.8.88-.56 1.32-1.4 1.32-2.52zm22.931 1.32h-8.6l-2.12 6.2h-5.48l10.08-28.2h4.04l10.08 28.2h-5.76zm-7.2-4.4h6l-2.08-6.24-.84-4.4h-.2l-.84 4.44zm24.579-4-2.2-4.4h-.2l.64 4.4v14.6h-5.2v-28.2h4l10.6 14.92 2.12 4.28h.2l-.64-4.28v-14.72h5.2v28.2h-4zm31.409 7.08c0-.8533-.32-1.5467-.96-2.08-.613-.5333-1.4-1.0133-2.36-1.44-.933-.4533-1.96-.9067-3.08-1.36-1.093-.48-2.12-1.0533-3.08-1.72-.933-.6933-1.72-1.5467-2.36-2.56-.613-1.0133-.92-2.3067-.92-3.88 0-1.36.227-2.5333.68-3.52.453-1.0133 1.093-1.8533 1.92-2.52.853-.6667 1.853-1.16 3-1.48s2.427-.48 3.84-.48c1.627 0 3.16.1467 4.6.44 1.44.2667 2.627.6667 3.56 1.2l-1.72 4.6c-.587-.3733-1.467-.7067-2.64-1-1.173-.32-2.44-.48-3.8-.48-1.28 0-2.267.2533-2.96.76-.667.5067-1 1.1867-1 2.04 0 .8.307 1.4667.92 2 .64.5333 1.427 1.0267 2.36 1.48.96.4533 1.987.92 3.08 1.4 1.12.48 2.147 1.0667 3.08 1.76.96.6667 1.747 1.5067 2.36 2.52.64.9867.96 2.2267.96 3.72s-.253 2.7867-.76 3.88c-.48 1.0667-1.173 1.96-2.08 2.68-.88.72-1.96 1.2533-3.24 1.6-1.253.3467-2.64.52-4.16.52-2 0-3.76-.1867-5.28-.56s-2.64-.7467-3.36-1.12l1.76-4.68c.293.16.667.3333 1.12.52.48.1867 1.013.36 1.6.52s1.2.2933 1.84.4c.667.1067 1.347.16 2.04.16 1.627 0 2.867-.2667 3.72-.8.88-.56 1.32-1.4 1.32-2.52z"/><path d="m149.32 147.32h-26.88v25.68h-6.64v-56h6.64v24.4h26.88v-24.4h6.64v56h-6.64zm48.79 22.48c-1.6 1.28-3.627 2.293-6.08 3.04-2.4.747-4.96 1.12-7.68 1.12-3.04 0-5.68-.48-7.92-1.44-2.24-1.013-4.08-2.427-5.52-4.24-1.44-1.867-2.507-4.08-3.2-6.64s-1.04-5.44-1.04-8.64c0-6.827 1.52-12.027 4.56-15.6s7.387-5.36 13.04-5.36c1.813 0 3.627.213 5.44.64 1.813.373 3.44 1.12 4.88 2.24s2.613 2.72 3.52 4.8c.907 2.027 1.36 4.72 1.36 8.08 0 1.76-.16 3.707-.48 5.84h-25.68c0 2.347.24 4.427.72 6.24s1.227 3.36 2.24 4.64c1.013 1.227 2.32 2.187 3.92 2.88 1.653.64 3.653.96 6 .96 1.813 0 3.627-.32 5.44-.96s3.173-1.387 4.08-2.24zm-13.76-32.16c-3.147 0-5.68.827-7.6 2.48-1.867 1.653-2.987 4.48-3.36 8.48h19.84c0-4.053-.773-6.88-2.32-8.48-1.547-1.653-3.733-2.48-6.56-2.48zm24.545-1.68c2.027-1.227 4.373-2.133 7.04-2.72 2.72-.587 5.547-.88 8.48-.88 2.773 0 4.987.373 6.64 1.12 1.707.747 2.987 1.733 3.84 2.96.907 1.173 1.493 2.48 1.76 3.92.32 1.44.48 2.88.48 4.32 0 3.2-.08 6.32-.24 9.36s-.24 5.92-.24 8.64c0 1.973.08 3.84.24 5.6s.453 3.387.88 4.88h-4.72l-1.68-5.6h-.4c-.48.747-1.093 1.493-1.84 2.24-.693.693-1.547 1.333-2.56 1.92-1.013.533-2.187.987-3.52 1.36s-2.853.56-4.56.56-3.307-.267-4.8-.8c-1.44-.533-2.693-1.28-3.76-2.24-1.067-1.013-1.92-2.213-2.56-3.6-.587-1.387-.88-2.96-.88-4.72 0-2.347.48-4.293 1.44-5.84.96-1.6 2.293-2.853 4-3.76 1.76-.96 3.84-1.627 6.24-2 2.453-.427 5.147-.64 8.08-.64h2.16c.747 0 1.493.053 2.24.16.16-1.6.24-3.04.24-4.32 0-2.933-.587-4.987-1.76-6.16s-3.307-1.76-6.4-1.76c-.907 0-1.893.08-2.96.24-1.013.107-2.08.293-3.2.56-1.067.213-2.107.507-3.12.88-.96.32-1.813.693-2.56 1.12zm11.36 32.08c1.493 0 2.827-.187 4-.56 1.173-.427 2.187-.933 3.04-1.52.853-.64 1.547-1.333 2.08-2.08.587-.747 1.013-1.467 1.28-2.16v-6.64c-.747-.053-1.52-.08-2.32-.08-.747-.053-1.493-.08-2.24-.08-1.653 0-3.28.107-4.88.32-1.547.16-2.933.507-4.16 1.04-1.173.48-2.133 1.173-2.88 2.08-.693.853-1.04 1.947-1.04 3.28 0 1.867.667 3.413 2 4.64 1.333 1.173 3.04 1.76 5.12 1.76zm59.688-8.8c0 2.72.026 5.2.08 7.44.053 2.187.293 4.347.72 6.48h-4.32l-1.6-5.68h-.32c-1.067 1.867-2.614 3.413-4.64 4.64-2.027 1.227-4.4 1.84-7.12 1.84-5.334 0-9.307-1.68-11.92-5.04-2.56-3.36-3.84-8.613-3.84-15.76 0-6.827 1.6-12 4.8-15.52 3.253-3.573 7.706-5.36 13.36-5.36 1.973 0 3.52.107 4.64.32 1.173.213 2.426.56 3.76 1.04v-16.64h6.4zm-16.16 9.12c2.72 0 4.88-.693 6.48-2.08 1.6-1.44 2.693-3.6 3.28-6.48v-19.84c-.96-.747-2.054-1.28-3.28-1.6-1.227-.32-2.854-.48-4.88-.48-3.68 0-6.56 1.227-8.64 3.68-2.08 2.4-3.121 6.267-3.121 11.6 0 2.187.161 4.213.481 6.08.373 1.867.96 3.467 1.76 4.8s1.84 2.4 3.12 3.2c1.333.747 2.933 1.12 4.8 1.12zm29.846-35.36h6.4v40h-6.4zm-1.36-12.16c0-1.227.4-2.267 1.2-3.12.854-.907 1.92-1.36 3.2-1.36s2.374.453 3.28 1.36c.907.853 1.36 1.893 1.36 3.12s-.453 2.24-1.36 3.04c-.906.8-2 1.2-3.28 1.2s-2.346-.4-3.2-1.2c-.8-.8-1.2-1.813-1.2-3.04zm47.087 52.16v-22.8c0-4.16-.614-7.28-1.84-9.36-1.174-2.133-3.36-3.2-6.56-3.2-2.827 0-5.174.773-7.04 2.32-1.814 1.493-3.094 3.387-3.84 5.68v27.36h-6.4v-40h4.48l1.2 4.88h.32c1.28-1.707 2.986-3.093 5.12-4.16 2.186-1.12 4.773-1.68 7.76-1.68 2.186 0 4.106.267 5.76.8 1.653.48 3.013 1.36 4.08 2.64 1.12 1.28 1.946 3.013 2.48 5.2.586 2.133.88 4.853.88 8.16v24.16zm48.71 1.84c0 5.173-1.387 8.987-4.16 11.44-2.72 2.453-6.774 3.68-12.16 3.68-3.2 0-5.787-.213-7.76-.64-1.92-.373-3.574-.88-4.96-1.52l1.68-5.44c1.226.48 2.586.933 4.08 1.36 1.493.427 3.44.64 5.84.64 2.24 0 4.053-.213 5.44-.64 1.44-.373 2.586-1.04 3.44-2 .853-.907 1.44-2.107 1.76-3.6.32-1.44.48-3.173.48-5.2v-3.84h-.32c-1.067 1.547-2.427 2.747-4.08 3.6-1.654.8-3.814 1.2-6.48 1.2-5.387 0-9.36-1.68-11.92-5.04-2.507-3.36-3.76-8.587-3.76-15.68 0-6.827 1.626-12 4.88-15.52 3.253-3.573 8.053-5.36 14.4-5.36 3.04 0 5.626.24 7.76.72 2.186.48 4.133 1.04 5.84 1.68zm-16.08-6.56c2.72 0 4.853-.667 6.4-2 1.546-1.387 2.64-3.52 3.28-6.4v-20.48c-2.134-1.013-4.854-1.52-8.16-1.52-3.627 0-6.48 1.227-8.56 3.68s-3.12 6.293-3.12 11.52c0 2.24.186 4.293.56 6.16.373 1.867.96 3.467 1.76 4.8s1.84 2.373 3.12 3.12 2.853 1.12 4.72 1.12zm52.217-1.2h11.2v-38.72l.8-4.72-3.2 3.76-8.8 6.32-3.04-4.08 17.6-13.6h2.88v51.04h10.96v5.92h-28.4zm54.595-20.08h19.36v5.92h-19.36zm44.47 12.64c0-3.36.88-6.267 2.64-8.72 1.76-2.507 4.507-4.773 8.24-6.8-1.333-.8-2.587-1.627-3.76-2.48-1.12-.907-2.133-1.92-3.04-3.04-.853-1.12-1.547-2.373-2.08-3.76-.48-1.387-.72-2.987-.72-4.8 0-2.08.347-3.973 1.04-5.68.747-1.707 1.787-3.173 3.12-4.4 1.387-1.227 3.013-2.187 4.88-2.88 1.92-.693 4.08-1.04 6.48-1.04 2.24 0 4.267.32 6.08.96s3.333 1.52 4.56 2.64c1.28 1.12 2.267 2.453 2.96 4s1.04 3.253 1.04 5.12c0 3.04-.693 5.733-2.08 8.08-1.387 2.293-3.68 4.56-6.88 6.8 1.387.8 2.693 1.68 3.92 2.64 1.28.96 2.373 2.027 3.28 3.2.96 1.173 1.707 2.507 2.24 4 .533 1.44.8 3.093.8 4.96 0 2.293-.373 4.4-1.12 6.32-.747 1.867-1.84 3.493-3.28 4.88-1.44 1.333-3.2 2.4-5.28 3.2-2.08.747-4.453 1.12-7.12 1.12-2.56 0-4.827-.373-6.8-1.12s-3.653-1.76-5.04-3.04c-1.333-1.28-2.347-2.773-3.04-4.48-.693-1.76-1.04-3.653-1.04-5.68zm26.48-.8c0-1.6-.32-2.987-.96-4.16-.64-1.227-1.493-2.32-2.56-3.28-1.013-1.013-2.187-1.92-3.52-2.72s-2.72-1.573-4.16-2.32c-3.253 1.813-5.573 3.84-6.96 6.08s-2.08 4.373-2.08 6.4c0 1.28.213 2.507.64 3.68s1.067 2.187 1.92 3.04 1.893 1.547 3.12 2.08c1.28.48 2.747.72 4.4.72 1.333 0 2.613-.187 3.84-.56 1.227-.427 2.293-1.013 3.2-1.76.96-.8 1.707-1.787 2.24-2.96.587-1.227.88-2.64.88-4.24zm-18.96-28.96c0 1.493.293 2.827.88 4 .587 1.12 1.36 2.133 2.32 3.04 1.013.907 2.16 1.76 3.44 2.56 1.28.747 2.613 1.467 4 2.16 2.4-1.867 4.16-3.707 5.28-5.52 1.173-1.813 1.76-3.813 1.76-6 0-2.72-.853-4.8-2.56-6.24-1.653-1.493-3.653-2.24-6-2.24-1.44 0-2.72.24-3.84.72s-2.08 1.093-2.88 1.84-1.413 1.627-1.84 2.64c-.373.96-.56 1.973-.56 3.04zm34.074 15.12c0-9.6 1.547-16.827 4.64-21.68 3.147-4.853 7.707-7.28 13.68-7.28 6.453 0 11.12 2.4 14 7.2 2.933 4.747 4.4 12 4.4 21.76 0 9.6-1.573 16.827-4.72 21.68-3.093 4.853-7.653 7.28-13.68 7.28-6.347 0-10.987-2.533-13.92-7.6s-4.4-12.187-4.4-21.36zm6.64 0c0 3.467.213 6.64.64 9.52.48 2.827 1.2 5.28 2.16 7.36.96 2.027 2.16 3.627 3.6 4.8 1.493 1.12 3.253 1.68 5.28 1.68 4.053 0 7.013-1.867 8.88-5.6 1.92-3.787 2.88-9.707 2.88-17.76 0-3.413-.213-6.56-.64-9.44-.373-2.88-1.04-5.36-2-7.44-.907-2.08-2.107-3.68-3.6-4.8s-3.333-1.68-5.52-1.68c-4 0-6.96 1.893-8.88 5.68-1.867 3.787-2.8 9.68-2.8 17.68z"/><path d="m139.24 235.74h-20.16v19.26h-4.98v-42h4.98v18.3h20.16v-18.3h4.98v42h-4.98zm36.593 16.86c-1.2.96-2.72 1.72-4.56 2.28-1.8.56-3.72.84-5.76.84-2.28 0-4.26-.36-5.94-1.08-1.68-.76-3.06-1.82-4.14-3.18-1.08-1.4-1.88-3.06-2.4-4.98s-.78-4.08-.78-6.48c0-5.12 1.14-9.02 3.42-11.7s5.54-4.02 9.78-4.02c1.36 0 2.72.16 4.08.48 1.36.28 2.58.84 3.66 1.68s1.96 2.04 2.64 3.6c.68 1.52 1.02 3.54 1.02 6.06 0 1.32-.12 2.78-.36 4.38h-19.261c0 1.76.181 3.32.541 4.68s.92 2.52 1.68 3.48c.76.92 1.74 1.64 2.94 2.16 1.24.48 2.74.72 4.5.72 1.36 0 2.72-.24 4.08-.72s2.38-1.04 3.06-1.68zm-10.32-24.12c-2.36 0-4.26.62-5.7 1.86-1.4 1.24-2.24 3.36-2.52 6.36h14.88c0-3.04-.58-5.16-1.74-6.36-1.16-1.24-2.8-1.86-4.92-1.86zm18.408-1.26c1.52-.92 3.28-1.6 5.28-2.04 2.04-.44 4.16-.66 6.36-.66 2.08 0 3.74.28 4.98.84 1.28.56 2.24 1.3 2.88 2.22.68.88 1.12 1.86 1.32 2.94.24 1.08.36 2.16.36 3.24 0 2.4-.06 4.74-.18 7.02s-.18 4.44-.18 6.48c0 1.48.06 2.88.18 4.2s.34 2.54.66 3.66h-3.54l-1.26-4.2h-.3c-.36.56-.82 1.12-1.38 1.68-.52.52-1.16 1-1.92 1.44-.76.4-1.64.74-2.64 1.02s-2.14.42-3.42.42-2.48-.2-3.6-.6c-1.08-.4-2.02-.96-2.82-1.68-.8-.76-1.44-1.66-1.92-2.7-.44-1.04-.66-2.22-.66-3.54 0-1.76.36-3.22 1.08-4.38.72-1.2 1.72-2.14 3-2.82 1.32-.72 2.88-1.22 4.68-1.5 1.84-.32 3.86-.48 6.06-.48h1.62c.56 0 1.12.04 1.68.12.12-1.2.18-2.28.18-3.24 0-2.2-.44-3.74-1.32-4.62s-2.48-1.32-4.8-1.32c-.68 0-1.42.06-2.22.18-.76.08-1.56.22-2.4.42-.8.16-1.58.38-2.34.66-.72.24-1.36.52-1.92.84zm8.52 24.06c1.12 0 2.12-.14 3-.42.88-.32 1.64-.7 2.28-1.14.64-.48 1.16-1 1.56-1.56.44-.56.76-1.1.96-1.62v-4.98c-.56-.04-1.14-.06-1.74-.06-.56-.04-1.12-.06-1.68-.06-1.24 0-2.46.08-3.66.24-1.16.12-2.2.38-3.12.78-.88.36-1.6.88-2.16 1.56-.52.64-.78 1.46-.78 2.46 0 1.4.5 2.56 1.5 3.48 1 .88 2.28 1.32 3.84 1.32zm44.766-6.6c0 2.04.02 3.9.06 5.58.04 1.64.22 3.26.54 4.86h-3.24l-1.2-4.26h-.24c-.8 1.4-1.96 2.56-3.48 3.48s-3.3 1.38-5.34 1.38c-4 0-6.98-1.26-8.94-3.78-1.92-2.52-2.88-6.46-2.88-11.82 0-5.12 1.2-9 3.6-11.64 2.44-2.68 5.78-4.02 10.02-4.02 1.48 0 2.64.08 3.48.24.88.16 1.82.42 2.82.78v-12.48h4.8zm-12.12 6.84c2.04 0 3.66-.52 4.86-1.56 1.2-1.08 2.02-2.7 2.46-4.86v-14.88c-.72-.56-1.54-.96-2.46-1.2s-2.14-.36-3.66-.36c-2.76 0-4.92.92-6.48 2.76-1.56 1.8-2.34 4.7-2.34 8.7 0 1.64.12 3.16.36 4.56.28 1.4.72 2.6 1.32 3.6s1.38 1.8 2.34 2.4c1 .56 2.2.84 3.6.84zm22.385-26.52h4.8v30h-4.8zm-1.02-9.12c0-.92.3-1.7.9-2.34.64-.68 1.44-1.02 2.4-1.02s1.78.34 2.46 1.02c.68.64 1.02 1.42 1.02 2.34s-.34 1.68-1.02 2.28-1.5.9-2.46.9-1.76-.3-2.4-.9c-.6-.6-.9-1.36-.9-2.28zm35.315 39.12v-17.1c0-3.12-.46-5.46-1.38-7.02-.88-1.6-2.52-2.4-4.92-2.4-2.12 0-3.88.58-5.28 1.74-1.36 1.12-2.32 2.54-2.88 4.26v20.52h-4.8v-30h3.36l.9 3.66h.24c.96-1.28 2.24-2.32 3.84-3.12 1.64-.84 3.58-1.26 5.82-1.26 1.64 0 3.08.2 4.32.6 1.24.36 2.26 1.02 3.06 1.98.84.96 1.46 2.26 1.86 3.9.44 1.6.66 3.64.66 6.12v18.12zm36.532 1.38c0 3.88-1.04 6.74-3.12 8.58-2.04 1.84-5.08 2.76-9.12 2.76-2.4 0-4.34-.16-5.82-.48-1.44-.28-2.68-.66-3.72-1.14l1.26-4.08c.92.36 1.94.7 3.06 1.02s2.58.48 4.38.48c1.68 0 3.04-.16 4.08-.48 1.08-.28 1.94-.78 2.58-1.5.64-.68 1.08-1.58 1.32-2.7.24-1.08.36-2.38.36-3.9v-2.88h-.24c-.8 1.16-1.82 2.06-3.06 2.7-1.24.6-2.86.9-4.86.9-4.04 0-7.02-1.26-8.94-3.78-1.88-2.52-2.82-6.44-2.82-11.76 0-5.12 1.22-9 3.66-11.64 2.44-2.68 6.04-4.02 10.8-4.02 2.28 0 4.22.18 5.82.54 1.64.36 3.1.78 4.38 1.26zm-12.06-4.92c2.04 0 3.64-.5 4.8-1.5 1.16-1.04 1.98-2.64 2.46-4.8v-15.36c-1.6-.76-3.64-1.14-6.12-1.14-2.72 0-4.86.92-6.42 2.76s-2.34 4.72-2.34 8.64c0 1.68.14 3.22.42 4.62s.72 2.6 1.32 3.6 1.38 1.78 2.34 2.34 2.14.84 3.54.84zm59.443-28.92c0 2.12-.4 4.3-1.2 6.54-.76 2.2-1.78 4.42-3.06 6.66-1.24 2.24-2.64 4.44-4.2 6.6-1.56 2.12-3.12 4.14-4.68 6.06l-2.94 2.58v.24l3.84-.66h13.08v4.44h-23.88v-1.74c.88-.92 1.94-2.06 3.18-3.42s2.52-2.86 3.84-4.5c1.36-1.68 2.68-3.44 3.96-5.28 1.32-1.88 2.5-3.78 3.54-5.7 1.08-1.92 1.94-3.82 2.58-5.7s.96-3.66.96-5.34c0-1.96-.56-3.58-1.68-4.86-1.12-1.32-2.82-1.98-5.1-1.98-1.52 0-3 .32-4.44.96-1.44.6-2.68 1.3-3.72 2.1l-1.98-3.42c1.4-1.2 3.06-2.14 4.98-2.82s3.98-1.02 6.18-1.02c1.72 0 3.24.26 4.56.78 1.32.48 2.44 1.18 3.36 2.1s1.62 2.02 2.1 3.3c.48 1.24.72 2.6.72 4.08zm20.667 12.96h14.52v4.44h-14.52zm58.792 6.84c0 1.84-.28 3.58-.84 5.22-.56 1.6-1.38 3.02-2.46 4.26-1.08 1.2-2.42 2.16-4.02 2.88-1.6.68-3.42 1.02-5.46 1.02-2 0-3.8-.32-5.4-.96s-2.98-1.58-4.14-2.82c-1.16-1.28-2.06-2.84-2.7-4.68-.6-1.84-.9-3.96-.9-6.36 0-3.96.5-7.6 1.5-10.92 1.04-3.36 2.46-6.28 4.26-8.76s3.92-4.48 6.36-6c2.48-1.56 5.16-2.54 8.04-2.94l1.02 3.84c-2.24.4-4.28 1.16-6.12 2.28s-3.46 2.5-4.86 4.14c-1.36 1.64-2.48 3.48-3.36 5.52s-1.48 4.14-1.8 6.3c.64-1.08 1.72-2.06 3.24-2.94 1.52-.92 3.38-1.38 5.58-1.38 3.76 0 6.7 1.08 8.82 3.24 2.16 2.16 3.24 5.18 3.24 9.06zm-4.98.48c0-2.84-.66-4.98-1.98-6.42s-3.36-2.16-6.12-2.16c-1.96 0-3.66.48-5.1 1.44-1.4.96-2.38 2.04-2.94 3.24-.08.56-.12 1.02-.12 1.38v1.2c0 1.24.16 2.46.48 3.66.36 1.2.9 2.28 1.62 3.24.72.92 1.6 1.68 2.64 2.28 1.08.56 2.34.84 3.78.84 1.16 0 2.2-.22 3.12-.66.96-.44 1.78-1.04 2.46-1.8s1.2-1.68 1.56-2.76c.4-1.08.6-2.24.6-3.48zm10.735-8.82c0-7.2 1.16-12.62 3.48-16.26 2.36-3.64 5.78-5.46 10.26-5.46 4.84 0 8.34 1.8 10.5 5.4 2.2 3.56 3.3 9 3.3 16.32 0 7.2-1.18 12.62-3.54 16.26-2.32 3.64-5.74 5.46-10.26 5.46-4.76 0-8.24-1.9-10.44-5.7s-3.3-9.14-3.3-16.02zm4.98 0c0 2.6.16 4.98.48 7.14.36 2.12.9 3.96 1.62 5.52.72 1.52 1.62 2.72 2.7 3.6 1.12.84 2.44 1.26 3.96 1.26 3.04 0 5.26-1.4 6.66-4.2 1.44-2.84 2.16-7.28 2.16-13.32 0-2.56-.16-4.92-.48-7.08-.28-2.16-.78-4.02-1.5-5.58-.68-1.56-1.58-2.76-2.7-3.6s-2.5-1.26-4.14-1.26c-3 0-5.22 1.42-6.66 4.26-1.4 2.84-2.1 7.26-2.1 13.26z"/><path d="m129.16 302.16h-13.44v12.84h-3.32v-28h3.32v12.2h13.44v-12.2h3.32v28h-3.32zm24.395 11.24c-.8.64-1.813 1.147-3.04 1.52-1.2.373-2.48.56-3.84.56-1.52 0-2.84-.24-3.96-.72-1.12-.507-2.04-1.213-2.76-2.12-.72-.933-1.253-2.04-1.6-3.32s-.52-2.72-.52-4.32c0-3.413.76-6.013 2.28-7.8s3.693-2.68 6.52-2.68c.907 0 1.813.107 2.72.32.907.187 1.72.56 2.44 1.12s1.307 1.36 1.76 2.4c.453 1.013.68 2.36.68 4.04 0 .88-.08 1.853-.24 2.92h-12.84c0 1.173.12 2.213.36 3.12s.613 1.68 1.12 2.32c.507.613 1.16 1.093 1.96 1.44.827.32 1.827.48 3 .48.907 0 1.813-.16 2.72-.48s1.587-.693 2.04-1.12zm-6.88-16.08c-1.573 0-2.84.413-3.8 1.24-.933.827-1.493 2.24-1.68 4.24h9.92c0-2.027-.387-3.44-1.16-4.24-.773-.827-1.867-1.24-3.28-1.24zm12.273-.84c1.013-.613 2.186-1.067 3.52-1.36 1.36-.293 2.773-.44 4.24-.44 1.386 0 2.493.187 3.32.56.853.373 1.493.867 1.92 1.48.453.587.746 1.24.88 1.96.16.72.24 1.44.24 2.16 0 1.6-.04 3.16-.12 4.68s-.12 2.96-.12 4.32c0 .987.04 1.92.12 2.8s.226 1.693.44 2.44h-2.36l-.84-2.8h-.2c-.24.373-.547.747-.92 1.12-.347.347-.774.667-1.28.96-.507.267-1.094.493-1.76.68-.667.187-1.427.28-2.28.28-.854 0-1.654-.133-2.4-.4-.72-.267-1.347-.64-1.88-1.12-.534-.507-.96-1.107-1.28-1.8-.294-.693-.44-1.48-.44-2.36 0-1.173.24-2.147.72-2.92.48-.8 1.146-1.427 2-1.88.88-.48 1.92-.813 3.12-1 1.226-.213 2.573-.32 4.04-.32h1.08c.373 0 .746.027 1.12.08.08-.8.12-1.52.12-2.16 0-1.467-.294-2.493-.88-3.08-.587-.587-1.654-.88-3.2-.88-.454 0-.947.04-1.48.12-.507.053-1.04.147-1.6.28-.534.107-1.054.253-1.56.44-.48.16-.907.347-1.28.56zm5.68 16.04c.746 0 1.413-.093 2-.28.586-.213 1.093-.467 1.52-.76.426-.32.773-.667 1.04-1.04.293-.373.506-.733.64-1.08v-3.32c-.374-.027-.76-.04-1.16-.04-.374-.027-.747-.04-1.12-.04-.827 0-1.64.053-2.44.16-.774.08-1.467.253-2.08.52-.587.24-1.067.587-1.44 1.04-.347.427-.52.973-.52 1.64 0 .933.333 1.707.999 2.32.667.587 1.521.88 2.561.88zm29.843-4.4c0 1.36.014 2.6.04 3.72.027 1.093.147 2.173.36 3.24h-2.16l-.8-2.84h-.16c-.533.933-1.306 1.707-2.32 2.32-1.013.613-2.2.92-3.56.92-2.666 0-4.653-.84-5.96-2.52-1.28-1.68-1.92-4.307-1.92-7.88 0-3.413.8-6 2.4-7.76 1.627-1.787 3.854-2.68 6.68-2.68.987 0 1.76.053 2.32.16.587.107 1.214.28 1.88.52v-8.32h3.2zm-8.08 4.56c1.36 0 2.44-.347 3.24-1.04.8-.72 1.347-1.8 1.64-3.24v-9.92c-.48-.373-1.026-.64-1.64-.8-.613-.16-1.426-.24-2.44-.24-1.84 0-3.28.613-4.32 1.84-1.04 1.2-1.56 3.133-1.56 5.8 0 1.093.08 2.107.24 3.04.187.933.48 1.733.88 2.4s.92 1.2 1.56 1.6c.667.373 1.467.56 2.4.56zm14.924-17.68h3.2v20h-3.2zm-.68-6.08c0-.613.2-1.133.6-1.56.426-.453.96-.68 1.6-.68s1.186.227 1.64.68c.453.427.68.947.68 1.56s-.227 1.12-.68 1.52c-.454.4-1 .6-1.64.6s-1.174-.2-1.6-.6c-.4-.4-.6-.907-.6-1.52zm23.543 26.08v-11.4c0-2.08-.307-3.64-.92-4.68-.587-1.067-1.68-1.6-3.28-1.6-1.414 0-2.587.387-3.52 1.16-.907.747-1.547 1.693-1.92 2.84v13.68h-3.2v-20h2.24l.6 2.44h.16c.64-.853 1.493-1.547 2.56-2.08 1.093-.56 2.386-.84 3.88-.84 1.093 0 2.053.133 2.88.4.826.24 1.506.68 2.04 1.32.56.64.973 1.507 1.24 2.6.293 1.067.44 2.427.44 4.08v12.08zm24.355.92c0 2.587-.694 4.493-2.08 5.72-1.36 1.227-3.387 1.84-6.08 1.84-1.6 0-2.894-.107-3.88-.32-.96-.187-1.787-.44-2.48-.76l.84-2.72c.613.24 1.293.467 2.04.68.746.213 1.72.32 2.92.32 1.12 0 2.026-.107 2.72-.32.72-.187 1.293-.52 1.72-1 .426-.453.72-1.053.88-1.8.16-.72.24-1.587.24-2.6v-1.92h-.16c-.534.773-1.214 1.373-2.04 1.8-.827.4-1.907.6-3.24.6-2.694 0-4.68-.84-5.96-2.52-1.254-1.68-1.88-4.293-1.88-7.84 0-3.413.813-6 2.44-7.76 1.626-1.787 4.026-2.68 7.2-2.68 1.52 0 2.813.12 3.88.36 1.093.24 2.066.52 2.92.84zm-8.04-3.28c1.36 0 2.426-.333 3.2-1 .773-.693 1.32-1.76 1.64-3.2v-10.24c-1.067-.507-2.427-.76-4.08-.76-1.814 0-3.24.613-4.28 1.84s-1.56 3.147-1.56 5.76c0 1.12.093 2.147.28 3.08.186.933.48 1.733.88 2.4s.92 1.187 1.56 1.56 1.426.56 2.36.56zm31.148.04c.907 0 1.747-.133 2.52-.4.774-.267 1.44-.653 2-1.16.56-.533 1-1.16 1.32-1.88s.48-1.507.48-2.36c0-1.867-.56-3.253-1.68-4.16-1.093-.907-2.613-1.36-4.56-1.36h-2.96v-1.16l5.76-8.88 1.84-1.76-2.6.4h-7.92v-2.96h14.28v1.16l-6.36 9.56-1.4 1.16v.08l1.36-.28c1.067.027 2.054.227 2.96.6.907.347 1.694.867 2.36 1.56.667.667 1.187 1.48 1.56 2.44.374.933.56 2 .56 3.2 0 1.44-.253 2.72-.76 3.84-.506 1.12-1.2 2.067-2.08 2.84-.853.747-1.866 1.32-3.04 1.72-1.173.4-2.413.6-3.72.6-1.2 0-2.28-.093-3.24-.28s-1.8-.427-2.52-.72l.84-2.84c.614.293 1.334.547 2.16.76.854.187 1.8.28 2.84.28zm22.258-10.68h9.68v2.96h-9.68zm40.475 4.4h-4.72v8.6h-3.12v-8.6h-12.32v-1.32l13.28-18.52h2.16v17.04h4.72zm-7.84-11.52.4-3.28h-.12l-1.4 2.72-5.64 7.64-1.92 1.96 2.8-.32h5.88zm10.397 6.12c0-4.8.773-8.413 2.32-10.84 1.573-2.427 3.853-3.64 6.84-3.64 3.227 0 5.56 1.2 7 3.6 1.467 2.373 2.2 6 2.2 10.88 0 4.8-.787 8.413-2.36 10.84-1.547 2.427-3.827 3.64-6.84 3.64-3.173 0-5.493-1.267-6.96-3.8s-2.2-6.093-2.2-10.68zm3.32 0c0 1.733.107 3.32.32 4.76.24 1.413.6 2.64 1.08 3.68.48 1.013 1.08 1.813 1.8 2.4.747.56 1.627.84 2.64.84 2.027 0 3.507-.933 4.44-2.8.96-1.893 1.44-4.853 1.44-8.88 0-1.707-.107-3.28-.32-4.72-.187-1.44-.52-2.68-1-3.72-.453-1.04-1.053-1.84-1.8-2.4s-1.667-.84-2.76-.84c-2 0-3.48.947-4.44 2.84-.933 1.893-1.4 4.84-1.4 8.84z"/><path d="m126.64 355.765h-11.76v11.235h-2.905v-24.5h2.905v10.675h11.76v-10.675h2.905v24.5h-2.905zm21.346 9.835c-.7.56-1.587 1.003-2.66 1.33-1.05.327-2.17.49-3.36.49-1.33 0-2.485-.21-3.465-.63-.98-.443-1.785-1.062-2.415-1.855-.63-.817-1.097-1.785-1.4-2.905-.304-1.12-.455-2.38-.455-3.78 0-2.987.665-5.262 1.995-6.825s3.231-2.345 5.705-2.345c.793 0 1.586.093 2.38.28.793.163 1.505.49 2.135.98s1.143 1.19 1.54 2.1c.396.887.595 2.065.595 3.535 0 .77-.07 1.622-.21 2.555h-11.235c0 1.027.105 1.937.315 2.73s.536 1.47.98 2.03c.443.537 1.015.957 1.715 1.26.723.28 1.598.42 2.625.42.793 0 1.586-.14 2.38-.42.793-.28 1.388-.607 1.785-.98zm-6.02-14.07c-1.377 0-2.485.362-3.325 1.085-.817.723-1.307 1.96-1.47 3.71h8.68c0-1.773-.339-3.01-1.015-3.71-.677-.723-1.634-1.085-2.87-1.085zm10.738-.735c.887-.537 1.913-.933 3.08-1.19 1.19-.257 2.427-.385 3.71-.385 1.213 0 2.182.163 2.905.49.747.327 1.307.758 1.68 1.295.397.513.653 1.085.77 1.715.14.63.21 1.26.21 1.89 0 1.4-.035 2.765-.105 4.095s-.105 2.59-.105 3.78c0 .863.035 1.68.105 2.45s.198 1.482.385 2.135h-2.065l-.735-2.45h-.175c-.21.327-.478.653-.805.98-.303.303-.677.583-1.12.84-.443.233-.957.432-1.54.595s-1.248.245-1.995.245-1.447-.117-2.1-.35c-.63-.233-1.178-.56-1.645-.98-.467-.443-.84-.968-1.12-1.575-.257-.607-.385-1.295-.385-2.065 0-1.027.21-1.878.63-2.555.42-.7 1.003-1.248 1.75-1.645.77-.42 1.68-.712 2.73-.875 1.073-.187 2.252-.28 3.535-.28h.945c.327 0 .653.023.98.07.07-.7.105-1.33.105-1.89 0-1.283-.257-2.182-.77-2.695s-1.447-.77-2.8-.77c-.397 0-.828.035-1.295.105-.443.047-.91.128-1.4.245-.467.093-.922.222-1.365.385-.42.14-.793.303-1.12.49zm4.97 14.035c.653 0 1.237-.082 1.75-.245.513-.187.957-.408 1.33-.665.373-.28.677-.583.91-.91.257-.327.443-.642.56-.945v-2.905c-.327-.023-.665-.035-1.015-.035-.327-.023-.653-.035-.98-.035-.723 0-1.435.047-2.135.14-.677.07-1.283.222-1.82.455-.513.21-.933.513-1.26.91-.303.373-.455.852-.455 1.435 0 .817.292 1.493.875 2.03.583.513 1.33.77 2.24.77zm26.113-3.85c0 1.19.012 2.275.035 3.255.024.957.129 1.902.315 2.835h-1.89l-.7-2.485h-.14c-.466.817-1.143 1.493-2.03 2.03-.886.537-1.925.805-3.115.805-2.333 0-4.071-.735-5.215-2.205-1.12-1.47-1.68-3.768-1.68-6.895 0-2.987.7-5.25 2.1-6.79 1.424-1.563 3.372-2.345 5.845-2.345.864 0 1.54.047 2.03.14.514.093 1.062.245 1.645.455v-7.28h2.8zm-7.07 3.99c1.19 0 2.135-.303 2.835-.91.7-.63 1.179-1.575 1.435-2.835v-8.68c-.42-.327-.898-.56-1.435-.7-.536-.14-1.248-.21-2.135-.21-1.61 0-2.87.537-3.78 1.61-.91 1.05-1.365 2.742-1.365 5.075 0 .957.07 1.843.21 2.66.164.817.42 1.517.77 2.1s.805 1.05 1.365 1.4c.584.327 1.284.49 2.1.49zm13.058-15.47h2.8v17.5h-2.8zm-.595-5.32c0-.537.175-.992.525-1.365.374-.397.84-.595 1.4-.595s1.039.198 1.435.595c.397.373.595.828.595 1.365s-.198.98-.595 1.33c-.396.35-.875.525-1.435.525s-1.026-.175-1.4-.525c-.35-.35-.525-.793-.525-1.33zm20.601 22.82v-9.975c0-1.82-.269-3.185-.805-4.095-.514-.933-1.47-1.4-2.87-1.4-1.237 0-2.264.338-3.08 1.015-.794.653-1.354 1.482-1.68 2.485v11.97h-2.8v-17.5h1.96l.525 2.135h.14c.56-.747 1.306-1.353 2.24-1.82.956-.49 2.088-.735 3.395-.735.956 0 1.796.117 2.52.35.723.21 1.318.595 1.785 1.155.49.56.851 1.318 1.085 2.275.256.933.385 2.123.385 3.57v10.57zm21.31.805c0 2.263-.606 3.932-1.82 5.005-1.19 1.073-2.963 1.61-5.32 1.61-1.4 0-2.531-.093-3.395-.28-.84-.163-1.563-.385-2.17-.665l.735-2.38c.537.21 1.132.408 1.785.595.654.187 1.505.28 2.555.28.98 0 1.774-.093 2.38-.28.63-.163 1.132-.455 1.505-.875.374-.397.63-.922.77-1.575.14-.63.21-1.388.21-2.275v-1.68h-.14c-.466.677-1.061 1.202-1.785 1.575-.723.35-1.668.525-2.835.525-2.356 0-4.095-.735-5.215-2.205-1.096-1.47-1.645-3.757-1.645-6.86 0-2.987.712-5.25 2.135-6.79 1.424-1.563 3.524-2.345 6.3-2.345 1.33 0 2.462.105 3.395.315.957.21 1.809.455 2.555.735zm-7.035-2.87c1.19 0 2.124-.292 2.8-.875.677-.607 1.155-1.54 1.435-2.8v-8.96c-.933-.443-2.123-.665-3.57-.665-1.586 0-2.835.537-3.745 1.61s-1.365 2.753-1.365 5.04c0 .98.082 1.878.245 2.695.164.817.42 1.517.77 2.1s.805 1.038 1.365 1.365 1.249.49 2.065.49zm37.405-5.46h-4.13v7.525h-2.73v-7.525h-10.78v-1.155l11.62-16.205h1.89v14.91h4.13zm-6.86-10.08.35-2.87h-.105l-1.225 2.38-4.935 6.685-1.68 1.715 2.45-.28h5.145zm16.186 6.23h8.47v2.59h-8.47zm25.265 9.345c.794 0 1.529-.117 2.205-.35.677-.233 1.26-.572 1.75-1.015.49-.467.875-1.015 1.155-1.645s.42-1.318.42-2.065c0-1.633-.49-2.847-1.47-3.64-.956-.793-2.286-1.19-3.99-1.19h-2.59v-1.015l5.04-7.77 1.61-1.54-2.275.35h-6.93v-2.59h12.495v1.015l-5.565 8.365-1.225 1.015v.07l1.19-.245c.934.023 1.797.198 2.59.525.794.303 1.482.758 2.065 1.365.584.583 1.039 1.295 1.365 2.135.327.817.49 1.75.49 2.8 0 1.26-.221 2.38-.665 3.36-.443.98-1.05 1.808-1.82 2.485-.746.653-1.633 1.155-2.66 1.505-1.026.35-2.111.525-3.255.525-1.05 0-1.995-.082-2.835-.245s-1.575-.373-2.205-.63l.735-2.485c.537.257 1.167.478 1.89.665.747.163 1.575.245 2.485.245zm18.338 0c1.61 0 2.94-.467 3.99-1.4s1.575-2.287 1.575-4.06c0-1.703-.525-2.975-1.575-3.815-1.027-.84-2.45-1.26-4.27-1.26l-2.94.175v-12.11h10.92v2.59h-8.295v6.965l1.505-.07c2.31.023 4.13.665 5.46 1.925s1.995 3.068 1.995 5.425c0 1.307-.222 2.473-.665 3.5-.444 1.003-1.05 1.843-1.82 2.52-.747.677-1.634 1.19-2.66 1.54-1.027.35-2.124.525-3.29.525-1.05 0-1.937-.058-2.66-.175-.724-.117-1.4-.292-2.03-.525l.735-2.38c.536.21 1.108.373 1.715.49.63.093 1.4.14 2.31.14z"/><path d="m124.12 402.37h-10.08v9.63h-2.49v-21h2.49v9.15h10.08v-9.15h2.49v21h-2.49zm18.296 8.43c-.6.48-1.36.86-2.28 1.14-.9.28-1.86.42-2.88.42-1.14 0-2.13-.18-2.97-.54-.84-.38-1.53-.91-2.07-1.59-.54-.7-.94-1.53-1.2-2.49s-.39-2.04-.39-3.24c0-2.56.57-4.51 1.71-5.85s2.77-2.01 4.89-2.01c.68 0 1.36.08 2.04.24.68.14 1.29.42 1.83.84s.98 1.02 1.32 1.8c.34.76.51 1.77.51 3.03 0 .66-.06 1.39-.18 2.19h-9.63c0 .88.09 1.66.27 2.34s.46 1.26.84 1.74c.38.46.87.82 1.47 1.08.62.24 1.37.36 2.25.36.68 0 1.36-.12 2.04-.36s1.19-.52 1.53-.84zm-5.16-12.06c-1.18 0-2.13.31-2.85.93-.7.62-1.12 1.68-1.26 3.18h7.44c0-1.52-.29-2.58-.87-3.18-.58-.62-1.4-.93-2.46-.93zm9.205-.63c.76-.46 1.64-.8 2.64-1.02 1.02-.22 2.08-.33 3.18-.33 1.04 0 1.87.14 2.49.42.64.28 1.12.65 1.44 1.11.34.44.56.93.66 1.47.12.54.18 1.08.18 1.62 0 1.2-.03 2.37-.09 3.51s-.09 2.22-.09 3.24c0 .74.03 1.44.09 2.1s.17 1.27.33 1.83h-1.77l-.63-2.1h-.15c-.18.28-.41.56-.69.84-.26.26-.58.5-.96.72-.38.2-.82.37-1.32.51s-1.07.21-1.71.21-1.24-.1-1.8-.3c-.54-.2-1.01-.48-1.41-.84-.4-.38-.72-.83-.96-1.35-.22-.52-.33-1.11-.33-1.77 0-.88.18-1.61.54-2.19.36-.6.86-1.07 1.5-1.41.66-.36 1.44-.61 2.34-.75.92-.16 1.93-.24 3.03-.24h.81c.28 0 .56.02.84.06.06-.6.09-1.14.09-1.62 0-1.1-.22-1.87-.66-2.31s-1.24-.66-2.4-.66c-.34 0-.71.03-1.11.09-.38.04-.78.11-1.2.21-.4.08-.79.19-1.17.33-.36.12-.68.26-.96.42zm4.26 12.03c.56 0 1.06-.07 1.5-.21.44-.16.82-.35 1.14-.57.32-.24.58-.5.78-.78.22-.28.38-.55.48-.81v-2.49c-.28-.02-.57-.03-.87-.03-.28-.02-.56-.03-.84-.03-.62 0-1.23.04-1.83.12-.58.06-1.1.19-1.56.39-.44.18-.8.44-1.08.78-.26.32-.39.73-.39 1.23 0 .7.25 1.28.75 1.74.5.44 1.14.66 1.92.66zm22.382-3.3c0 1.02.01 1.95.03 2.79.02.82.11 1.63.27 2.43h-1.62l-.6-2.13h-.12c-.4.7-.98 1.28-1.74 1.74s-1.65.69-2.67.69c-2 0-3.49-.63-4.47-1.89-.96-1.26-1.44-3.23-1.44-5.91 0-2.56.6-4.5 1.8-5.82 1.22-1.34 2.89-2.01 5.01-2.01.74 0 1.32.04 1.74.12.44.08.91.21 1.41.39v-6.24h2.4zm-6.06 3.42c1.02 0 1.83-.26 2.43-.78.6-.54 1.01-1.35 1.23-2.43v-7.44c-.36-.28-.77-.48-1.23-.6s-1.07-.18-1.83-.18c-1.38 0-2.46.46-3.24 1.38-.78.9-1.17 2.35-1.17 4.35 0 .82.06 1.58.18 2.28.14.7.36 1.3.66 1.8s.69.9 1.17 1.2c.5.28 1.1.42 1.8.42zm11.193-13.26h2.4v15h-2.4zm-.51-4.56c0-.46.15-.85.45-1.17.32-.34.72-.51 1.2-.51s.89.17 1.23.51c.34.32.51.71.51 1.17s-.17.84-.51 1.14-.75.45-1.23.45-.88-.15-1.2-.45c-.3-.3-.45-.68-.45-1.14zm17.657 19.56v-8.55c0-1.56-.23-2.73-.69-3.51-.44-.8-1.26-1.2-2.46-1.2-1.06 0-1.94.29-2.64.87-.68.56-1.16 1.27-1.44 2.13v10.26h-2.4v-15h1.68l.45 1.83h.12c.48-.64 1.12-1.16 1.92-1.56.82-.42 1.79-.63 2.91-.63.82 0 1.54.1 2.16.3.62.18 1.13.51 1.53.99.42.48.73 1.13.93 1.95.22.8.33 1.82.33 3.06v9.06zm18.267.69c0 1.94-.52 3.37-1.56 4.29-1.02.92-2.54 1.38-4.56 1.38-1.2 0-2.17-.08-2.91-.24-.72-.14-1.34-.33-1.86-.57l.63-2.04c.46.18.97.35 1.53.51s1.29.24 2.19.24c.84 0 1.52-.08 2.04-.24.54-.14.97-.39 1.29-.75.32-.34.54-.79.66-1.35.12-.54.18-1.19.18-1.95v-1.44h-.12c-.4.58-.91 1.03-1.53 1.35-.62.3-1.43.45-2.43.45-2.02 0-3.51-.63-4.47-1.89-.94-1.26-1.41-3.22-1.41-5.88 0-2.56.61-4.5 1.83-5.82 1.22-1.34 3.02-2.01 5.4-2.01 1.14 0 2.11.09 2.91.27.82.18 1.55.39 2.19.63zm-6.03-2.46c1.02 0 1.82-.25 2.4-.75.58-.52.99-1.32 1.23-2.4v-7.68c-.8-.38-1.82-.57-3.06-.57-1.36 0-2.43.46-3.21 1.38s-1.17 2.36-1.17 4.32c0 .84.07 1.61.21 2.31s.36 1.3.66 1.8.69.89 1.17 1.17 1.07.42 1.77.42zm22.731.03c1.38 0 2.52-.4 3.42-1.2s1.35-1.96 1.35-3.48c0-1.46-.45-2.55-1.35-3.27-.88-.72-2.1-1.08-3.66-1.08l-2.52.15v-10.38h9.36v2.22h-7.11v5.97l1.29-.06c1.98.02 3.54.57 4.68 1.65s1.71 2.63 1.71 4.65c0 1.12-.19 2.12-.57 3-.38.86-.9 1.58-1.56 2.16-.64.58-1.4 1.02-2.28 1.32s-1.82.45-2.82.45c-.9 0-1.66-.05-2.28-.15s-1.2-.25-1.74-.45l.63-2.04c.46.18.95.32 1.47.42.54.08 1.2.12 1.98.12zm17.323-8.01h7.26v2.22h-7.26zm21.657 8.01c.68 0 1.31-.1 1.89-.3s1.08-.49 1.5-.87c.42-.4.75-.87.99-1.41s.36-1.13.36-1.77c0-1.4-.42-2.44-1.26-3.12-.82-.68-1.96-1.02-3.42-1.02h-2.22v-.87l4.32-6.66 1.38-1.32-1.95.3h-5.94v-2.22h10.71v.87l-4.77 7.17-1.05.87v.06l1.02-.21c.8.02 1.54.17 2.22.45.68.26 1.27.65 1.77 1.17.5.5.89 1.11 1.17 1.83.28.7.42 1.5.42 2.4 0 1.08-.19 2.04-.57 2.88s-.9 1.55-1.56 2.13c-.64.56-1.4.99-2.28 1.29s-1.81.45-2.79.45c-.9 0-1.71-.07-2.43-.21s-1.35-.32-1.89-.54l.63-2.13c.46.22 1 .41 1.62.57.64.14 1.35.21 2.13.21zm10.617-8.76c0-3.6.58-6.31 1.74-8.13 1.18-1.82 2.89-2.73 5.13-2.73 2.42 0 4.17.9 5.25 2.7 1.1 1.78 1.65 4.5 1.65 8.16 0 3.6-.59 6.31-1.77 8.13-1.16 1.82-2.87 2.73-5.13 2.73-2.38 0-4.12-.95-5.22-2.85s-1.65-4.57-1.65-8.01zm2.49 0c0 1.3.08 2.49.24 3.57.18 1.06.45 1.98.81 2.76.36.76.81 1.36 1.35 1.8.56.42 1.22.63 1.98.63 1.52 0 2.63-.7 3.33-2.1.72-1.42 1.08-3.64 1.08-6.66 0-1.28-.08-2.46-.24-3.54-.14-1.08-.39-2.01-.75-2.79-.34-.78-.79-1.38-1.35-1.8s-1.25-.63-2.07-.63c-1.5 0-2.61.71-3.33 2.13-.7 1.42-1.05 3.63-1.05 6.63z"/><path d="m121.6 444.975h-8.4v8.025h-2.075v-17.5h2.075v7.625h8.4v-7.625h2.075v17.5h-2.075zm15.247 7.025c-.5.4-1.133.717-1.9.95-.75.233-1.55.35-2.4.35-.95 0-1.775-.15-2.475-.45-.7-.317-1.275-.758-1.725-1.325-.45-.583-.783-1.275-1-2.075s-.325-1.7-.325-2.7c0-2.133.475-3.758 1.425-4.875s2.308-1.675 4.075-1.675c.567 0 1.133.067 1.7.2.567.117 1.075.35 1.525.7s.817.85 1.1 1.5c.283.633.425 1.475.425 2.525 0 .55-.05 1.158-.15 1.825h-8.025c0 .733.075 1.383.225 1.95s.383 1.05.7 1.45c.317.383.725.683 1.225.9.517.2 1.142.3 1.875.3.567 0 1.133-.1 1.7-.3s.992-.433 1.275-.7zm-4.3-10.05c-.983 0-1.775.258-2.375.775-.583.517-.933 1.4-1.05 2.65h6.2c0-1.267-.242-2.15-.725-2.65-.483-.517-1.167-.775-2.05-.775zm7.67-.525c.634-.383 1.367-.667 2.2-.85.85-.183 1.734-.275 2.65-.275.867 0 1.559.117 2.075.35.534.233.934.542 1.2.925.284.367.467.775.55 1.225.1.45.15.9.15 1.35 0 1-.025 1.975-.075 2.925s-.075 1.85-.075 2.7c0 .617.025 1.2.075 1.75s.142 1.058.275 1.525h-1.475l-.525-1.75h-.125c-.15.233-.341.467-.575.7-.216.217-.483.417-.8.6-.316.167-.683.308-1.1.425-.416.117-.891.175-1.425.175-.533 0-1.033-.083-1.5-.25-.45-.167-.841-.4-1.175-.7-.333-.317-.6-.692-.8-1.125-.183-.433-.275-.925-.275-1.475 0-.733.15-1.342.45-1.825.3-.5.717-.892 1.25-1.175.55-.3 1.2-.508 1.95-.625.767-.133 1.609-.2 2.525-.2h.675c.234 0 .467.017.7.05.05-.5.075-.95.075-1.35 0-.917-.183-1.558-.55-1.925-.366-.367-1.033-.55-2-.55-.283 0-.591.025-.925.075-.316.033-.65.092-1 .175-.333.067-.658.158-.975.275-.3.1-.566.217-.8.35zm3.55 10.025c.467 0 .884-.058 1.25-.175.367-.133.684-.292.95-.475.267-.2.484-.417.65-.65.184-.233.317-.458.4-.675v-2.075c-.233-.017-.475-.025-.725-.025-.233-.017-.466-.025-.7-.025-.516 0-1.025.033-1.525.1-.483.05-.916.158-1.3.325-.366.15-.666.367-.9.65-.216.267-.325.608-.325 1.025 0 .583.209 1.067.625 1.45.417.367.95.55 1.6.55zm18.653-2.75c0 .85.008 1.625.025 2.325.016.683.091 1.358.225 2.025h-1.35l-.5-1.775h-.1c-.334.583-.817 1.067-1.45 1.45-.634.383-1.375.575-2.225.575-1.667 0-2.909-.525-3.725-1.575-.8-1.05-1.2-2.692-1.2-4.925 0-2.133.5-3.75 1.5-4.85 1.016-1.117 2.408-1.675 4.175-1.675.616 0 1.1.033 1.45.1.366.067.758.175 1.175.325v-5.2h2zm-5.05 2.85c.85 0 1.525-.217 2.025-.65.5-.45.841-1.125 1.025-2.025v-6.2c-.3-.233-.642-.4-1.025-.5-.384-.1-.892-.15-1.525-.15-1.15 0-2.05.383-2.7 1.15-.65.75-.975 1.958-.975 3.625 0 .683.05 1.317.15 1.9.116.583.3 1.083.55 1.5s.575.75.975 1c.416.233.916.35 1.5.35zm9.327-11.05h2v12.5h-2zm-.425-3.8c0-.383.125-.708.375-.975.266-.283.6-.425 1-.425s.741.142 1.025.425c.283.267.425.592.425.975s-.142.7-.425.95c-.284.25-.625.375-1.025.375s-.734-.125-1-.375c-.25-.25-.375-.567-.375-.95zm14.714 16.3v-7.125c0-1.3-.192-2.275-.575-2.925-.367-.667-1.05-1-2.05-1-.883 0-1.617.242-2.2.725-.567.467-.967 1.058-1.2 1.775v8.55h-2v-12.5h1.4l.375 1.525h.1c.4-.533.933-.967 1.6-1.3.683-.35 1.492-.525 2.425-.525.683 0 1.283.083 1.8.25.517.15.942.425 1.275.825.35.4.608.942.775 1.625.183.667.275 1.517.275 2.55v7.55zm15.222.575c0 1.617-.433 2.808-1.3 3.575-.85.767-2.117 1.15-3.8 1.15-1 0-1.808-.067-2.425-.2-.6-.117-1.117-.275-1.55-.475l.525-1.7c.383.15.808.292 1.275.425s1.075.2 1.825.2c.7 0 1.267-.067 1.7-.2.45-.117.808-.325 1.075-.625.267-.283.45-.658.55-1.125.1-.45.15-.992.15-1.625v-1.2h-.1c-.333.483-.758.858-1.275 1.125-.517.25-1.192.375-2.025.375-1.683 0-2.925-.525-3.725-1.575-.783-1.05-1.175-2.683-1.175-4.9 0-2.133.508-3.75 1.525-4.85 1.017-1.117 2.517-1.675 4.5-1.675.95 0 1.758.075 2.425.225.683.15 1.292.325 1.825.525zm-5.025-2.05c.85 0 1.517-.208 2-.625.483-.433.825-1.1 1.025-2v-6.4c-.667-.317-1.517-.475-2.55-.475-1.133 0-2.025.383-2.675 1.15s-.975 1.967-.975 3.6c0 .7.058 1.342.175 1.925s.3 1.083.55 1.5.575.742.975.975.892.35 1.475.35zm25.918-3.8c0 .767-.117 1.492-.35 2.175-.234.667-.575 1.258-1.025 1.775-.45.5-1.009.9-1.675 1.2-.667.283-1.425.425-2.275.425-.834 0-1.584-.133-2.25-.4-.667-.267-1.242-.658-1.725-1.175-.484-.533-.859-1.183-1.125-1.95-.25-.767-.375-1.65-.375-2.65 0-1.65.208-3.167.625-4.55.433-1.4 1.025-2.617 1.775-3.65s1.633-1.867 2.65-2.5c1.033-.65 2.15-1.058 3.35-1.225l.425 1.6c-.934.167-1.784.483-2.55.95-.767.467-1.442 1.042-2.025 1.725-.567.683-1.034 1.45-1.4 2.3-.367.85-.617 1.725-.75 2.625.266-.45.716-.858 1.35-1.225.633-.383 1.408-.575 2.325-.575 1.566 0 2.791.45 3.675 1.35.9.9 1.35 2.158 1.35 3.775zm-2.075.2c0-1.183-.275-2.075-.825-2.675s-1.4-.9-2.55-.9c-.817 0-1.525.2-2.125.6-.584.4-.992.85-1.225 1.35-.034.233-.05.425-.05.575v.5c0 .517.066 1.025.2 1.525.15.5.375.95.675 1.35.3.383.666.7 1.1.95.45.233.975.35 1.575.35.483 0 .916-.092 1.3-.275.4-.183.741-.433 1.025-.75.283-.317.5-.7.65-1.15.166-.45.25-.933.25-1.45zm9.536-3.05h6.05v1.85h-6.05zm23.347-5.4c0 .883-.167 1.792-.5 2.725-.317.917-.742 1.842-1.275 2.775-.517.933-1.1 1.85-1.75 2.75-.65.883-1.3 1.725-1.95 2.525l-1.225 1.075v.1l1.6-.275h5.45v1.85h-9.95v-.725c.366-.383.808-.858 1.325-1.425.516-.567 1.05-1.192 1.6-1.875.566-.7 1.116-1.433 1.65-2.2.55-.783 1.041-1.575 1.475-2.375.45-.8.808-1.592 1.075-2.375.266-.783.4-1.525.4-2.225 0-.817-.234-1.492-.7-2.025-.467-.55-1.175-.825-2.125-.825-.634 0-1.25.133-1.85.4-.6.25-1.117.542-1.55.875l-.825-1.425c.583-.5 1.275-.892 2.075-1.175s1.658-.425 2.575-.425c.716 0 1.35.108 1.9.325.55.2 1.016.492 1.4.875.383.383.675.842.875 1.375.2.517.3 1.083.3 1.7zm7.798 12.075c1.15 0 2.1-.333 2.85-1s1.125-1.633 1.125-2.9c0-1.217-.375-2.125-1.125-2.725-.733-.6-1.75-.9-3.05-.9l-2.1.125v-8.65h7.8v1.85h-5.925v4.975l1.075-.05c1.65.017 2.95.475 3.9 1.375s1.425 2.192 1.425 3.875c0 .933-.158 1.767-.475 2.5-.317.717-.75 1.317-1.3 1.8-.533.483-1.167.85-1.9 1.1s-1.517.375-2.35.375c-.75 0-1.383-.042-1.9-.125s-1-.208-1.45-.375l.525-1.7c.383.15.792.267 1.225.35.45.067 1 .1 1.65.1z"/></g></svg>