<svg fill="none" height="512" viewBox="0 0 720 512" width="720" xmlns="http://www.w3.org/2000/svg"><path d="m0 0h720v512h-720z" fill="#fff"/><path d="m2.5 2.5h715v507h-715z" stroke="#563a5f" stroke-opacity=".1" stroke-width="5"/><path d="m0 0h720v512h-720z" fill="#eceded" fill-opacity=".1"/><path d="m2.5 2.5h715v507h-715z" stroke="#563a5f" stroke-opacity=".1" stroke-width="5"/><path d="m123.75 220.05c3.8-.9 7.9-1.5 12.3-1.8s8.75-.45 13.05-.45c4.6 0 9.25.45 13.95 1.35 4.8.9 9.15 2.55 13.05 4.95s7.05 5.7 9.45 9.9c2.5 4.2 3.75 9.55 3.75 16.05 0 6.4-1.15 11.8-3.45 16.2s-5.35 8-9.15 10.8c-3.8 2.7-8.15 4.65-13.05 5.85s-9.95 1.8-15.15 1.8c-.5 0-1.35 0-2.55 0-1.1 0-2.3 0-3.6 0-1.2-.1-2.4-.2-3.6-.3s-2.05-.2-2.55-.3v39.9h-12.45zm25.65 8.55c-2.6 0-5.1.05-7.5.15s-4.3.35-5.7.75v43.5c.5.2 1.3.35 2.4.45 1.1 0 2.25.05 3.45.15h3.45 2.4c3.4 0 6.75-.3 10.05-.9 3.4-.7 6.45-1.9 9.15-3.6s4.85-4.1 6.45-7.2c1.7-3.1 2.55-7.05 2.55-11.85 0-4.1-.8-7.5-2.4-10.2-1.5-2.8-3.55-5-6.15-6.6-2.5-1.7-5.35-2.9-8.55-3.6s-6.4-1.05-9.6-1.05zm123.595 1.5h-32.7v93.9h-12.45v-93.9h-32.7v-11.1h77.85zm96.788 67.2c0-4.2-1.25-7.6-3.75-10.2-2.5-2.7-5.65-5.05-9.45-7.05-3.7-2.1-7.75-4.05-12.15-5.85s-8.5-3.95-12.3-6.45c-3.7-2.6-6.8-5.75-9.3-9.45-2.5-3.8-3.75-8.6-3.75-14.4 0-8.2 2.85-14.7 8.55-19.5s13.8-7.2 24.3-7.2c6.1 0 11.65.45 16.65 1.35s8.9 2.05 11.7 3.45l-3.75 10.95c-2.3-1.1-5.7-2.15-10.2-3.15-4.4-1-9.4-1.5-15-1.5-6.6 0-11.55 1.5-14.85 4.5-3.3 2.9-4.95 6.35-4.95 10.35 0 3.9 1.25 7.15 3.75 9.75s5.6 4.95 9.3 7.05c3.8 2 7.9 4 12.3 6s8.45 4.35 12.15 7.05c3.8 2.6 6.95 5.75 9.45 9.45s3.75 8.3 3.75 13.8c0 4.5-.8 8.55-2.4 12.15s-3.95 6.7-7.05 9.3-6.85 4.6-11.25 6-9.4 2.1-15 2.1c-7.5 0-13.7-.6-18.6-1.8-4.9-1.1-8.7-2.35-11.4-3.75l4.2-11.25c2.3 1.3 5.7 2.6 10.2 3.9 4.5 1.2 9.55 1.8 15.15 1.8 3.3 0 6.4-.3 9.3-.9 2.9-.7 5.4-1.75 7.5-3.15 2.1-1.5 3.75-3.35 4.95-5.55 1.3-2.2 1.95-4.8 1.95-7.8zm29.887-42.75c3.8-2.3 8.2-4 13.2-5.1 5.1-1.1 10.4-1.65 15.9-1.65 5.2 0 9.35.7 12.45 2.1 3.2 1.4 5.6 3.25 7.2 5.55 1.7 2.2 2.8 4.65 3.3 7.35.6 2.7.9 5.4.9 8.1 0 6-.15 11.85-.45 17.55s-.45 11.1-.45 16.2c0 3.7.15 7.2.45 10.5s.85 6.35 1.65 9.15h-8.85l-3.15-10.5h-.75c-.9 1.4-2.05 2.8-3.45 4.2-1.3 1.3-2.9 2.5-4.8 3.6-1.9 1-4.1 1.85-6.6 2.55s-5.35 1.05-8.55 1.05-6.2-.5-9-1.5c-2.7-1-5.05-2.4-7.05-4.2-2-1.9-3.6-4.15-4.8-6.75-1.1-2.6-1.65-5.55-1.65-8.85 0-4.4.9-8.05 2.7-10.95 1.8-3 4.3-5.35 7.5-7.05 3.3-1.8 7.2-3.05 11.7-3.75 4.6-.8 9.65-1.2 15.15-1.2h4.05c1.4 0 2.8.1 4.2.3.3-3 .45-5.7.45-8.1 0-5.5-1.1-9.35-3.3-11.55s-6.2-3.3-12-3.3c-1.7 0-3.55.15-5.55.45-1.9.2-3.9.55-6 1.05-2 .4-3.95.95-5.85 1.65-1.8.6-3.4 1.3-4.8 2.1zm21.3 60.15c2.8 0 5.3-.35 7.5-1.05 2.2-.8 4.1-1.75 5.7-2.85 1.6-1.2 2.9-2.5 3.9-3.9 1.1-1.4 1.9-2.75 2.4-4.05v-12.45c-1.4-.1-2.85-.15-4.35-.15-1.4-.1-2.8-.15-4.2-.15-3.1 0-6.15.2-9.15.6-2.9.3-5.5.95-7.8 1.95-2.2.9-4 2.2-5.4 3.9-1.3 1.6-1.95 3.65-1.95 6.15 0 3.5 1.25 6.4 3.75 8.7 2.5 2.2 5.7 3.3 9.6 3.3zm102.464 9.3v-42.75c0-7.8-1.15-13.65-3.45-17.55-2.2-4-6.3-6-12.3-6-5.3 0-9.7 1.45-13.2 4.35-3.4 2.8-5.8 6.35-7.2 10.65v51.3h-12v-75h8.4l2.25 9.15h.6c2.4-3.2 5.6-5.8 9.6-7.8 4.1-2.1 8.95-3.15 14.55-3.15 4.1 0 7.7.5 10.8 1.5 3.1.9 5.65 2.55 7.65 4.95 2.1 2.4 3.65 5.65 4.65 9.75 1.1 4 1.65 9.1 1.65 15.3v45.3zm66.882-20.4c0-3-.9-5.35-2.7-7.05s-4.05-3.1-6.75-4.2c-2.6-1.2-5.5-2.3-8.7-3.3-3.1-1.1-6-2.45-8.7-4.05-2.6-1.7-4.8-3.85-6.6-6.45s-2.7-6.1-2.7-10.5c0-7.2 2.05-12.45 6.15-15.75 4.1-3.4 9.8-5.1 17.1-5.1 5.4 0 9.9.5 13.5 1.5 3.7.9 6.9 2 9.6 3.3l-2.85 9.9c-2.3-1.1-5.1-2.05-8.4-2.85-3.2-.9-6.65-1.35-10.35-1.35-4.4 0-7.65.75-9.75 2.25-2 1.5-3 4.1-3 7.8 0 2.6.9 4.65 2.7 6.15 1.8 1.4 4 2.7 6.6 3.9 2.7 1.1 5.6 2.2 8.7 3.3 3.2 1.1 6.1 2.55 8.7 4.35 2.7 1.8 4.95 4.1 6.75 6.9 1.8 2.7 2.7 6.3 2.7 10.8 0 3.2-.55 6.2-1.65 9-1 2.8-2.6 5.2-4.8 7.2s-4.95 3.55-8.25 4.65c-3.2 1.2-7 1.8-11.4 1.8-5.7 0-10.55-.55-14.55-1.65s-7.35-2.4-10.05-3.9l3.6-10.2c2.3 1.3 5.3 2.5 9 3.6s7.45 1.65 11.25 1.65c4.3 0 7.85-.85 10.65-2.55s4.2-4.75 4.2-9.15z" fill="#000"/></svg>