<svg width="720" height="512" viewBox="0 0 720 512" fill="none" xmlns="http://www.w3.org/2000/svg">
<rect width="720" height="512" fill="white"/>
<rect x="2.5" y="2.5" width="715" height="507" stroke="#563A5F" stroke-opacity="0.1" stroke-width="5"/>
<rect width="720" height="512" fill="#ECEDED" fill-opacity="0.1"/>
<rect x="2.5" y="2.5" width="715" height="507" stroke="#563A5F" stroke-opacity="0.1" stroke-width="5"/>
<path d="M288.4 60.28C289.52 60.0667 290.747 59.9067 292.08 59.8C293.44 59.6667 294.787 59.6 296.12 59.6C297.507 59.6 298.893 59.72 300.28 59.96C301.693 60.1733 302.96 60.6267 304.08 61.32C305.2 61.9867 306.107 62.9333 306.8 64.16C307.52 65.36 307.88 66.9333 307.88 68.88C307.88 70.64 307.573 72.1333 306.96 73.36C306.347 74.56 305.533 75.5467 304.52 76.32C303.507 77.0933 302.347 77.6533 301.04 78C299.76 78.3467 298.427 78.52 297.04 78.52C296.907 78.52 296.693 78.52 296.4 78.52C296.107 78.52 295.8 78.52 295.48 78.52C295.16 78.4933 294.84 78.4667 294.52 78.44C294.227 78.4133 294.013 78.3867 293.88 78.36V88H288.4V60.28ZM296.56 64.32C296.027 64.32 295.52 64.3467 295.04 64.4C294.56 64.4267 294.173 64.4667 293.88 64.52V73.6C293.987 73.6267 294.147 73.6533 294.36 73.68C294.573 73.7067 294.8 73.7333 295.04 73.76C295.28 73.76 295.507 73.76 295.72 73.76C295.96 73.76 296.133 73.76 296.24 73.76C296.96 73.76 297.667 73.6933 298.36 73.56C299.08 73.4267 299.72 73.1867 300.28 72.84C300.84 72.4667 301.28 71.96 301.6 71.32C301.947 70.68 302.12 69.84 302.12 68.8C302.12 67.92 301.96 67.2 301.64 66.64C301.32 66.0533 300.893 65.5867 300.36 65.24C299.853 64.8933 299.267 64.6533 298.6 64.52C297.933 64.3867 297.253 64.32 296.56 64.32ZM330.858 64.88H322.698V88H317.218V64.88H309.018V60H330.858V64.88ZM354.308 80.48C354.308 79.6267 353.988 78.9333 353.348 78.4C352.735 77.8667 351.948 77.3867 350.988 76.96C350.055 76.5067 349.028 76.0533 347.908 75.6C346.815 75.12 345.788 74.5467 344.828 73.88C343.895 73.1867 343.108 72.3333 342.468 71.32C341.855 70.3067 341.548 69.0133 341.548 67.44C341.548 66.08 341.775 64.9067 342.228 63.92C342.681 62.9067 343.321 62.0667 344.148 61.4C345.001 60.7333 346.001 60.24 347.148 59.92C348.295 59.6 349.575 59.44 350.988 59.44C352.615 59.44 354.148 59.5867 355.588 59.88C357.028 60.1467 358.215 60.5467 359.148 61.08L357.428 65.68C356.841 65.3067 355.961 64.9733 354.788 64.68C353.615 64.36 352.348 64.2 350.988 64.2C349.708 64.2 348.721 64.4533 348.028 64.96C347.361 65.4667 347.028 66.1467 347.028 67C347.028 67.8 347.335 68.4667 347.948 69C348.588 69.5333 349.375 70.0267 350.308 70.48C351.268 70.9333 352.295 71.4 353.388 71.88C354.508 72.36 355.535 72.9467 356.468 73.64C357.428 74.3067 358.215 75.1467 358.828 76.16C359.468 77.1467 359.788 78.3867 359.788 79.88C359.788 81.3733 359.535 82.6667 359.028 83.76C358.548 84.8267 357.855 85.72 356.948 86.44C356.068 87.16 354.988 87.6933 353.708 88.04C352.455 88.3867 351.068 88.56 349.548 88.56C347.548 88.56 345.788 88.3733 344.268 88C342.748 87.6267 341.628 87.2533 340.908 86.88L342.668 82.2C342.961 82.36 343.335 82.5333 343.788 82.72C344.268 82.9067 344.801 83.08 345.388 83.24C345.975 83.4 346.588 83.5333 347.228 83.64C347.895 83.7467 348.575 83.8 349.268 83.8C350.895 83.8 352.135 83.5333 352.988 83C353.868 82.44 354.308 81.6 354.308 80.48ZM377.239 81.8H368.639L366.519 88H361.039L371.119 59.8H375.159L385.239 88H379.479L377.239 81.8ZM370.039 77.4H376.039L373.959 71.16L373.119 66.76H372.919L372.079 71.2L370.039 77.4ZM394.618 73.4L392.418 69H392.218L392.858 73.4V88H387.658V59.8H391.658L402.258 74.72L404.378 79H404.578L403.938 74.72V60H409.138V88.2H405.138L394.618 73.4ZM426.027 80.48C426.027 79.6267 425.707 78.9333 425.067 78.4C424.454 77.8667 423.667 77.3867 422.707 76.96C421.774 76.5067 420.747 76.0533 419.627 75.6C418.534 75.12 417.507 74.5467 416.547 73.88C415.614 73.1867 414.827 72.3333 414.187 71.32C413.574 70.3067 413.267 69.0133 413.267 67.44C413.267 66.08 413.494 64.9067 413.947 63.92C414.4 62.9067 415.04 62.0667 415.867 61.4C416.72 60.7333 417.72 60.24 418.867 59.92C420.014 59.6 421.294 59.44 422.707 59.44C424.334 59.44 425.867 59.5867 427.307 59.88C428.747 60.1467 429.934 60.5467 430.867 61.08L429.147 65.68C428.56 65.3067 427.68 64.9733 426.507 64.68C425.334 64.36 424.067 64.2 422.707 64.2C421.427 64.2 420.44 64.4533 419.747 64.96C419.08 65.4667 418.747 66.1467 418.747 67C418.747 67.8 419.054 68.4667 419.667 69C420.307 69.5333 421.094 70.0267 422.027 70.48C422.987 70.9333 424.014 71.4 425.107 71.88C426.227 72.36 427.254 72.9467 428.187 73.64C429.147 74.3067 429.934 75.1467 430.547 76.16C431.187 77.1467 431.507 78.3867 431.507 79.88C431.507 81.3733 431.254 82.6667 430.747 83.76C430.267 84.8267 429.574 85.72 428.667 86.44C427.787 87.16 426.707 87.6933 425.427 88.04C424.174 88.3867 422.787 88.56 421.267 88.56C419.267 88.56 417.507 88.3733 415.987 88C414.467 87.6267 413.347 87.2533 412.627 86.88L414.387 82.2C414.68 82.36 415.054 82.5333 415.507 82.72C415.987 82.9067 416.52 83.08 417.107 83.24C417.694 83.4 418.307 83.5333 418.947 83.64C419.614 83.7467 420.294 83.8 420.987 83.8C422.614 83.8 423.854 83.5333 424.707 83C425.587 82.44 426.027 81.6 426.027 80.48Z" fill="black"/>
<path d="M149.32 147.32H122.44V173H115.8V117H122.44V141.4H149.32V117H155.96V173H149.32V147.32ZM198.11 169.8C196.51 171.08 194.483 172.093 192.03 172.84C189.63 173.587 187.07 173.96 184.35 173.96C181.31 173.96 178.67 173.48 176.43 172.52C174.19 171.507 172.35 170.093 170.91 168.28C169.47 166.413 168.403 164.2 167.71 161.64C167.017 159.08 166.67 156.2 166.67 153C166.67 146.173 168.19 140.973 171.23 137.4C174.27 133.827 178.617 132.04 184.27 132.04C186.083 132.04 187.897 132.253 189.71 132.68C191.523 133.053 193.15 133.8 194.59 134.92C196.03 136.04 197.203 137.64 198.11 139.72C199.017 141.747 199.47 144.44 199.47 147.8C199.47 149.56 199.31 151.507 198.99 153.64H173.31C173.31 155.987 173.55 158.067 174.03 159.88C174.51 161.693 175.257 163.24 176.27 164.52C177.283 165.747 178.59 166.707 180.19 167.4C181.843 168.04 183.843 168.36 186.19 168.36C188.003 168.36 189.817 168.04 191.63 167.4C193.443 166.76 194.803 166.013 195.71 165.16L198.11 169.8ZM184.35 137.64C181.203 137.64 178.67 138.467 176.75 140.12C174.883 141.773 173.763 144.6 173.39 148.6H193.23C193.23 144.547 192.457 141.72 190.91 140.12C189.363 138.467 187.177 137.64 184.35 137.64ZM208.895 135.96C210.922 134.733 213.268 133.827 215.935 133.24C218.655 132.653 221.482 132.36 224.415 132.36C227.188 132.36 229.402 132.733 231.055 133.48C232.762 134.227 234.042 135.213 234.895 136.44C235.802 137.613 236.388 138.92 236.655 140.36C236.975 141.8 237.135 143.24 237.135 144.68C237.135 147.88 237.055 151 236.895 154.04C236.735 157.08 236.655 159.96 236.655 162.68C236.655 164.653 236.735 166.52 236.895 168.28C237.055 170.04 237.348 171.667 237.775 173.16H233.055L231.375 167.56H230.975C230.495 168.307 229.882 169.053 229.135 169.8C228.442 170.493 227.588 171.133 226.575 171.72C225.562 172.253 224.388 172.707 223.055 173.08C221.722 173.453 220.202 173.64 218.495 173.64C216.788 173.64 215.188 173.373 213.695 172.84C212.255 172.307 211.002 171.56 209.935 170.6C208.868 169.587 208.015 168.387 207.375 167C206.788 165.613 206.495 164.04 206.495 162.28C206.495 159.933 206.975 157.987 207.935 156.44C208.895 154.84 210.228 153.587 211.935 152.68C213.695 151.72 215.775 151.053 218.175 150.68C220.628 150.253 223.322 150.04 226.255 150.04C227.002 150.04 227.722 150.04 228.415 150.04C229.162 150.04 229.908 150.093 230.655 150.2C230.815 148.6 230.895 147.16 230.895 145.88C230.895 142.947 230.308 140.893 229.135 139.72C227.962 138.547 225.828 137.96 222.735 137.96C221.828 137.96 220.842 138.04 219.775 138.2C218.762 138.307 217.695 138.493 216.575 138.76C215.508 138.973 214.468 139.267 213.455 139.64C212.495 139.96 211.642 140.333 210.895 140.76L208.895 135.96ZM220.255 168.04C221.748 168.04 223.082 167.853 224.255 167.48C225.428 167.053 226.442 166.547 227.295 165.96C228.148 165.32 228.842 164.627 229.375 163.88C229.962 163.133 230.388 162.413 230.655 161.72V155.08C229.908 155.027 229.135 155 228.335 155C227.588 154.947 226.842 154.92 226.095 154.92C224.442 154.92 222.815 155.027 221.215 155.24C219.668 155.4 218.282 155.747 217.055 156.28C215.882 156.76 214.922 157.453 214.175 158.36C213.482 159.213 213.135 160.307 213.135 161.64C213.135 163.507 213.802 165.053 215.135 166.28C216.468 167.453 218.175 168.04 220.255 168.04ZM279.943 159.24C279.943 161.96 279.969 164.44 280.023 166.68C280.076 168.867 280.316 171.027 280.743 173.16H276.423L274.823 167.48H274.503C273.436 169.347 271.889 170.893 269.863 172.12C267.836 173.347 265.463 173.96 262.743 173.96C257.409 173.96 253.436 172.28 250.823 168.92C248.263 165.56 246.983 160.307 246.983 153.16C246.983 146.333 248.583 141.16 251.783 137.64C255.036 134.067 259.489 132.28 265.143 132.28C267.116 132.28 268.663 132.387 269.783 132.6C270.956 132.813 272.209 133.16 273.543 133.64V117H279.943V159.24ZM263.783 168.36C266.503 168.36 268.663 167.667 270.263 166.28C271.863 164.84 272.956 162.68 273.543 159.8V139.96C272.583 139.213 271.489 138.68 270.263 138.36C269.036 138.04 267.409 137.88 265.383 137.88C261.703 137.88 258.823 139.107 256.743 141.56C254.663 143.96 253.622 147.827 253.622 153.16C253.622 155.347 253.783 157.373 254.103 159.24C254.476 161.107 255.063 162.707 255.863 164.04C256.663 165.373 257.703 166.44 258.983 167.24C260.316 167.987 261.916 168.36 263.783 168.36ZM293.629 133H300.029V173H293.629V133ZM292.269 120.84C292.269 119.613 292.669 118.573 293.469 117.72C294.323 116.813 295.389 116.36 296.669 116.36C297.949 116.36 299.043 116.813 299.949 117.72C300.856 118.573 301.309 119.613 301.309 120.84C301.309 122.067 300.856 123.08 299.949 123.88C299.043 124.68 297.949 125.08 296.669 125.08C295.389 125.08 294.323 124.68 293.469 123.88C292.669 123.08 292.269 122.067 292.269 120.84ZM339.356 173V150.2C339.356 146.04 338.742 142.92 337.516 140.84C336.342 138.707 334.156 137.64 330.956 137.64C328.129 137.64 325.782 138.413 323.916 139.96C322.102 141.453 320.822 143.347 320.076 145.64V173H313.676V133H318.156L319.356 137.88H319.676C320.956 136.173 322.662 134.787 324.796 133.72C326.982 132.6 329.569 132.04 332.556 132.04C334.742 132.04 336.662 132.307 338.316 132.84C339.969 133.32 341.329 134.2 342.396 135.48C343.516 136.76 344.342 138.493 344.876 140.68C345.462 142.813 345.756 145.533 345.756 148.84V173H339.356ZM388.066 174.84C388.066 180.013 386.679 183.827 383.906 186.28C381.186 188.733 377.132 189.96 371.746 189.96C368.546 189.96 365.959 189.747 363.986 189.32C362.066 188.947 360.412 188.44 359.026 187.8L360.706 182.36C361.932 182.84 363.292 183.293 364.786 183.72C366.279 184.147 368.226 184.36 370.626 184.36C372.866 184.36 374.679 184.147 376.066 183.72C377.506 183.347 378.652 182.68 379.506 181.72C380.359 180.813 380.946 179.613 381.266 178.12C381.586 176.68 381.746 174.947 381.746 172.92V169.08H381.426C380.359 170.627 378.999 171.827 377.346 172.68C375.692 173.48 373.532 173.88 370.866 173.88C365.479 173.88 361.506 172.2 358.946 168.84C356.439 165.48 355.186 160.253 355.186 153.16C355.186 146.333 356.812 141.16 360.066 137.64C363.319 134.067 368.119 132.28 374.466 132.28C377.506 132.28 380.092 132.52 382.226 133C384.412 133.48 386.359 134.04 388.066 134.68V174.84ZM371.986 168.28C374.706 168.28 376.839 167.613 378.386 166.28C379.932 164.893 381.026 162.76 381.666 159.88V139.4C379.532 138.387 376.812 137.88 373.506 137.88C369.879 137.88 367.026 139.107 364.946 141.56C362.866 144.013 361.826 147.853 361.826 153.08C361.826 155.32 362.012 157.373 362.386 159.24C362.759 161.107 363.346 162.707 364.146 164.04C364.946 165.373 365.986 166.413 367.266 167.16C368.546 167.907 370.119 168.28 371.986 168.28ZM424.203 167.08H435.403V128.36L436.203 123.64L433.003 127.4L424.203 133.72L421.163 129.64L438.763 116.04H441.643V167.08H452.603V173H424.203V167.08ZM478.798 147H498.158V152.92H478.798V147ZM523.268 159.64C523.268 156.28 524.148 153.373 525.908 150.92C527.668 148.413 530.415 146.147 534.148 144.12C532.815 143.32 531.561 142.493 530.388 141.64C529.268 140.733 528.255 139.72 527.348 138.6C526.495 137.48 525.801 136.227 525.268 134.84C524.788 133.453 524.548 131.853 524.548 130.04C524.548 127.96 524.895 126.067 525.588 124.36C526.335 122.653 527.375 121.187 528.708 119.96C530.095 118.733 531.721 117.773 533.588 117.08C535.508 116.387 537.668 116.04 540.068 116.04C542.308 116.04 544.335 116.36 546.148 117C547.961 117.64 549.481 118.52 550.708 119.64C551.988 120.76 552.975 122.093 553.668 123.64C554.361 125.187 554.708 126.893 554.708 128.76C554.708 131.8 554.015 134.493 552.628 136.84C551.241 139.133 548.948 141.4 545.748 143.64C547.135 144.44 548.441 145.32 549.668 146.28C550.948 147.24 552.041 148.307 552.948 149.48C553.908 150.653 554.655 151.987 555.188 153.48C555.721 154.92 555.988 156.573 555.988 158.44C555.988 160.733 555.615 162.84 554.868 164.76C554.121 166.627 553.028 168.253 551.588 169.64C550.148 170.973 548.388 172.04 546.308 172.84C544.228 173.587 541.855 173.96 539.188 173.96C536.628 173.96 534.361 173.587 532.388 172.84C530.415 172.093 528.735 171.08 527.348 169.8C526.015 168.52 525.001 167.027 524.308 165.32C523.615 163.56 523.268 161.667 523.268 159.64ZM549.748 158.84C549.748 157.24 549.428 155.853 548.788 154.68C548.148 153.453 547.295 152.36 546.228 151.4C545.215 150.387 544.041 149.48 542.708 148.68C541.375 147.88 539.988 147.107 538.548 146.36C535.295 148.173 532.975 150.2 531.588 152.44C530.201 154.68 529.508 156.813 529.508 158.84C529.508 160.12 529.721 161.347 530.148 162.52C530.575 163.693 531.215 164.707 532.068 165.56C532.921 166.413 533.961 167.107 535.188 167.64C536.468 168.12 537.935 168.36 539.588 168.36C540.921 168.36 542.201 168.173 543.428 167.8C544.655 167.373 545.721 166.787 546.628 166.04C547.588 165.24 548.335 164.253 548.868 163.08C549.455 161.853 549.748 160.44 549.748 158.84ZM530.788 129.88C530.788 131.373 531.081 132.707 531.668 133.88C532.255 135 533.028 136.013 533.988 136.92C535.001 137.827 536.148 138.68 537.428 139.48C538.708 140.227 540.041 140.947 541.428 141.64C543.828 139.773 545.588 137.933 546.708 136.12C547.881 134.307 548.468 132.307 548.468 130.12C548.468 127.4 547.615 125.32 545.908 123.88C544.255 122.387 542.255 121.64 539.908 121.64C538.468 121.64 537.188 121.88 536.068 122.36C534.948 122.84 533.988 123.453 533.188 124.2C532.388 124.947 531.775 125.827 531.348 126.84C530.975 127.8 530.788 128.813 530.788 129.88ZM564.862 145C564.862 135.4 566.409 128.173 569.502 123.32C572.649 118.467 577.209 116.04 583.182 116.04C589.635 116.04 594.302 118.44 597.182 123.24C600.115 127.987 601.582 135.24 601.582 145C601.582 154.6 600.009 161.827 596.862 166.68C593.769 171.533 589.209 173.96 583.182 173.96C576.835 173.96 572.195 171.427 569.262 166.36C566.329 161.293 564.862 154.173 564.862 145ZM571.502 145C571.502 148.467 571.715 151.64 572.142 154.52C572.622 157.347 573.342 159.8 574.302 161.88C575.262 163.907 576.462 165.507 577.902 166.68C579.395 167.8 581.155 168.36 583.182 168.36C587.235 168.36 590.195 166.493 592.062 162.76C593.982 158.973 594.942 153.053 594.942 145C594.942 141.587 594.729 138.44 594.302 135.56C593.929 132.68 593.262 130.2 592.302 128.12C591.395 126.04 590.195 124.44 588.702 123.32C587.209 122.2 585.369 121.64 583.182 121.64C579.182 121.64 576.222 123.533 574.302 127.32C572.435 131.107 571.502 137 571.502 145Z" fill="black"/>
<path d="M139.24 235.74H119.08V255H114.1V213H119.08V231.3H139.24V213H144.22V255H139.24V235.74ZM175.833 252.6C174.633 253.56 173.113 254.32 171.273 254.88C169.473 255.44 167.553 255.72 165.513 255.72C163.233 255.72 161.253 255.36 159.573 254.64C157.893 253.88 156.513 252.82 155.433 251.46C154.353 250.06 153.553 248.4 153.033 246.48C152.513 244.56 152.253 242.4 152.253 240C152.253 234.88 153.393 230.98 155.673 228.3C157.953 225.62 161.213 224.28 165.453 224.28C166.813 224.28 168.173 224.44 169.533 224.76C170.893 225.04 172.113 225.6 173.193 226.44C174.273 227.28 175.153 228.48 175.833 230.04C176.513 231.56 176.853 233.58 176.853 236.1C176.853 237.42 176.733 238.88 176.493 240.48H157.232C157.232 242.24 157.413 243.8 157.773 245.16C158.133 246.52 158.693 247.68 159.453 248.64C160.213 249.56 161.193 250.28 162.393 250.8C163.633 251.28 165.133 251.52 166.893 251.52C168.253 251.52 169.613 251.28 170.973 250.8C172.333 250.32 173.353 249.76 174.033 249.12L175.833 252.6ZM165.513 228.48C163.153 228.48 161.253 229.1 159.813 230.34C158.413 231.58 157.573 233.7 157.293 236.7H172.173C172.173 233.66 171.593 231.54 170.433 230.34C169.273 229.1 167.633 228.48 165.513 228.48ZM183.921 227.22C185.441 226.3 187.201 225.62 189.201 225.18C191.241 224.74 193.361 224.52 195.561 224.52C197.641 224.52 199.301 224.8 200.541 225.36C201.821 225.92 202.781 226.66 203.421 227.58C204.101 228.46 204.541 229.44 204.741 230.52C204.981 231.6 205.101 232.68 205.101 233.76C205.101 236.16 205.041 238.5 204.921 240.78C204.801 243.06 204.741 245.22 204.741 247.26C204.741 248.74 204.801 250.14 204.921 251.46C205.041 252.78 205.261 254 205.581 255.12H202.041L200.781 250.92H200.481C200.121 251.48 199.661 252.04 199.101 252.6C198.581 253.12 197.941 253.6 197.181 254.04C196.421 254.44 195.541 254.78 194.541 255.06C193.541 255.34 192.401 255.48 191.121 255.48C189.841 255.48 188.641 255.28 187.521 254.88C186.441 254.48 185.501 253.92 184.701 253.2C183.901 252.44 183.261 251.54 182.781 250.5C182.341 249.46 182.121 248.28 182.121 246.96C182.121 245.2 182.481 243.74 183.201 242.58C183.921 241.38 184.921 240.44 186.201 239.76C187.521 239.04 189.081 238.54 190.881 238.26C192.721 237.94 194.741 237.78 196.941 237.78C197.501 237.78 198.041 237.78 198.561 237.78C199.121 237.78 199.681 237.82 200.241 237.9C200.361 236.7 200.421 235.62 200.421 234.66C200.421 232.46 199.981 230.92 199.101 230.04C198.221 229.16 196.621 228.72 194.301 228.72C193.621 228.72 192.881 228.78 192.081 228.9C191.321 228.98 190.521 229.12 189.681 229.32C188.881 229.48 188.101 229.7 187.341 229.98C186.621 230.22 185.981 230.5 185.421 230.82L183.921 227.22ZM192.441 251.28C193.561 251.28 194.561 251.14 195.441 250.86C196.321 250.54 197.081 250.16 197.721 249.72C198.361 249.24 198.881 248.72 199.281 248.16C199.721 247.6 200.041 247.06 200.241 246.54V241.56C199.681 241.52 199.101 241.5 198.501 241.5C197.941 241.46 197.381 241.44 196.821 241.44C195.581 241.44 194.361 241.52 193.161 241.68C192.001 241.8 190.961 242.06 190.041 242.46C189.161 242.82 188.441 243.34 187.881 244.02C187.361 244.66 187.101 245.48 187.101 246.48C187.101 247.88 187.601 249.04 188.601 249.96C189.601 250.84 190.881 251.28 192.441 251.28ZM237.207 244.68C237.207 246.72 237.227 248.58 237.267 250.26C237.307 251.9 237.487 253.52 237.807 255.12H234.567L233.367 250.86H233.127C232.327 252.26 231.167 253.42 229.647 254.34C228.127 255.26 226.347 255.72 224.307 255.72C220.307 255.72 217.327 254.46 215.367 251.94C213.447 249.42 212.487 245.48 212.487 240.12C212.487 235 213.687 231.12 216.087 228.48C218.527 225.8 221.867 224.46 226.107 224.46C227.587 224.46 228.747 224.54 229.587 224.7C230.467 224.86 231.407 225.12 232.407 225.48V213H237.207V244.68ZM225.087 251.52C227.127 251.52 228.747 251 229.947 249.96C231.147 248.88 231.967 247.26 232.407 245.1V230.22C231.687 229.66 230.867 229.26 229.947 229.02C229.027 228.78 227.807 228.66 226.287 228.66C223.527 228.66 221.367 229.58 219.807 231.42C218.247 233.22 217.467 236.12 217.467 240.12C217.467 241.76 217.587 243.28 217.827 244.68C218.107 246.08 218.547 247.28 219.147 248.28C219.747 249.28 220.527 250.08 221.487 250.68C222.487 251.24 223.687 251.52 225.087 251.52ZM247.472 225H252.272V255H247.472V225ZM246.452 215.88C246.452 214.96 246.752 214.18 247.352 213.54C247.992 212.86 248.792 212.52 249.752 212.52C250.712 212.52 251.532 212.86 252.212 213.54C252.892 214.18 253.232 214.96 253.232 215.88C253.232 216.8 252.892 217.56 252.212 218.16C251.532 218.76 250.712 219.06 249.752 219.06C248.792 219.06 247.992 218.76 247.352 218.16C246.752 217.56 246.452 216.8 246.452 215.88ZM281.767 255V237.9C281.767 234.78 281.307 232.44 280.387 230.88C279.507 229.28 277.867 228.48 275.467 228.48C273.347 228.48 271.587 229.06 270.187 230.22C268.827 231.34 267.867 232.76 267.307 234.48V255H262.507V225H265.867L266.767 228.66H267.007C267.967 227.38 269.247 226.34 270.847 225.54C272.487 224.7 274.427 224.28 276.667 224.28C278.307 224.28 279.747 224.48 280.987 224.88C282.227 225.24 283.247 225.9 284.047 226.86C284.887 227.82 285.507 229.12 285.907 230.76C286.347 232.36 286.567 234.4 286.567 236.88V255H281.767ZM318.299 256.38C318.299 260.26 317.259 263.12 315.179 264.96C313.139 266.8 310.099 267.72 306.059 267.72C303.659 267.72 301.719 267.56 300.239 267.24C298.799 266.96 297.559 266.58 296.519 266.1L297.779 262.02C298.699 262.38 299.719 262.72 300.839 263.04C301.959 263.36 303.419 263.52 305.219 263.52C306.899 263.52 308.259 263.36 309.299 263.04C310.379 262.76 311.239 262.26 311.879 261.54C312.519 260.86 312.959 259.96 313.199 258.84C313.439 257.76 313.559 256.46 313.559 254.94V252.06H313.319C312.519 253.22 311.499 254.12 310.259 254.76C309.019 255.36 307.399 255.66 305.399 255.66C301.359 255.66 298.379 254.4 296.459 251.88C294.579 249.36 293.639 245.44 293.639 240.12C293.639 235 294.859 231.12 297.299 228.48C299.739 225.8 303.339 224.46 308.099 224.46C310.379 224.46 312.319 224.64 313.919 225C315.559 225.36 317.019 225.78 318.299 226.26V256.38ZM306.239 251.46C308.279 251.46 309.879 250.96 311.039 249.96C312.199 248.92 313.019 247.32 313.499 245.16V229.8C311.899 229.04 309.859 228.66 307.379 228.66C304.659 228.66 302.519 229.58 300.959 231.42C299.399 233.26 298.619 236.14 298.619 240.06C298.619 241.74 298.759 243.28 299.039 244.68C299.319 246.08 299.759 247.28 300.359 248.28C300.959 249.28 301.739 250.06 302.699 250.62C303.659 251.18 304.839 251.46 306.239 251.46ZM365.682 222.54C365.682 224.66 365.282 226.84 364.482 229.08C363.722 231.28 362.702 233.5 361.422 235.74C360.182 237.98 358.782 240.18 357.222 242.34C355.662 244.46 354.102 246.48 352.542 248.4L349.602 250.98V251.22L353.442 250.56H366.522V255H342.642V253.26C343.522 252.34 344.582 251.2 345.822 249.84C347.062 248.48 348.342 246.98 349.662 245.34C351.022 243.66 352.342 241.9 353.622 240.06C354.942 238.18 356.122 236.28 357.162 234.36C358.242 232.44 359.102 230.54 359.742 228.66C360.382 226.78 360.702 225 360.702 223.32C360.702 221.36 360.142 219.74 359.022 218.46C357.902 217.14 356.202 216.48 353.922 216.48C352.402 216.48 350.922 216.8 349.482 217.44C348.042 218.04 346.802 218.74 345.762 219.54L343.782 216.12C345.182 214.92 346.842 213.98 348.762 213.3C350.682 212.62 352.742 212.28 354.942 212.28C356.662 212.28 358.182 212.54 359.502 213.06C360.822 213.54 361.942 214.24 362.862 215.16C363.782 216.08 364.482 217.18 364.962 218.46C365.442 219.7 365.682 221.06 365.682 222.54ZM386.349 235.5H400.869V239.94H386.349V235.5ZM445.141 242.34C445.141 244.18 444.861 245.92 444.301 247.56C443.741 249.16 442.921 250.58 441.841 251.82C440.761 253.02 439.421 253.98 437.821 254.7C436.221 255.38 434.401 255.72 432.361 255.72C430.361 255.72 428.561 255.4 426.961 254.76C425.361 254.12 423.981 253.18 422.821 251.94C421.661 250.66 420.761 249.1 420.121 247.26C419.521 245.42 419.221 243.3 419.221 240.9C419.221 236.94 419.721 233.3 420.721 229.98C421.761 226.62 423.181 223.7 424.981 221.22C426.781 218.74 428.901 216.74 431.341 215.22C433.821 213.66 436.501 212.68 439.381 212.28L440.401 216.12C438.161 216.52 436.121 217.28 434.281 218.4C432.441 219.52 430.821 220.9 429.421 222.54C428.061 224.18 426.941 226.02 426.061 228.06C425.181 230.1 424.581 232.2 424.261 234.36C424.901 233.28 425.981 232.3 427.501 231.42C429.021 230.5 430.881 230.04 433.081 230.04C436.841 230.04 439.781 231.12 441.901 233.28C444.061 235.44 445.141 238.46 445.141 242.34ZM440.161 242.82C440.161 239.98 439.501 237.84 438.181 236.4C436.861 234.96 434.821 234.24 432.061 234.24C430.101 234.24 428.401 234.72 426.961 235.68C425.561 236.64 424.581 237.72 424.021 238.92C423.941 239.48 423.901 239.94 423.901 240.3C423.901 240.66 423.901 241.06 423.901 241.5C423.901 242.74 424.061 243.96 424.381 245.16C424.741 246.36 425.281 247.44 426.001 248.4C426.721 249.32 427.601 250.08 428.641 250.68C429.721 251.24 430.981 251.52 432.421 251.52C433.581 251.52 434.621 251.3 435.541 250.86C436.501 250.42 437.321 249.82 438.001 249.06C438.681 248.3 439.201 247.38 439.561 246.3C439.961 245.22 440.161 244.06 440.161 242.82ZM450.896 234C450.896 226.8 452.056 221.38 454.376 217.74C456.736 214.1 460.156 212.28 464.636 212.28C469.476 212.28 472.976 214.08 475.136 217.68C477.336 221.24 478.436 226.68 478.436 234C478.436 241.2 477.256 246.62 474.896 250.26C472.576 253.9 469.156 255.72 464.636 255.72C459.876 255.72 456.396 253.82 454.196 250.02C451.996 246.22 450.896 240.88 450.896 234ZM455.876 234C455.876 236.6 456.036 238.98 456.356 241.14C456.716 243.26 457.256 245.1 457.976 246.66C458.696 248.18 459.596 249.38 460.676 250.26C461.796 251.1 463.116 251.52 464.636 251.52C467.676 251.52 469.896 250.12 471.296 247.32C472.736 244.48 473.456 240.04 473.456 234C473.456 231.44 473.296 229.08 472.976 226.92C472.696 224.76 472.196 222.9 471.476 221.34C470.796 219.78 469.896 218.58 468.776 217.74C467.656 216.9 466.276 216.48 464.636 216.48C461.636 216.48 459.416 217.9 457.976 220.74C456.576 223.58 455.876 228 455.876 234Z" fill="black"/>
<path d="M129.16 302.16H115.72V315H112.4V287H115.72V299.2H129.16V287H132.48V315H129.16V302.16ZM153.555 313.4C152.755 314.04 151.742 314.547 150.515 314.92C149.315 315.293 148.035 315.48 146.675 315.48C145.155 315.48 143.835 315.24 142.715 314.76C141.595 314.253 140.675 313.547 139.955 312.64C139.235 311.707 138.702 310.6 138.355 309.32C138.008 308.04 137.835 306.6 137.835 305C137.835 301.587 138.595 298.987 140.115 297.2C141.635 295.413 143.808 294.52 146.635 294.52C147.542 294.52 148.448 294.627 149.355 294.84C150.262 295.027 151.075 295.4 151.795 295.96C152.515 296.52 153.102 297.32 153.555 298.36C154.008 299.373 154.235 300.72 154.235 302.4C154.235 303.28 154.155 304.253 153.995 305.32H141.155C141.155 306.493 141.275 307.533 141.515 308.44C141.755 309.347 142.128 310.12 142.635 310.76C143.142 311.373 143.795 311.853 144.595 312.2C145.422 312.52 146.422 312.68 147.595 312.68C148.502 312.68 149.408 312.52 150.315 312.2C151.222 311.88 151.902 311.507 152.355 311.08L153.555 313.4ZM146.675 297.32C145.102 297.32 143.835 297.733 142.875 298.56C141.942 299.387 141.382 300.8 141.195 302.8H151.115C151.115 300.773 150.728 299.36 149.955 298.56C149.182 297.733 148.088 297.32 146.675 297.32ZM158.948 296.48C159.961 295.867 161.134 295.413 162.468 295.12C163.828 294.827 165.241 294.68 166.708 294.68C168.094 294.68 169.201 294.867 170.028 295.24C170.881 295.613 171.521 296.107 171.948 296.72C172.401 297.307 172.694 297.96 172.828 298.68C172.988 299.4 173.068 300.12 173.068 300.84C173.068 302.44 173.028 304 172.948 305.52C172.868 307.04 172.828 308.48 172.828 309.84C172.828 310.827 172.868 311.76 172.948 312.64C173.028 313.52 173.174 314.333 173.388 315.08H171.028L170.188 312.28H169.988C169.748 312.653 169.441 313.027 169.068 313.4C168.721 313.747 168.294 314.067 167.788 314.36C167.281 314.627 166.694 314.853 166.028 315.04C165.361 315.227 164.601 315.32 163.748 315.32C162.894 315.32 162.094 315.187 161.348 314.92C160.628 314.653 160.001 314.28 159.468 313.8C158.934 313.293 158.508 312.693 158.188 312C157.894 311.307 157.748 310.52 157.748 309.64C157.748 308.467 157.988 307.493 158.468 306.72C158.948 305.92 159.614 305.293 160.468 304.84C161.348 304.36 162.388 304.027 163.588 303.84C164.814 303.627 166.161 303.52 167.628 303.52C168.001 303.52 168.361 303.52 168.708 303.52C169.081 303.52 169.454 303.547 169.828 303.6C169.908 302.8 169.948 302.08 169.948 301.44C169.948 299.973 169.654 298.947 169.068 298.36C168.481 297.773 167.414 297.48 165.868 297.48C165.414 297.48 164.921 297.52 164.388 297.6C163.881 297.653 163.348 297.747 162.788 297.88C162.254 297.987 161.734 298.133 161.228 298.32C160.748 298.48 160.321 298.667 159.948 298.88L158.948 296.48ZM164.628 312.52C165.374 312.52 166.041 312.427 166.628 312.24C167.214 312.027 167.721 311.773 168.148 311.48C168.574 311.16 168.921 310.813 169.188 310.44C169.481 310.067 169.694 309.707 169.828 309.36V306.04C169.454 306.013 169.068 306 168.668 306C168.294 305.973 167.921 305.96 167.548 305.96C166.721 305.96 165.908 306.013 165.108 306.12C164.334 306.2 163.641 306.373 163.028 306.64C162.441 306.88 161.961 307.227 161.588 307.68C161.241 308.107 161.068 308.653 161.068 309.32C161.068 310.253 161.401 311.027 162.067 311.64C162.734 312.227 163.588 312.52 164.628 312.52ZM194.471 308.12C194.471 309.48 194.485 310.72 194.511 311.84C194.538 312.933 194.658 314.013 194.871 315.08H192.711L191.911 312.24H191.751C191.218 313.173 190.445 313.947 189.431 314.56C188.418 315.173 187.231 315.48 185.871 315.48C183.205 315.48 181.218 314.64 179.911 312.96C178.631 311.28 177.991 308.653 177.991 305.08C177.991 301.667 178.791 299.08 180.391 297.32C182.018 295.533 184.245 294.64 187.071 294.64C188.058 294.64 188.831 294.693 189.391 294.8C189.978 294.907 190.605 295.08 191.271 295.32V287H194.471V308.12ZM186.391 312.68C187.751 312.68 188.831 312.333 189.631 311.64C190.431 310.92 190.978 309.84 191.271 308.4V298.48C190.791 298.107 190.245 297.84 189.631 297.68C189.018 297.52 188.205 297.44 187.191 297.44C185.351 297.44 183.911 298.053 182.871 299.28C181.831 300.48 181.311 302.413 181.311 305.08C181.311 306.173 181.391 307.187 181.551 308.12C181.738 309.053 182.031 309.853 182.431 310.52C182.831 311.187 183.351 311.72 183.991 312.12C184.658 312.493 185.458 312.68 186.391 312.68ZM201.315 295H204.515V315H201.315V295ZM200.635 288.92C200.635 288.307 200.835 287.787 201.235 287.36C201.661 286.907 202.195 286.68 202.835 286.68C203.475 286.68 204.021 286.907 204.475 287.36C204.928 287.787 205.155 288.307 205.155 288.92C205.155 289.533 204.928 290.04 204.475 290.44C204.021 290.84 203.475 291.04 202.835 291.04C202.195 291.04 201.661 290.84 201.235 290.44C200.835 290.04 200.635 289.533 200.635 288.92ZM224.178 315V303.6C224.178 301.52 223.871 299.96 223.258 298.92C222.671 297.853 221.578 297.32 219.978 297.32C218.564 297.32 217.391 297.707 216.458 298.48C215.551 299.227 214.911 300.173 214.538 301.32V315H211.338V295H213.578L214.178 297.44H214.338C214.978 296.587 215.831 295.893 216.898 295.36C217.991 294.8 219.284 294.52 220.778 294.52C221.871 294.52 222.831 294.653 223.658 294.92C224.484 295.16 225.164 295.6 225.698 296.24C226.258 296.88 226.671 297.747 226.938 298.84C227.231 299.907 227.378 301.267 227.378 302.92V315H224.178ZM248.533 315.92C248.533 318.507 247.839 320.413 246.453 321.64C245.093 322.867 243.066 323.48 240.373 323.48C238.773 323.48 237.479 323.373 236.493 323.16C235.533 322.973 234.706 322.72 234.013 322.4L234.853 319.68C235.466 319.92 236.146 320.147 236.893 320.36C237.639 320.573 238.613 320.68 239.813 320.68C240.933 320.68 241.839 320.573 242.533 320.36C243.253 320.173 243.826 319.84 244.253 319.36C244.679 318.907 244.973 318.307 245.133 317.56C245.293 316.84 245.373 315.973 245.373 314.96V313.04H245.213C244.679 313.813 243.999 314.413 243.173 314.84C242.346 315.24 241.266 315.44 239.933 315.44C237.239 315.44 235.253 314.6 233.973 312.92C232.719 311.24 232.093 308.627 232.093 305.08C232.093 301.667 232.906 299.08 234.533 297.32C236.159 295.533 238.559 294.64 241.733 294.64C243.253 294.64 244.546 294.76 245.613 295C246.706 295.24 247.679 295.52 248.533 295.84V315.92ZM240.493 312.64C241.853 312.64 242.919 312.307 243.693 311.64C244.466 310.947 245.013 309.88 245.333 308.44V298.2C244.266 297.693 242.906 297.44 241.253 297.44C239.439 297.44 238.013 298.053 236.973 299.28C235.933 300.507 235.413 302.427 235.413 305.04C235.413 306.16 235.506 307.187 235.693 308.12C235.879 309.053 236.173 309.853 236.573 310.52C236.973 311.187 237.493 311.707 238.133 312.08C238.773 312.453 239.559 312.64 240.493 312.64ZM271.641 312.68C272.548 312.68 273.388 312.547 274.161 312.28C274.935 312.013 275.601 311.627 276.161 311.12C276.721 310.587 277.161 309.96 277.481 309.24C277.801 308.52 277.961 307.733 277.961 306.88C277.961 305.013 277.401 303.627 276.281 302.72C275.188 301.813 273.668 301.36 271.721 301.36H268.761V300.2L274.521 291.32L276.361 289.56L273.761 289.96H265.841V287H280.121V288.16L273.761 297.72L272.361 298.88V298.96L273.721 298.68C274.788 298.707 275.775 298.907 276.681 299.28C277.588 299.627 278.375 300.147 279.041 300.84C279.708 301.507 280.228 302.32 280.601 303.28C280.975 304.213 281.161 305.28 281.161 306.48C281.161 307.92 280.908 309.2 280.401 310.32C279.895 311.44 279.201 312.387 278.321 313.16C277.468 313.907 276.455 314.48 275.281 314.88C274.108 315.28 272.868 315.48 271.561 315.48C270.361 315.48 269.281 315.387 268.321 315.2C267.361 315.013 266.521 314.773 265.801 314.48L266.641 311.64C267.255 311.933 267.975 312.187 268.801 312.4C269.655 312.587 270.601 312.68 271.641 312.68ZM293.899 302H303.579V304.96H293.899V302ZM334.374 306.4H329.654V315H326.534V306.4H314.214V305.08L327.494 286.56H329.654V303.6H334.374V306.4ZM326.534 294.88L326.934 291.6H326.814L325.414 294.32L319.774 301.96L317.854 303.92L320.654 303.6H326.534V294.88ZM336.931 301C336.931 296.2 337.704 292.587 339.251 290.16C340.824 287.733 343.104 286.52 346.091 286.52C349.318 286.52 351.651 287.72 353.091 290.12C354.558 292.493 355.291 296.12 355.291 301C355.291 305.8 354.504 309.413 352.931 311.84C351.384 314.267 349.104 315.48 346.091 315.48C342.918 315.48 340.598 314.213 339.131 311.68C337.664 309.147 336.931 305.587 336.931 301ZM340.251 301C340.251 302.733 340.358 304.32 340.571 305.76C340.811 307.173 341.171 308.4 341.651 309.44C342.131 310.453 342.731 311.253 343.451 311.84C344.198 312.4 345.078 312.68 346.091 312.68C348.118 312.68 349.598 311.747 350.531 309.88C351.491 307.987 351.971 305.027 351.971 301C351.971 299.293 351.864 297.72 351.651 296.28C351.464 294.84 351.131 293.6 350.651 292.56C350.198 291.52 349.598 290.72 348.851 290.16C348.104 289.6 347.184 289.32 346.091 289.32C344.091 289.32 342.611 290.267 341.651 292.16C340.718 294.053 340.251 297 340.251 301Z" fill="black"/>
<path d="M126.64 355.765H114.88V367H111.975V342.5H114.88V353.175H126.64V342.5H129.545V367H126.64V355.765ZM147.986 365.6C147.286 366.16 146.399 366.603 145.326 366.93C144.276 367.257 143.156 367.42 141.966 367.42C140.636 367.42 139.481 367.21 138.501 366.79C137.521 366.347 136.716 365.728 136.086 364.935C135.456 364.118 134.989 363.15 134.686 362.03C134.382 360.91 134.231 359.65 134.231 358.25C134.231 355.263 134.896 352.988 136.226 351.425C137.556 349.862 139.457 349.08 141.931 349.08C142.724 349.08 143.517 349.173 144.311 349.36C145.104 349.523 145.816 349.85 146.446 350.34C147.076 350.83 147.589 351.53 147.986 352.44C148.382 353.327 148.581 354.505 148.581 355.975C148.581 356.745 148.511 357.597 148.371 358.53H137.136C137.136 359.557 137.241 360.467 137.451 361.26C137.661 362.053 137.987 362.73 138.431 363.29C138.874 363.827 139.446 364.247 140.146 364.55C140.869 364.83 141.744 364.97 142.771 364.97C143.564 364.97 144.357 364.83 145.151 364.55C145.944 364.27 146.539 363.943 146.936 363.57L147.986 365.6ZM141.966 351.53C140.589 351.53 139.481 351.892 138.641 352.615C137.824 353.338 137.334 354.575 137.171 356.325H145.851C145.851 354.552 145.512 353.315 144.836 352.615C144.159 351.892 143.202 351.53 141.966 351.53ZM152.704 350.795C153.591 350.258 154.617 349.862 155.784 349.605C156.974 349.348 158.211 349.22 159.494 349.22C160.707 349.22 161.676 349.383 162.399 349.71C163.146 350.037 163.706 350.468 164.079 351.005C164.476 351.518 164.732 352.09 164.849 352.72C164.989 353.35 165.059 353.98 165.059 354.61C165.059 356.01 165.024 357.375 164.954 358.705C164.884 360.035 164.849 361.295 164.849 362.485C164.849 363.348 164.884 364.165 164.954 364.935C165.024 365.705 165.152 366.417 165.339 367.07H163.274L162.539 364.62H162.364C162.154 364.947 161.886 365.273 161.559 365.6C161.256 365.903 160.882 366.183 160.439 366.44C159.996 366.673 159.482 366.872 158.899 367.035C158.316 367.198 157.651 367.28 156.904 367.28C156.157 367.28 155.457 367.163 154.804 366.93C154.174 366.697 153.626 366.37 153.159 365.95C152.692 365.507 152.319 364.982 152.039 364.375C151.782 363.768 151.654 363.08 151.654 362.31C151.654 361.283 151.864 360.432 152.284 359.755C152.704 359.055 153.287 358.507 154.034 358.11C154.804 357.69 155.714 357.398 156.764 357.235C157.837 357.048 159.016 356.955 160.299 356.955C160.626 356.955 160.941 356.955 161.244 356.955C161.571 356.955 161.897 356.978 162.224 357.025C162.294 356.325 162.329 355.695 162.329 355.135C162.329 353.852 162.072 352.953 161.559 352.44C161.046 351.927 160.112 351.67 158.759 351.67C158.362 351.67 157.931 351.705 157.464 351.775C157.021 351.822 156.554 351.903 156.064 352.02C155.597 352.113 155.142 352.242 154.699 352.405C154.279 352.545 153.906 352.708 153.579 352.895L152.704 350.795ZM157.674 364.83C158.327 364.83 158.911 364.748 159.424 364.585C159.937 364.398 160.381 364.177 160.754 363.92C161.127 363.64 161.431 363.337 161.664 363.01C161.921 362.683 162.107 362.368 162.224 362.065V359.16C161.897 359.137 161.559 359.125 161.209 359.125C160.882 359.102 160.556 359.09 160.229 359.09C159.506 359.09 158.794 359.137 158.094 359.23C157.417 359.3 156.811 359.452 156.274 359.685C155.761 359.895 155.341 360.198 155.014 360.595C154.711 360.968 154.559 361.447 154.559 362.03C154.559 362.847 154.851 363.523 155.434 364.06C156.017 364.573 156.764 364.83 157.674 364.83ZM183.787 360.98C183.787 362.17 183.799 363.255 183.822 364.235C183.846 365.192 183.951 366.137 184.137 367.07H182.247L181.547 364.585H181.407C180.941 365.402 180.264 366.078 179.377 366.615C178.491 367.152 177.452 367.42 176.262 367.42C173.929 367.42 172.191 366.685 171.047 365.215C169.927 363.745 169.367 361.447 169.367 358.32C169.367 355.333 170.067 353.07 171.467 351.53C172.891 349.967 174.839 349.185 177.312 349.185C178.176 349.185 178.852 349.232 179.342 349.325C179.856 349.418 180.404 349.57 180.987 349.78V342.5H183.787V360.98ZM176.717 364.97C177.907 364.97 178.852 364.667 179.552 364.06C180.252 363.43 180.731 362.485 180.987 361.225V352.545C180.567 352.218 180.089 351.985 179.552 351.845C179.016 351.705 178.304 351.635 177.417 351.635C175.807 351.635 174.547 352.172 173.637 353.245C172.727 354.295 172.272 355.987 172.272 358.32C172.272 359.277 172.342 360.163 172.482 360.98C172.646 361.797 172.902 362.497 173.252 363.08C173.602 363.663 174.057 364.13 174.617 364.48C175.201 364.807 175.901 364.97 176.717 364.97ZM189.775 349.5H192.575V367H189.775V349.5ZM189.18 344.18C189.18 343.643 189.355 343.188 189.705 342.815C190.079 342.418 190.545 342.22 191.105 342.22C191.665 342.22 192.144 342.418 192.54 342.815C192.937 343.188 193.135 343.643 193.135 344.18C193.135 344.717 192.937 345.16 192.54 345.51C192.144 345.86 191.665 346.035 191.105 346.035C190.545 346.035 190.079 345.86 189.705 345.51C189.355 345.16 189.18 344.717 189.18 344.18ZM209.781 367V357.025C209.781 355.205 209.512 353.84 208.976 352.93C208.462 351.997 207.506 351.53 206.106 351.53C204.869 351.53 203.842 351.868 203.026 352.545C202.232 353.198 201.672 354.027 201.346 355.03V367H198.546V349.5H200.506L201.031 351.635H201.171C201.731 350.888 202.477 350.282 203.411 349.815C204.367 349.325 205.499 349.08 206.806 349.08C207.762 349.08 208.602 349.197 209.326 349.43C210.049 349.64 210.644 350.025 211.111 350.585C211.601 351.145 211.962 351.903 212.196 352.86C212.452 353.793 212.581 354.983 212.581 356.43V367H209.781ZM231.091 367.805C231.091 370.068 230.485 371.737 229.271 372.81C228.081 373.883 226.308 374.42 223.951 374.42C222.551 374.42 221.42 374.327 220.556 374.14C219.716 373.977 218.993 373.755 218.386 373.475L219.121 371.095C219.658 371.305 220.253 371.503 220.906 371.69C221.56 371.877 222.411 371.97 223.461 371.97C224.441 371.97 225.235 371.877 225.841 371.69C226.471 371.527 226.973 371.235 227.346 370.815C227.72 370.418 227.976 369.893 228.116 369.24C228.256 368.61 228.326 367.852 228.326 366.965V365.285H228.186C227.72 365.962 227.125 366.487 226.401 366.86C225.678 367.21 224.733 367.385 223.566 367.385C221.21 367.385 219.471 366.65 218.351 365.18C217.255 363.71 216.706 361.423 216.706 358.32C216.706 355.333 217.418 353.07 218.841 351.53C220.265 349.967 222.365 349.185 225.141 349.185C226.471 349.185 227.603 349.29 228.536 349.5C229.493 349.71 230.345 349.955 231.091 350.235V367.805ZM224.056 364.935C225.246 364.935 226.18 364.643 226.856 364.06C227.533 363.453 228.011 362.52 228.291 361.26V352.3C227.358 351.857 226.168 351.635 224.721 351.635C223.135 351.635 221.886 352.172 220.976 353.245C220.066 354.318 219.611 355.998 219.611 358.285C219.611 359.265 219.693 360.163 219.856 360.98C220.02 361.797 220.276 362.497 220.626 363.08C220.976 363.663 221.431 364.118 221.991 364.445C222.551 364.772 223.24 364.935 224.056 364.935ZM261.461 359.475H257.331V367H254.601V359.475H243.821V358.32L255.441 342.115H257.331V357.025H261.461V359.475ZM254.601 349.395L254.951 346.525H254.846L253.621 348.905L248.686 355.59L247.006 357.305L249.456 357.025H254.601V349.395ZM270.787 355.625H279.257V358.215H270.787V355.625ZM296.052 364.97C296.846 364.97 297.581 364.853 298.257 364.62C298.934 364.387 299.517 364.048 300.007 363.605C300.497 363.138 300.882 362.59 301.162 361.96C301.442 361.33 301.582 360.642 301.582 359.895C301.582 358.262 301.092 357.048 300.112 356.255C299.156 355.462 297.826 355.065 296.122 355.065H293.532V354.05L298.572 346.28L300.182 344.74L297.907 345.09H290.977V342.5H303.472V343.515L297.907 351.88L296.682 352.895V352.965L297.872 352.72C298.806 352.743 299.669 352.918 300.462 353.245C301.256 353.548 301.944 354.003 302.527 354.61C303.111 355.193 303.566 355.905 303.892 356.745C304.219 357.562 304.382 358.495 304.382 359.545C304.382 360.805 304.161 361.925 303.717 362.905C303.274 363.885 302.667 364.713 301.897 365.39C301.151 366.043 300.264 366.545 299.237 366.895C298.211 367.245 297.126 367.42 295.982 367.42C294.932 367.42 293.987 367.338 293.147 367.175C292.307 367.012 291.572 366.802 290.942 366.545L291.677 364.06C292.214 364.317 292.844 364.538 293.567 364.725C294.314 364.888 295.142 364.97 296.052 364.97ZM314.39 364.97C316 364.97 317.33 364.503 318.38 363.57C319.43 362.637 319.955 361.283 319.955 359.51C319.955 357.807 319.43 356.535 318.38 355.695C317.353 354.855 315.93 354.435 314.11 354.435L311.17 354.61V342.5H322.09V345.09H313.795V352.055L315.3 351.985C317.61 352.008 319.43 352.65 320.76 353.91C322.09 355.17 322.755 356.978 322.755 359.335C322.755 360.642 322.533 361.808 322.09 362.835C321.646 363.838 321.04 364.678 320.27 365.355C319.523 366.032 318.636 366.545 317.61 366.895C316.583 367.245 315.486 367.42 314.32 367.42C313.27 367.42 312.383 367.362 311.66 367.245C310.936 367.128 310.26 366.953 309.63 366.72L310.365 364.34C310.901 364.55 311.473 364.713 312.08 364.83C312.71 364.923 313.48 364.97 314.39 364.97Z" fill="black"/>
<path d="M124.12 402.37H114.04V412H111.55V391H114.04V400.15H124.12V391H126.61V412H124.12V402.37ZM142.416 410.8C141.816 411.28 141.056 411.66 140.136 411.94C139.236 412.22 138.276 412.36 137.256 412.36C136.116 412.36 135.126 412.18 134.286 411.82C133.446 411.44 132.756 410.91 132.216 410.23C131.676 409.53 131.276 408.7 131.016 407.74C130.756 406.78 130.626 405.7 130.626 404.5C130.626 401.94 131.196 399.99 132.336 398.65C133.476 397.31 135.106 396.64 137.226 396.64C137.906 396.64 138.586 396.72 139.266 396.88C139.946 397.02 140.556 397.3 141.096 397.72C141.636 398.14 142.076 398.74 142.416 399.52C142.756 400.28 142.926 401.29 142.926 402.55C142.926 403.21 142.866 403.94 142.746 404.74H133.116C133.116 405.62 133.206 406.4 133.386 407.08C133.566 407.76 133.846 408.34 134.226 408.82C134.606 409.28 135.096 409.64 135.696 409.9C136.316 410.14 137.066 410.26 137.946 410.26C138.626 410.26 139.306 410.14 139.986 409.9C140.666 409.66 141.176 409.38 141.516 409.06L142.416 410.8ZM137.256 398.74C136.076 398.74 135.126 399.05 134.406 399.67C133.706 400.29 133.286 401.35 133.146 402.85H140.586C140.586 401.33 140.296 400.27 139.716 399.67C139.136 399.05 138.316 398.74 137.256 398.74ZM146.461 398.11C147.221 397.65 148.101 397.31 149.101 397.09C150.121 396.87 151.181 396.76 152.281 396.76C153.321 396.76 154.151 396.9 154.771 397.18C155.411 397.46 155.891 397.83 156.211 398.29C156.551 398.73 156.771 399.22 156.871 399.76C156.991 400.3 157.051 400.84 157.051 401.38C157.051 402.58 157.021 403.75 156.961 404.89C156.901 406.03 156.871 407.11 156.871 408.13C156.871 408.87 156.901 409.57 156.961 410.23C157.021 410.89 157.131 411.5 157.291 412.06H155.521L154.891 409.96H154.741C154.561 410.24 154.331 410.52 154.051 410.8C153.791 411.06 153.471 411.3 153.091 411.52C152.711 411.72 152.271 411.89 151.771 412.03C151.271 412.17 150.701 412.24 150.061 412.24C149.421 412.24 148.821 412.14 148.261 411.94C147.721 411.74 147.251 411.46 146.851 411.1C146.451 410.72 146.131 410.27 145.891 409.75C145.671 409.23 145.561 408.64 145.561 407.98C145.561 407.1 145.741 406.37 146.101 405.79C146.461 405.19 146.961 404.72 147.601 404.38C148.261 404.02 149.041 403.77 149.941 403.63C150.861 403.47 151.871 403.39 152.971 403.39C153.251 403.39 153.521 403.39 153.781 403.39C154.061 403.39 154.341 403.41 154.621 403.45C154.681 402.85 154.711 402.31 154.711 401.83C154.711 400.73 154.491 399.96 154.051 399.52C153.611 399.08 152.811 398.86 151.651 398.86C151.311 398.86 150.941 398.89 150.541 398.95C150.161 398.99 149.761 399.06 149.341 399.16C148.941 399.24 148.551 399.35 148.171 399.49C147.811 399.61 147.491 399.75 147.211 399.91L146.461 398.11ZM150.721 410.14C151.281 410.14 151.781 410.07 152.221 409.93C152.661 409.77 153.041 409.58 153.361 409.36C153.681 409.12 153.941 408.86 154.141 408.58C154.361 408.3 154.521 408.03 154.621 407.77V405.28C154.341 405.26 154.051 405.25 153.751 405.25C153.471 405.23 153.191 405.22 152.911 405.22C152.291 405.22 151.681 405.26 151.081 405.34C150.501 405.4 149.981 405.53 149.521 405.73C149.081 405.91 148.721 406.17 148.441 406.51C148.181 406.83 148.051 407.24 148.051 407.74C148.051 408.44 148.301 409.02 148.801 409.48C149.301 409.92 149.941 410.14 150.721 410.14ZM173.103 406.84C173.103 407.86 173.113 408.79 173.133 409.63C173.153 410.45 173.243 411.26 173.403 412.06H171.783L171.183 409.93H171.063C170.663 410.63 170.083 411.21 169.323 411.67C168.563 412.13 167.673 412.36 166.653 412.36C164.653 412.36 163.163 411.73 162.183 410.47C161.223 409.21 160.743 407.24 160.743 404.56C160.743 402 161.343 400.06 162.543 398.74C163.763 397.4 165.433 396.73 167.553 396.73C168.293 396.73 168.873 396.77 169.293 396.85C169.733 396.93 170.203 397.06 170.703 397.24V391H173.103V406.84ZM167.043 410.26C168.063 410.26 168.873 410 169.473 409.48C170.073 408.94 170.483 408.13 170.703 407.05V399.61C170.343 399.33 169.933 399.13 169.473 399.01C169.013 398.89 168.403 398.83 167.643 398.83C166.263 398.83 165.183 399.29 164.403 400.21C163.623 401.11 163.233 402.56 163.233 404.56C163.233 405.38 163.293 406.14 163.413 406.84C163.553 407.54 163.773 408.14 164.073 408.64C164.373 409.14 164.763 409.54 165.243 409.84C165.743 410.12 166.343 410.26 167.043 410.26ZM178.236 397H180.636V412H178.236V397ZM177.726 392.44C177.726 391.98 177.876 391.59 178.176 391.27C178.496 390.93 178.896 390.76 179.376 390.76C179.856 390.76 180.266 390.93 180.606 391.27C180.946 391.59 181.116 391.98 181.116 392.44C181.116 392.9 180.946 393.28 180.606 393.58C180.266 393.88 179.856 394.03 179.376 394.03C178.896 394.03 178.496 393.88 178.176 393.58C177.876 393.28 177.726 392.9 177.726 392.44ZM195.383 412V403.45C195.383 401.89 195.153 400.72 194.693 399.94C194.253 399.14 193.433 398.74 192.233 398.74C191.173 398.74 190.293 399.03 189.593 399.61C188.913 400.17 188.433 400.88 188.153 401.74V412H185.753V397H187.433L187.883 398.83H188.003C188.483 398.19 189.123 397.67 189.923 397.27C190.743 396.85 191.713 396.64 192.833 396.64C193.653 396.64 194.373 396.74 194.993 396.94C195.613 397.12 196.123 397.45 196.523 397.93C196.943 398.41 197.253 399.06 197.453 399.88C197.673 400.68 197.783 401.7 197.783 402.94V412H195.383ZM213.65 412.69C213.65 414.63 213.13 416.06 212.09 416.98C211.07 417.9 209.55 418.36 207.53 418.36C206.33 418.36 205.36 418.28 204.62 418.12C203.9 417.98 203.28 417.79 202.76 417.55L203.39 415.51C203.85 415.69 204.36 415.86 204.92 416.02C205.48 416.18 206.21 416.26 207.11 416.26C207.95 416.26 208.63 416.18 209.15 416.02C209.69 415.88 210.12 415.63 210.44 415.27C210.76 414.93 210.98 414.48 211.1 413.92C211.22 413.38 211.28 412.73 211.28 411.97V410.53H211.16C210.76 411.11 210.25 411.56 209.63 411.88C209.01 412.18 208.2 412.33 207.2 412.33C205.18 412.33 203.69 411.7 202.73 410.44C201.79 409.18 201.32 407.22 201.32 404.56C201.32 402 201.93 400.06 203.15 398.74C204.37 397.4 206.17 396.73 208.55 396.73C209.69 396.73 210.66 396.82 211.46 397C212.28 397.18 213.01 397.39 213.65 397.63V412.69ZM207.62 410.23C208.64 410.23 209.44 409.98 210.02 409.48C210.6 408.96 211.01 408.16 211.25 407.08V399.4C210.45 399.02 209.43 398.83 208.19 398.83C206.83 398.83 205.76 399.29 204.98 400.21C204.2 401.13 203.81 402.57 203.81 404.53C203.81 405.37 203.88 406.14 204.02 406.84C204.16 407.54 204.38 408.14 204.68 408.64C204.98 409.14 205.37 409.53 205.85 409.81C206.33 410.09 206.92 410.23 207.62 410.23ZM230.351 410.26C231.731 410.26 232.871 409.86 233.771 409.06C234.671 408.26 235.121 407.1 235.121 405.58C235.121 404.12 234.671 403.03 233.771 402.31C232.891 401.59 231.671 401.23 230.111 401.23L227.591 401.38V391H236.951V393.22H229.841V399.19L231.131 399.13C233.111 399.15 234.671 399.7 235.811 400.78C236.951 401.86 237.521 403.41 237.521 405.43C237.521 406.55 237.331 407.55 236.951 408.43C236.571 409.29 236.051 410.01 235.391 410.59C234.751 411.17 233.991 411.61 233.111 411.91C232.231 412.21 231.291 412.36 230.291 412.36C229.391 412.36 228.631 412.31 228.011 412.21C227.391 412.11 226.811 411.96 226.271 411.76L226.901 409.72C227.361 409.9 227.851 410.04 228.371 410.14C228.911 410.22 229.571 410.26 230.351 410.26ZM247.674 402.25H254.934V404.47H247.674V402.25ZM269.331 410.26C270.011 410.26 270.641 410.16 271.221 409.96C271.801 409.76 272.301 409.47 272.721 409.09C273.141 408.69 273.471 408.22 273.711 407.68C273.951 407.14 274.071 406.55 274.071 405.91C274.071 404.51 273.651 403.47 272.811 402.79C271.991 402.11 270.851 401.77 269.391 401.77H267.171V400.9L271.491 394.24L272.871 392.92L270.921 393.22H264.981V391H275.691V391.87L270.921 399.04L269.871 399.91V399.97L270.891 399.76C271.691 399.78 272.431 399.93 273.111 400.21C273.791 400.47 274.381 400.86 274.881 401.38C275.381 401.88 275.771 402.49 276.051 403.21C276.331 403.91 276.471 404.71 276.471 405.61C276.471 406.69 276.281 407.65 275.901 408.49C275.521 409.33 275.001 410.04 274.341 410.62C273.701 411.18 272.941 411.61 272.061 411.91C271.181 412.21 270.251 412.36 269.271 412.36C268.371 412.36 267.561 412.29 266.841 412.15C266.121 412.01 265.491 411.83 264.951 411.61L265.581 409.48C266.041 409.7 266.581 409.89 267.201 410.05C267.841 410.19 268.551 410.26 269.331 410.26ZM279.948 401.5C279.948 397.9 280.528 395.19 281.688 393.37C282.868 391.55 284.578 390.64 286.818 390.64C289.238 390.64 290.988 391.54 292.068 393.34C293.168 395.12 293.718 397.84 293.718 401.5C293.718 405.1 293.128 407.81 291.948 409.63C290.788 411.45 289.078 412.36 286.818 412.36C284.438 412.36 282.698 411.41 281.598 409.51C280.498 407.61 279.948 404.94 279.948 401.5ZM282.438 401.5C282.438 402.8 282.518 403.99 282.678 405.07C282.858 406.13 283.128 407.05 283.488 407.83C283.848 408.59 284.298 409.19 284.838 409.63C285.398 410.05 286.058 410.26 286.818 410.26C288.338 410.26 289.448 409.56 290.148 408.16C290.868 406.74 291.228 404.52 291.228 401.5C291.228 400.22 291.148 399.04 290.988 397.96C290.848 396.88 290.598 395.95 290.238 395.17C289.898 394.39 289.448 393.79 288.888 393.37C288.328 392.95 287.638 392.74 286.818 392.74C285.318 392.74 284.208 393.45 283.488 394.87C282.788 396.29 282.438 398.5 282.438 401.5Z" fill="black"/>
<path d="M121.6 444.975H113.2V453H111.125V435.5H113.2V443.125H121.6V435.5H123.675V453H121.6V444.975ZM136.847 452C136.347 452.4 135.714 452.717 134.947 452.95C134.197 453.183 133.397 453.3 132.547 453.3C131.597 453.3 130.772 453.15 130.072 452.85C129.372 452.533 128.797 452.092 128.347 451.525C127.897 450.942 127.564 450.25 127.347 449.45C127.13 448.65 127.022 447.75 127.022 446.75C127.022 444.617 127.497 442.992 128.447 441.875C129.397 440.758 130.755 440.2 132.522 440.2C133.089 440.2 133.655 440.267 134.222 440.4C134.789 440.517 135.297 440.75 135.747 441.1C136.197 441.45 136.564 441.95 136.847 442.6C137.13 443.233 137.272 444.075 137.272 445.125C137.272 445.675 137.222 446.283 137.122 446.95H129.097C129.097 447.683 129.172 448.333 129.322 448.9C129.472 449.467 129.705 449.95 130.022 450.35C130.339 450.733 130.747 451.033 131.247 451.25C131.764 451.45 132.389 451.55 133.122 451.55C133.689 451.55 134.255 451.45 134.822 451.25C135.389 451.05 135.814 450.817 136.097 450.55L136.847 452ZM132.547 441.95C131.564 441.95 130.772 442.208 130.172 442.725C129.589 443.242 129.239 444.125 129.122 445.375H135.322C135.322 444.108 135.08 443.225 134.597 442.725C134.114 442.208 133.43 441.95 132.547 441.95ZM140.217 441.425C140.851 441.042 141.584 440.758 142.417 440.575C143.267 440.392 144.151 440.3 145.067 440.3C145.934 440.3 146.626 440.417 147.142 440.65C147.676 440.883 148.076 441.192 148.342 441.575C148.626 441.942 148.809 442.35 148.892 442.8C148.992 443.25 149.042 443.7 149.042 444.15C149.042 445.15 149.017 446.125 148.967 447.075C148.917 448.025 148.892 448.925 148.892 449.775C148.892 450.392 148.917 450.975 148.967 451.525C149.017 452.075 149.109 452.583 149.242 453.05H147.767L147.242 451.3H147.117C146.967 451.533 146.776 451.767 146.542 452C146.326 452.217 146.059 452.417 145.742 452.6C145.426 452.767 145.059 452.908 144.642 453.025C144.226 453.142 143.751 453.2 143.217 453.2C142.684 453.2 142.184 453.117 141.717 452.95C141.267 452.783 140.876 452.55 140.542 452.25C140.209 451.933 139.942 451.558 139.742 451.125C139.559 450.692 139.467 450.2 139.467 449.65C139.467 448.917 139.617 448.308 139.917 447.825C140.217 447.325 140.634 446.933 141.167 446.65C141.717 446.35 142.367 446.142 143.117 446.025C143.884 445.892 144.726 445.825 145.642 445.825C145.876 445.825 146.101 445.825 146.317 445.825C146.551 445.825 146.784 445.842 147.017 445.875C147.067 445.375 147.092 444.925 147.092 444.525C147.092 443.608 146.909 442.967 146.542 442.6C146.176 442.233 145.509 442.05 144.542 442.05C144.259 442.05 143.951 442.075 143.617 442.125C143.301 442.158 142.967 442.217 142.617 442.3C142.284 442.367 141.959 442.458 141.642 442.575C141.342 442.675 141.076 442.792 140.842 442.925L140.217 441.425ZM143.767 451.45C144.234 451.45 144.651 451.392 145.017 451.275C145.384 451.142 145.701 450.983 145.967 450.8C146.234 450.6 146.451 450.383 146.617 450.15C146.801 449.917 146.934 449.692 147.017 449.475V447.4C146.784 447.383 146.542 447.375 146.292 447.375C146.059 447.358 145.826 447.35 145.592 447.35C145.076 447.35 144.567 447.383 144.067 447.45C143.584 447.5 143.151 447.608 142.767 447.775C142.401 447.925 142.101 448.142 141.867 448.425C141.651 448.692 141.542 449.033 141.542 449.45C141.542 450.033 141.751 450.517 142.167 450.9C142.584 451.267 143.117 451.45 143.767 451.45ZM162.42 448.7C162.42 449.55 162.428 450.325 162.445 451.025C162.461 451.708 162.536 452.383 162.67 453.05H161.32L160.82 451.275H160.72C160.386 451.858 159.903 452.342 159.27 452.725C158.636 453.108 157.895 453.3 157.045 453.3C155.378 453.3 154.136 452.775 153.32 451.725C152.52 450.675 152.12 449.033 152.12 446.8C152.12 444.667 152.62 443.05 153.62 441.95C154.636 440.833 156.028 440.275 157.795 440.275C158.411 440.275 158.895 440.308 159.245 440.375C159.611 440.442 160.003 440.55 160.42 440.7V435.5H162.42V448.7ZM157.37 451.55C158.22 451.55 158.895 451.333 159.395 450.9C159.895 450.45 160.236 449.775 160.42 448.875V442.675C160.12 442.442 159.778 442.275 159.395 442.175C159.011 442.075 158.503 442.025 157.87 442.025C156.72 442.025 155.82 442.408 155.17 443.175C154.52 443.925 154.195 445.133 154.195 446.8C154.195 447.483 154.245 448.117 154.345 448.7C154.461 449.283 154.645 449.783 154.895 450.2C155.145 450.617 155.47 450.95 155.87 451.2C156.286 451.433 156.786 451.55 157.37 451.55ZM166.697 440.5H168.697V453H166.697V440.5ZM166.272 436.7C166.272 436.317 166.397 435.992 166.647 435.725C166.913 435.442 167.247 435.3 167.647 435.3C168.047 435.3 168.388 435.442 168.672 435.725C168.955 435.992 169.097 436.317 169.097 436.7C169.097 437.083 168.955 437.4 168.672 437.65C168.388 437.9 168.047 438.025 167.647 438.025C167.247 438.025 166.913 437.9 166.647 437.65C166.397 437.4 166.272 437.083 166.272 436.7ZM180.986 453V445.875C180.986 444.575 180.794 443.6 180.411 442.95C180.044 442.283 179.361 441.95 178.361 441.95C177.478 441.95 176.744 442.192 176.161 442.675C175.594 443.142 175.194 443.733 174.961 444.45V453H172.961V440.5H174.361L174.736 442.025H174.836C175.236 441.492 175.769 441.058 176.436 440.725C177.119 440.375 177.928 440.2 178.861 440.2C179.544 440.2 180.144 440.283 180.661 440.45C181.178 440.6 181.603 440.875 181.936 441.275C182.286 441.675 182.544 442.217 182.711 442.9C182.894 443.567 182.986 444.417 182.986 445.45V453H180.986ZM196.208 453.575C196.208 455.192 195.775 456.383 194.908 457.15C194.058 457.917 192.791 458.3 191.108 458.3C190.108 458.3 189.3 458.233 188.683 458.1C188.083 457.983 187.566 457.825 187.133 457.625L187.658 455.925C188.041 456.075 188.466 456.217 188.933 456.35C189.4 456.483 190.008 456.55 190.758 456.55C191.458 456.55 192.025 456.483 192.458 456.35C192.908 456.233 193.266 456.025 193.533 455.725C193.8 455.442 193.983 455.067 194.083 454.6C194.183 454.15 194.233 453.608 194.233 452.975V451.775H194.133C193.8 452.258 193.375 452.633 192.858 452.9C192.341 453.15 191.666 453.275 190.833 453.275C189.15 453.275 187.908 452.75 187.108 451.7C186.325 450.65 185.933 449.017 185.933 446.8C185.933 444.667 186.441 443.05 187.458 441.95C188.475 440.833 189.975 440.275 191.958 440.275C192.908 440.275 193.716 440.35 194.383 440.5C195.066 440.65 195.675 440.825 196.208 441.025V453.575ZM191.183 451.525C192.033 451.525 192.7 451.317 193.183 450.9C193.666 450.467 194.008 449.8 194.208 448.9V442.5C193.541 442.183 192.691 442.025 191.658 442.025C190.525 442.025 189.633 442.408 188.983 443.175C188.333 443.942 188.008 445.142 188.008 446.775C188.008 447.475 188.066 448.117 188.183 448.7C188.3 449.283 188.483 449.783 188.733 450.2C188.983 450.617 189.308 450.942 189.708 451.175C190.108 451.408 190.6 451.525 191.183 451.525ZM217.101 447.725C217.101 448.492 216.984 449.217 216.751 449.9C216.517 450.567 216.176 451.158 215.726 451.675C215.276 452.175 214.717 452.575 214.051 452.875C213.384 453.158 212.626 453.3 211.776 453.3C210.942 453.3 210.192 453.167 209.526 452.9C208.859 452.633 208.284 452.242 207.801 451.725C207.317 451.192 206.942 450.542 206.676 449.775C206.426 449.008 206.301 448.125 206.301 447.125C206.301 445.475 206.509 443.958 206.926 442.575C207.359 441.175 207.951 439.958 208.701 438.925C209.451 437.892 210.334 437.058 211.351 436.425C212.384 435.775 213.501 435.367 214.701 435.2L215.126 436.8C214.192 436.967 213.342 437.283 212.576 437.75C211.809 438.217 211.134 438.792 210.551 439.475C209.984 440.158 209.517 440.925 209.151 441.775C208.784 442.625 208.534 443.5 208.401 444.4C208.667 443.95 209.117 443.542 209.751 443.175C210.384 442.792 211.159 442.6 212.076 442.6C213.642 442.6 214.867 443.05 215.751 443.95C216.651 444.85 217.101 446.108 217.101 447.725ZM215.026 447.925C215.026 446.742 214.751 445.85 214.201 445.25C213.651 444.65 212.801 444.35 211.651 444.35C210.834 444.35 210.126 444.55 209.526 444.95C208.942 445.35 208.534 445.8 208.301 446.3C208.267 446.533 208.251 446.725 208.251 446.875C208.251 447.025 208.251 447.192 208.251 447.375C208.251 447.892 208.317 448.4 208.451 448.9C208.601 449.4 208.826 449.85 209.126 450.25C209.426 450.633 209.792 450.95 210.226 451.2C210.676 451.433 211.201 451.55 211.801 451.55C212.284 451.55 212.717 451.458 213.101 451.275C213.501 451.092 213.842 450.842 214.126 450.525C214.409 450.208 214.626 449.825 214.776 449.375C214.942 448.925 215.026 448.442 215.026 447.925ZM224.562 444.875H230.612V446.725H224.562V444.875ZM247.909 439.475C247.909 440.358 247.742 441.267 247.409 442.2C247.092 443.117 246.667 444.042 246.134 444.975C245.617 445.908 245.034 446.825 244.384 447.725C243.734 448.608 243.084 449.45 242.434 450.25L241.209 451.325V451.425L242.809 451.15H248.259V453H238.309V452.275C238.675 451.892 239.117 451.417 239.634 450.85C240.15 450.283 240.684 449.658 241.234 448.975C241.8 448.275 242.35 447.542 242.884 446.775C243.434 445.992 243.925 445.2 244.359 444.4C244.809 443.6 245.167 442.808 245.434 442.025C245.7 441.242 245.834 440.5 245.834 439.8C245.834 438.983 245.6 438.308 245.134 437.775C244.667 437.225 243.959 436.95 243.009 436.95C242.375 436.95 241.759 437.083 241.159 437.35C240.559 437.6 240.042 437.892 239.609 438.225L238.784 436.8C239.367 436.3 240.059 435.908 240.859 435.625C241.659 435.342 242.517 435.2 243.434 435.2C244.15 435.2 244.784 435.308 245.334 435.525C245.884 435.725 246.35 436.017 246.734 436.4C247.117 436.783 247.409 437.242 247.609 437.775C247.809 438.292 247.909 438.858 247.909 439.475ZM255.707 451.55C256.857 451.55 257.807 451.217 258.557 450.55C259.307 449.883 259.682 448.917 259.682 447.65C259.682 446.433 259.307 445.525 258.557 444.925C257.824 444.325 256.807 444.025 255.507 444.025L253.407 444.15V435.5H261.207V437.35H255.282V442.325L256.357 442.275C258.007 442.292 259.307 442.75 260.257 443.65C261.207 444.55 261.682 445.842 261.682 447.525C261.682 448.458 261.524 449.292 261.207 450.025C260.89 450.742 260.457 451.342 259.907 451.825C259.374 452.308 258.74 452.675 258.007 452.925C257.274 453.175 256.49 453.3 255.657 453.3C254.907 453.3 254.274 453.258 253.757 453.175C253.24 453.092 252.757 452.967 252.307 452.8L252.832 451.1C253.215 451.25 253.624 451.367 254.057 451.45C254.507 451.517 255.057 451.55 255.707 451.55Z" fill="black"/>
</svg>
