<svg fill="none" height="41" viewBox="0 0 40 41" width="40" xmlns="http://www.w3.org/2000/svg"><path d="m9.25605 35.5416c1.04385.8014 2.70615 1.3928 5.26245.9552.0045.6742.01 1.3114.0146 1.8458.0054.6384.0096 1.1303.0096 1.364 0 .1699-.0586.3165-.1492.4013-.0714.0669-.231.1597-.5899.0994-7.72673-2.6525-13.3036-10.1373-13.3036-18.9712 0-11.0599 8.74291-20.00563 19.5-20.00563 10.7571 0 19.5 8.94573 19.5 20.00563 0 8.8299-5.5732 16.3153-13.2952 18.9721-.3683.0661-.529-.0277-.5994-.0933-.0899-.0838-.1493-.2314-.1493-.4058 0-.2223.0029-.6122.0068-1.1357.002-.2667.0043-.5682.0066-.8999.0067-.9803.0134-2.2193.0134-3.5914 0-1.4749-.3596-2.6181-.8855-3.4205 1.9782-.3075 3.9964-.9225 5.5912-2.2915 1.8646-1.6004 3.0702-4.159 3.0702-8.2029 0-2.2502-.7427-4.1197-1.9868-5.6093.2789-.8583.7092-2.8876-.3028-5.50111l-.0854-.22043-.2245-.07394-.1564.47491c.1564-.47491.1559-.47507.1554-.47524l-.001-.00033-.0022-.00071-.0048-.00153-.0117-.00351c-.0041-.0012-.0085-.00248-.0134-.00382-.0054-.00148-.0112-.00304-.0175-.00467-.0241-.00619-.055-.01328-.0929-.02033-.0757-.0141-.1789-.02796-.3101-.03423-.2628-.01255-.6356.00552-1.1241.11102-.9435.20374-2.3147.73246-4.1643 1.99162-1.5779-.4278-3.2533-.6404-4.9141-.6478l-.0045.0001c-1.6614.0073-3.3359.2175-4.9121.6452-1.8529-1.258-3.2252-1.78663-4.1688-1.99064-.4886-.10564-.8611-.12396-1.12379-.11165-.13116.00614-.23421.01989-.30991.03391-.03782.00701-.06871.01406-.09278.02022-.01203.00308-.02235.00594-.03096.00846l-.01164.0035-.00486.00153-.00219.0007-.00104.00034c-.0005.00016-.00099.00032.15498.47537l-.15597-.47505-.22509.07391-.08536.22099c-1.00945 2.61351-.57704 4.64521-.29952 5.50321-1.23969 1.4886-1.98867 3.3579-1.98867 5.6093 0 4.0341 1.20387 6.5932 3.06345 8.1983 1.59305 1.375 3.60895 1.9975 5.58365 2.3099-.3415.5273-.6122 1.2013-.7576 2.0162-.5453.222-1.34.4484-2.171.3725-.9266-.0846-1.9508-.5476-2.76164-1.9691l-.00206-.0038-.0124-.022c-.01039-.0183-.02505-.0435-.04396-.0747-.0378-.0623-.09277-.1489-.16479-.2521-.14356-.2056-.35747-.4808-.64118-.7618-.56345-.558-1.4357-1.1704-2.60204-1.2533l-.0145-.001-.01453-.0002-.0064.4999c.0064-.4999.00624-.4999.00607-.4999h-.00039-.0009l-.00234-.0001h-.00682l-.02172.0001c-.01787.0002-.04249.0006-.07238.0017-.05934.0021-.14177.0068-.23486.0174-.16622.0188-.4429.0634-.6692.1954-.11914.0695-.26762.1883-.35047.3828-.08874.2083-.06847.4228.00716.6075.1319.322.46152.6297.92134.9514l.03319.0232.03289.0158c.00039.0003.00088.0005.00148.0008.00406.0022.01275.0069.02568.0144.02584.015.06861.0413.1251.081.11291.0792.28098.2119.47861.4151.39295.404.90953 1.0934 1.33991 2.209l.00153.0045c.00145.0041.0031.0088.00496.014.00293.0082.00637.0176.01035.0281.01301.0346.0318.0818.05723.1395.0508.1153.12842.2731.23976.4559.22247.3651.58217.8336 1.13487 1.258z" fill="#eceded" stroke="#eceded"/></svg>