<svg width="895" height="1024" viewBox="0 0 895 1024" fill="none" xmlns="http://www.w3.org/2000/svg">
<g clip-path="url(#clip0)">
<path d="M0.52937 764.931C-0.000686675 766.721 0.52937 769.087 2.82628 772.156L0.52937 764.931Z" fill="#563A5F" fill-opacity="0.1"/>
<path d="M887.093 700.1C884.487 696.519 811.693 655.728 738.589 614.681C733.333 450.685 754.668 263.353 773.352 108.691C774.059 105.665 774.721 102.66 775.34 99.6763C781.921 69.1149 793.008 32.5435 788.061 0C758.113 0 736.027 49.4865 716.769 75.8921C665.795 145.71 625.025 232.983 587.788 320.064C566.239 368.828 546.825 419.501 529.659 471.784C518.789 506.635 509.249 542.322 501.08 578.685C490.037 617.75 480.408 655.409 472.457 691.852L468.04 666.725C462.826 502.131 478.823 337.57 515.215 181.451C521.31 154.789 506.38 111.121 490.479 96.032C488.341 93.9511 485.756 93.0576 483.2 93.5157C480.643 93.9739 478.287 95.7529 476.565 98.5255C386.985 241.614 327.486 381.698 276.38 528.368C245.769 616.344 212.508 703.297 180.352 790.122C160.563 843.7 129.952 998.617 67.6264 969.143C24.2943 948.747 20.0538 847.664 18.4636 776.951C15.6112 775.61 12.6285 774.941 9.62937 774.969C5.47726 774.969 1.63435 776.184 0.795097 779.061L3.09201 786.286C0.839268 783.217 0.26504 780.851 0.795097 779.061L0.353383 777.718C-0.176673 778.166 1.59018 787.756 1.01595 788.204C3.79831 824.004 7.91222 859.562 13.3398 894.721C16.7804 918.13 23.0616 940.47 31.8917 960.703C55.8768 1013.39 100.799 1041.01 141.79 1012.75C186.447 981.93 207.429 906.613 230.84 848.431C277.529 732.388 313.396 608.543 356.463 490.39L390.254 397.682C402.931 363.093 428.551 317.506 433.984 279.976C433.409 284.196 432.923 288.416 432.393 292.763C422.017 377.293 421.539 463.748 430.98 548.507C436.546 601.191 441.36 654.449 452.756 705.343C465.08 760.392 485.929 798.881 512.962 840.184C518.351 781.426 532 725.099 546.488 669.666C558.444 624.016 571.607 579.133 585.977 535.017C588.362 552.216 631.65 590.833 683.154 631.56C682.148 677.348 684.204 723.169 689.294 768.384C693.711 805.914 700.734 843.828 716.15 874.709C746.452 935.576 803.3 948.172 839.344 888.072C854.495 862.945 916.776 732.26 887.093 700.1ZM685.009 584.631C632.666 555.157 590.218 530.925 588.23 528.24H588.009C622.337 423.445 663 323.251 709.525 228.827C720.673 205.19 733.063 182.832 746.584 161.95C740.577 193.471 734.923 225.119 729.269 256.703C710.364 364.436 691.105 474.406 685.009 584.631ZM827.197 854.314C821.278 862.689 802.814 895.297 793.229 896.575C791.379 897.919 789.398 898.846 787.354 899.325C730.329 917.354 732.273 738.461 742.167 676.38C797.558 674.589 862.402 741.211 863.903 754.893C867.57 787.948 844.115 829.826 827.197 854.314Z" fill="#563A5F" fill-opacity="0.1"/>
</g>
<defs>
<clipPath id="clip0">
<rect width="895" height="1024" fill="white"/>
</clipPath>
</defs>
</svg>
