<svg fill="none" height="41" viewBox="0 0 40 41" width="40" xmlns="http://www.w3.org/2000/svg"><path d="m12.4038 33.6147h.5v-.5-17.2779-.5h-.5-5.37074-.5v.5 17.2779.5h.5zm.6765-22.5833h.0002l-.0003-.0116c-.0203-.8741-.3374-1.6735-.9252-2.25596-.5899-.58448-1.4192-.91778-2.40129-.91778-.98047 0-1.82502.33209-2.42733.91311-.60239.58109-.93462 1.38493-.93462 2.27223 0 1.7603 1.31912 3.1854 3.29126 3.1854 1.01528 0 1.86988-.3406 2.47318-.9279.6022-.5863.9241-1.3898.9241-2.2575zm20.0279 22.5833h.5v-.5-10.2113c0-2.627-.6846-4.6241-1.8949-5.9699-1.2153-1.3514-2.9064-1.9853-4.7884-1.9853-2.4031 0-4.0686 1.0671-5.0588 2.1237l-.1324-1.2863-.0462-.4488h-.4512-4.664-.5232l.0237.5227c.0706 1.5517.1408 3.3451.1408 5.4892v11.766.5h.5 5.3706.5v-.5-9.964c0-.4921.0385-.9008.141-1.1568l.0012-.003c.3442-.8762 1.0851-1.6968 2.2907-1.6968.8188 0 1.3358.3077 1.6725.8146.3588.5401.548 1.3615.548 2.4307v9.5753.5h.5zm-29.02657-32.38423h31.83677c1.978 0 3.5816 1.60357 3.5816 3.58163v31.8367c0 1.9781-1.6036 3.5817-3.5816 3.5817h-31.83677c-1.97806 0-3.58163-1.6036-3.58163-3.5817v-31.8367c0-1.97806 1.60357-3.58163 3.58163-3.58163z" fill="#eceded" stroke="#eceded"/></svg>