<svg width="959" height="1024" viewBox="0 0 959 1024" fill="none" xmlns="http://www.w3.org/2000/svg">
<path d="M0.567506 764.931C-0.000453353 766.721 0.567506 769.087 3.02866 772.156L0.567506 764.931Z" fill="#563A5F" fill-opacity="0.1"/>
<path d="M950.529 700.1C947.736 696.519 869.736 655.728 791.405 614.681C785.773 450.685 808.633 263.353 828.654 108.691C829.411 105.665 830.121 102.66 830.784 99.6763C837.836 69.1149 849.716 32.5435 844.415 0C812.325 0 788.66 49.4865 768.024 75.8921C713.405 145.71 669.72 232.983 629.821 320.064C606.731 368.828 585.928 419.501 567.534 471.784C555.888 506.635 545.665 542.322 536.912 578.685C525.079 617.75 514.762 655.409 506.242 691.852L501.509 666.725C495.922 502.131 513.064 337.57 552.058 181.451C558.589 154.789 542.591 111.121 525.553 96.032C523.262 93.9511 520.493 93.0576 517.753 93.5157C515.014 93.9739 512.489 95.7529 510.644 98.5255C414.659 241.614 350.905 381.698 296.144 528.368C263.345 616.344 227.705 703.297 193.249 790.122C172.045 843.7 139.245 998.617 72.4629 969.143C26.0322 948.747 21.4885 847.664 19.7846 776.951C16.7282 775.61 13.5321 774.941 10.3186 774.969C5.86959 774.969 1.75188 776.184 0.852608 779.061L3.31377 786.286C0.899938 783.217 0.284648 780.851 0.852608 779.061L0.379308 777.718C-0.188651 778.166 1.70455 787.756 1.08926 788.204C4.07058 824.004 8.47866 859.562 14.2943 894.721C17.981 918.13 24.7114 940.47 34.1729 960.703C59.8731 1013.39 108.008 1041.01 151.93 1012.75C199.781 981.93 222.262 906.613 247.347 848.431C297.375 732.388 335.807 608.543 381.954 490.39L418.161 397.682C431.745 363.093 459.196 317.506 465.018 279.976C464.402 284.196 463.882 288.416 463.314 292.763C452.195 377.293 451.683 463.748 461.799 548.507C467.763 601.191 472.922 654.449 485.133 705.343C498.338 760.392 520.678 798.881 549.644 840.184C555.418 781.426 570.043 725.099 585.567 669.666C598.378 624.016 612.482 579.133 627.88 535.017C630.436 552.216 676.819 590.833 732.006 631.56C730.928 677.348 733.131 723.169 738.585 768.384C743.318 805.914 750.843 843.828 767.362 874.709C799.83 935.576 860.744 948.172 899.365 888.072C915.599 862.945 982.334 732.26 950.529 700.1ZM733.994 584.631C677.908 555.157 632.424 530.925 630.294 528.24H630.057C666.84 423.445 710.411 323.251 760.262 228.827C772.208 205.19 785.484 182.832 799.972 161.95C793.535 193.471 787.477 225.119 781.419 256.703C761.161 364.436 740.526 474.406 733.994 584.631ZM886.349 854.314C880.007 862.689 860.223 895.297 849.952 896.575C847.97 897.919 845.847 898.846 843.658 899.325C782.555 917.354 784.637 738.461 795.239 676.38C854.591 674.589 924.071 741.211 925.68 754.893C929.609 787.948 904.477 829.826 886.349 854.314Z" fill="#563A5F" fill-opacity="0.1"/>
</svg>
