<svg fill="none" height="1024" viewBox="0 0 959 1024" width="959" xmlns="http://www.w3.org/2000/svg"><g fill="#563a5f" fill-opacity=".1"><path d="m.567506 764.931c-.56795935 1.79 0 4.156 2.461154 7.225z"/><path d="m950.529 700.1c-2.793-3.581-80.793-44.372-159.124-85.419-5.632-163.996 17.228-351.328 37.249-505.99.757-3.026 1.467-6.031 2.13-9.0147 7.052-30.5614 18.932-67.1328 13.631-99.6763-32.09 0-55.755 49.4865-76.391 75.8921-54.619 69.8179-98.304 157.0909-138.203 244.1719-23.09 48.764-43.893 99.437-62.287 151.72-11.646 34.851-21.869 70.538-30.622 106.901-11.833 39.065-22.15 76.724-30.67 113.167l-4.733-25.127c-5.587-164.594 11.555-329.155 50.549-485.274 6.531-26.662-9.467-70.33-26.505-85.419-2.291-2.0809-5.06-2.9744-7.8-2.5163-2.739.4582-5.264 2.2372-7.109 5.0098-95.985 143.0885-159.739 283.1725-214.5 429.8425-32.799 87.976-68.439 174.929-102.895 261.754-21.204 53.578-54.004 208.495-120.7861 179.021-46.4307-20.396-50.9744-121.479-52.6783-192.192-3.0564-1.341-6.2525-2.01-9.466-1.982-4.44901 0-8.56672 1.215-9.465992 4.092l2.461162 7.225c-2.413832-3.069-3.029122-5.435-2.461162-7.225l-.4733-1.343c-.567959.448 1.325242 10.038.709952 10.486 2.98132 35.8 7.3894 71.358 13.20504 106.517 3.6867 23.409 10.4171 45.749 19.8786 65.982 25.7002 52.687 73.8351 80.307 117.7571 52.047 47.851-30.82 70.332-106.137 95.417-164.319 50.028-116.043 88.46-239.888 134.607-358.041l36.207-92.708c13.584-34.589 41.035-80.176 46.857-117.706-.616 4.22-1.136 8.44-1.704 12.787-11.119 84.53-11.631 170.985-1.515 255.744 5.964 52.684 11.123 105.942 23.334 156.836 13.205 55.049 35.545 93.538 64.511 134.841 5.774-58.758 20.399-115.085 35.923-170.518 12.811-45.65 26.915-90.533 42.313-134.649 2.556 17.199 48.939 55.816 104.126 96.543-1.078 45.788 1.125 91.609 6.579 136.824 4.733 37.53 12.258 75.444 28.777 106.325 32.468 60.867 93.382 73.463 132.003 13.363 16.234-25.127 82.969-155.812 51.164-187.972zm-216.535-115.469c-56.086-29.474-101.57-53.706-103.7-56.391h-.237c36.783-104.795 80.354-204.989 130.205-299.413 11.946-23.637 25.222-45.995 39.71-66.877-6.437 31.521-12.495 63.169-18.553 94.753-20.258 107.733-40.893 217.703-47.425 327.928zm152.355 269.683c-6.342 8.375-26.126 40.983-36.397 42.261-1.982 1.344-4.105 2.271-6.294 2.75-61.103 18.029-59.021-160.864-48.419-222.945 59.352-1.791 128.832 64.831 130.441 78.513 3.929 33.055-21.203 74.933-39.331 99.421z"/></g></svg>