<svg fill="none" height="43" viewBox="0 0 50 43" width="50" xmlns="http://www.w3.org/2000/svg"><path d="m3.21644 13.5863c2.04109.4384 4.76164 1.0822 7.67126 1.9178 1.052.3069 2.063.621 3.0328.9425.3306-.7799.6777-1.5562 1.0411-2.3288-4.8936-1.5969-9.89304-2.8493-14.9616-3.7479 0 0 3.51233 21.2109 11.011 28.7123l.0739.0685c-2.46572-5.8767-4.56435-12.8164-5.96435-17.9836-.83836-2.8794-1.47124-5.5507-1.90411-7.5808z" fill="#e82169"/><path d="m23.6959 42.1425c-2.2247.1233-7.252-1.2192-10.8904-4.8548-2.7644-2.7671-5.40822-8.3287-7.67398-16.0822-.00121-.0127-.00121-.0256 0-.0383 1.4 5.1671 3.48768 12.1068 5.96438 17.9835 1.6263 1.6035 3.6611 2.7302 5.8831 3.2577 2.2221.5275 4.5462.4355 6.7196-.2659z" fill="#b31f55"/><g fill="#563a5f"><path d="m3.21637 13.5862c.43288 2.0192 1.06575 4.7014 1.91781 7.5809-1.22192-4.4548-1.91781-7.5809-1.91781-7.5809z"/><path d="m3.21644 13.5863c2.04109.4384 4.76164 1.0822 7.67126 1.9178 1.052.3069 2.063.621 3.0328.9425.3306-.7799.6777-1.5562 1.0411-2.3288-4.8936-1.5969-9.89304-2.8493-14.9616-3.7479 0 0 3.51233 21.2109 11.011 28.7123l.0739.0685c-2.46572-5.8767-4.56435-12.8164-5.96435-17.9836-.83836-2.8794-1.47124-5.5507-1.90411-7.5808z"/><path d="m23.6959 42.1425c-2.2247.1233-7.252-1.2192-10.8904-4.8548-2.7644-2.7671-5.40822-8.3287-7.67398-16.0822-.00121-.0127-.00121-.0256 0-.0383 1.4 5.1671 3.48768 12.1068 5.96438 17.9835 1.6263 1.6035 3.6611 2.7302 5.8831 3.2577 2.2221.5275 4.5462.4355 6.7196-.2659z"/><path d="m24.9945 4.54797c-1.1205 1.73425-2.5698 4.07946-4.0137 6.70683 2.2904-3.99724 4.0137-6.70683 4.0137-6.70683z"/><path d="m24.9946 4.54794c1.1315 1.75343 2.6027 4.13151 4.0575 6.78626.5288.9617 1.0192 1.8987 1.4794 2.811.7863-.3178 1.5836-.6219 2.3836-.9096-2.3287-4.59095-4.9753-9.01359-7.9205-13.2356 0 0-12.5151 17.4794-12.5151 28.0877v.1013c2.4027-5.9068 5.8356-12.2904 8.4931-16.9342 1.4521-2.6274 2.9014-4.97261 4.022-6.70686z"/><path d="m19.2821 39.2219c-1.6438-1.4876-4.2657-5.9917-4.2657-11.1342 0-3.9096 2.0575-9.7206 5.9452-16.8.0053-.0115.0118-.0225.0192-.0329-2.6631 4.6576-6.0959 11.0274-8.4932 16.9343.0173 2.2847.6603 4.5211 1.8591 6.4661 1.1988 1.9451 2.9076 3.5245 4.9409 4.5667z"/></g><path d="m21.2904 21.3534c-.47.4638-.9016.965-1.2904 1.4987 7.0356-8.7042 26.7726-9.2959 26.7726-9.2959-.4384 2.0411-1.0794 4.7616-1.9178 7.6712-.3069 1.0521-.621 2.063-.9425 3.0329 5.1891-4.0055 6.0877-13.9178 6.0877-13.9178s-21.2082 3.5096-28.7096 11.0109z" fill="#080809"/><path d="m20.0001 22.8521c-1.1561 1.5923-1.9202 3.435-2.2301 5.3783s-.1569 3.9322.4465 5.8052c-.1205-2.2246 1.222-7.252 4.8576-10.8877 2.7644-2.7671 8.326-5.4219 16.0822-7.6712 2.8931-.8411 5.589-1.4794 7.6164-1.9178.011-.0027-19.726.589-26.7726 9.2932z" fill="#080809"/></svg>