<svg width="35" height="30" viewBox="0 0 35 30" fill="none" xmlns="http://www.w3.org/2000/svg">
<path d="M2.25151 9.51042C3.68027 9.81727 5.58466 10.268 7.62137 10.8529C8.35781 11.0677 9.06548 11.2876 9.74438 11.5126C9.9758 10.9667 10.2187 10.4233 10.4732 9.88247C7.0476 8.76463 3.54799 7.88797 0 7.25891C0 7.25891 2.45863 22.1066 7.70767 27.3575L7.75945 27.4055C6.03342 23.2918 4.56438 18.434 3.58438 14.817C2.99753 12.8014 2.55452 10.9315 2.25151 9.51042Z" fill="#E82169"/>
<path d="M16.5871 29.4998C15.0299 29.5861 11.5107 28.6463 8.96385 26.1014C7.02878 24.1644 5.17809 20.2713 3.59207 14.8439C3.59122 14.8349 3.59122 14.8259 3.59207 14.817C4.57207 18.434 6.03344 23.2918 7.76714 27.4055C8.90552 28.5279 10.3299 29.3166 11.8853 29.6859C13.4408 30.0551 15.0677 29.9907 16.5891 29.4998H16.5871Z" fill="#B31F55"/>
<path d="M2.25146 9.51038C2.55448 10.9238 2.99749 12.8013 3.59393 14.817C2.73859 11.6986 2.25146 9.51038 2.25146 9.51038Z" fill="#563A5F"/>
<path d="M2.25151 9.51042C3.68027 9.81727 5.58466 10.268 7.62137 10.8529C8.35781 11.0677 9.06548 11.2876 9.74438 11.5126C9.9758 10.9667 10.2187 10.4233 10.4732 9.88247C7.0476 8.76463 3.54799 7.88797 0 7.25891C0 7.25891 2.45863 22.1066 7.70767 27.3575L7.75945 27.4055C6.03342 23.2918 4.56438 18.434 3.58438 14.817C2.99753 12.8014 2.55452 10.9315 2.25151 9.51042Z" fill="#563A5F"/>
<path d="M16.5871 29.4998C15.0299 29.5861 11.5107 28.6463 8.96385 26.1014C7.02878 24.1644 5.17809 20.2713 3.59207 14.8439C3.59122 14.8349 3.59122 14.8259 3.59207 14.817C4.57207 18.434 6.03344 23.2918 7.76714 27.4055C8.90552 28.5279 10.3299 29.3166 11.8853 29.6859C13.4408 30.0551 15.0677 29.9907 16.5891 29.4998H16.5871Z" fill="#563A5F"/>
<path d="M17.4962 3.18359C16.7118 4.39757 15.6973 6.03921 14.6866 7.87839C16.2899 5.08031 17.4962 3.18359 17.4962 3.18359Z" fill="#563A5F"/>
<path d="M17.4962 3.18356C18.2883 4.41096 19.3181 6.07562 20.3365 7.93397C20.7066 8.60712 21.0499 9.26301 21.3721 9.90164C21.9225 9.67918 22.4806 9.4663 23.0406 9.26493C21.4105 6.05126 19.5579 2.95541 17.4962 0C17.4962 0 8.73566 12.2356 8.73566 19.6614C8.73566 19.6844 8.73566 19.7093 8.73566 19.7323C10.4176 15.5975 12.8206 11.129 14.6809 7.87836C15.6973 6.03918 16.7118 4.39753 17.4962 3.18356Z" fill="#563A5F"/>
<path d="M13.4975 27.4553C12.3468 26.414 10.5115 23.2611 10.5115 19.6614C10.5115 16.9247 11.9517 12.857 14.6731 7.90137C14.6769 7.8933 14.6814 7.8856 14.6865 7.87836C12.8224 11.1386 10.4194 15.5975 8.74133 19.7323C8.75343 21.3317 9.2035 22.8971 10.0427 24.2587C10.8819 25.6202 12.078 26.7258 13.5013 27.4553H13.4975Z" fill="#563A5F"/>
<path d="M14.9033 14.9474C14.5743 15.272 14.2722 15.6229 14 15.9965C18.9249 9.90358 32.7408 9.48934 32.7408 9.48934C32.434 10.9181 31.9852 12.8225 31.3984 14.8592C31.1836 15.5956 30.9637 16.3033 30.7386 16.9822C34.371 14.1784 35 7.23975 35 7.23975C35 7.23975 20.1542 9.69646 14.9033 14.9474Z" fill="#080809"/>
<path d="M14.0001 15.9964C13.1908 17.1111 12.6559 18.401 12.439 19.7613C12.222 21.1215 12.3291 22.5138 12.7516 23.8249C12.6672 22.2677 13.6069 18.7485 16.1518 16.2035C18.0869 14.2666 21.9801 12.4082 27.4094 10.8337C29.4346 10.2449 31.3217 9.79807 32.7409 9.49122C32.7485 9.4893 18.9327 9.90355 14.0001 15.9964Z" fill="#080809"/>
</svg>
