<svg width="540" height="487" viewBox="0 0 540 487" fill="none" xmlns="http://www.w3.org/2000/svg">
<path d="M416.881 108.154C417.503 106.224 418.125 104.776 419.37 103.329L412.524 98.5033C415.636 94.6432 419.992 91.2656 424.971 88.853L431.195 94.1607C433.062 93.1957 434.93 92.7131 436.797 92.2306L437.419 84.9929C439.909 84.5104 443.02 84.0278 446.132 84.0278C449.244 84.0278 451.734 84.5104 454.846 84.9929L453.601 92.2306C455.468 92.7131 457.957 93.1957 459.825 94.1607L467.916 89.3355C472.895 91.7481 476.629 94.6432 479.741 98.5033L472.272 103.811C473.517 105.259 474.139 107.189 474.762 109.119H484.72C485.342 111.049 485.342 112.979 485.342 115.391C485.342 117.804 484.72 120.217 484.097 122.147H474.139C473.517 123.594 472.895 125.524 471.65 126.972L479.118 131.797C476.006 135.657 471.65 139.035 466.048 141.93L460.447 136.622C458.58 137.587 456.09 138.552 454.223 139.035V145.79C451.734 146.273 448.622 146.755 445.51 146.755C442.398 146.755 439.909 146.273 436.797 145.79V139.035C434.307 138.552 432.44 137.587 430.573 137.105L424.349 141.447C419.37 139.035 415.636 135.657 412.524 131.797L419.37 127.937C418.125 126.489 417.503 124.559 416.258 123.112L406.923 122.629C406.3 120.217 405.678 118.287 405.678 115.874C405.678 113.944 405.678 111.531 406.3 109.601L416.881 108.154Z" stroke="#563A5F" stroke-width="3" stroke-miterlimit="10"/>
<path d="M416.881 108.154C417.503 106.224 418.125 104.776 419.37 103.329L412.524 98.5033C415.636 94.6432 419.992 91.2656 424.971 88.853L431.195 94.1607C433.062 93.1957 434.93 92.7131 436.797 92.2306L437.419 84.9929C439.909 84.5104 443.02 84.0278 446.132 84.0278C449.244 84.0278 451.734 84.5104 454.846 84.9929L453.601 92.2306C455.468 92.7131 457.957 93.1957 459.825 94.1607L467.916 89.3355C472.895 91.7481 476.629 94.6432 479.741 98.5033L472.272 103.811C473.517 105.259 474.139 107.189 474.762 109.119H484.72C485.342 111.049 485.342 112.979 485.342 115.391C485.342 117.804 484.72 120.217 484.097 122.147H474.139C473.517 123.594 472.895 125.524 471.65 126.972L479.118 131.797C476.006 135.657 471.65 139.035 466.048 141.93L460.447 136.622C458.58 137.587 456.09 138.552 454.223 139.035V145.79C451.734 146.273 448.622 146.755 445.51 146.755C442.398 146.755 439.909 146.273 436.797 145.79V139.035C434.307 138.552 432.44 137.587 430.573 137.105L424.349 141.447C419.37 139.035 415.636 135.657 412.524 131.797L419.37 127.937C418.125 126.489 417.503 124.559 416.258 123.112L406.923 122.629C406.3 120.217 405.678 118.287 405.678 115.874C405.678 113.944 405.678 111.531 406.3 109.601L416.881 108.154Z" stroke="#563A5F" stroke-width="3" stroke-miterlimit="10" stroke-linecap="round" stroke-linejoin="round"/>
<path d="M465.426 111.532C467.915 122.629 456.09 131.797 441.775 129.867C433.685 128.902 427.461 123.594 426.216 117.804C423.726 106.706 435.552 97.5385 449.866 99.4686C457.957 100.434 464.181 105.741 465.426 111.532Z" stroke="#563A5F" stroke-width="3" stroke-miterlimit="10"/>
<path d="M465.426 111.532C467.915 122.629 456.09 131.797 441.775 129.867C433.685 128.902 427.461 123.594 426.216 117.804C423.726 106.706 435.552 97.5385 449.866 99.4686C457.957 100.434 464.181 105.741 465.426 111.532Z" stroke="#563A5F" stroke-width="3" stroke-miterlimit="10" stroke-linecap="round" stroke-linejoin="round"/>
<path d="M270 484.999L64.6156 424.202V268.831C64.6156 266.901 66.4827 265.936 68.9722 266.419L270 319.978" stroke="#563A5F" stroke-width="3" stroke-miterlimit="10" stroke-linecap="round" stroke-linejoin="round"/>
<path d="M270 485L474.762 424.203V265.455L270 319.979" stroke="#563A5F" stroke-width="3" stroke-miterlimit="10" stroke-linecap="round" stroke-linejoin="round"/>
<path d="M138.056 103.328C138.056 80.1672 113.783 61.8315 84.5314 61.8315C54.6573 61.8315 31.0069 80.6497 31.0069 103.328C31.0069 120.216 44.0768 134.692 62.7482 141.447V167.02H106.937V141.447C124.986 135.174 138.056 120.216 138.056 103.328Z" stroke="#563A5F" stroke-width="3" stroke-miterlimit="10" stroke-linecap="round" stroke-linejoin="round"/>
<path d="M62.1259 177.153H106.315" stroke="#563A5F" stroke-width="3" stroke-miterlimit="10" stroke-linecap="round" stroke-linejoin="round"/>
<path d="M62.1259 186.803H106.315" stroke="#563A5F" stroke-width="3" stroke-miterlimit="10" stroke-linecap="round" stroke-linejoin="round"/>
<path d="M70.8393 196.453H97.6015" stroke="#563A5F" stroke-width="3" stroke-miterlimit="10" stroke-linecap="round" stroke-linejoin="round"/>
<path d="M307.343 437.712L352.776 425.167" stroke="#563A5F" stroke-width="3" stroke-miterlimit="10" stroke-linecap="round" stroke-linejoin="round"/>
<path d="M68.3496 264.489L270 208.999L474.762 265.454" stroke="#563A5F" stroke-width="3" stroke-miterlimit="10" stroke-linecap="round" stroke-linejoin="round"/>
<path d="M270 319.978V484.999" stroke="#563A5F" stroke-width="3" stroke-miterlimit="10" stroke-linecap="round" stroke-linejoin="round"/>
<path d="M181 229.265C181 243.741 166.063 255.321 147.392 255.321C128.721 255.321 113.783 243.741 113.783 229.265C113.783 214.79 128.721 203.209 147.392 203.209C166.063 203.209 181 214.79 181 229.265Z" stroke="#3B3B45" stroke-width="2" stroke-miterlimit="10" stroke-linecap="round" stroke-linejoin="round"/>
<path d="M181 229.265C181 243.741 166.063 255.321 147.392 255.321C128.721 255.321 113.783 243.741 113.783 229.265C113.783 214.79 128.721 203.209 147.392 203.209C166.063 203.209 181 214.79 181 229.265Z" stroke="#563A5F" stroke-width="3" stroke-miterlimit="10" stroke-linecap="round" stroke-linejoin="round"/>
<path d="M148.014 212.86V242.293" stroke="#563A5F" stroke-width="3" stroke-miterlimit="10" stroke-linecap="round" stroke-linejoin="round"/>
<path d="M128.72 227.818H166.685" stroke="#563A5F" stroke-width="3" stroke-miterlimit="10" stroke-linecap="round" stroke-linejoin="round"/>
<path d="M270 25.1608C270 12.6154 256.93 2 240.126 2C223.944 2 210.252 12.1329 210.252 25.1608C210.252 26.1259 210.252 26.6084 210.252 27.5734C209.007 27.5734 207.14 27.0909 205.895 27.0909C189.714 27.0909 176.021 37.2237 176.021 50.2517C176.021 57.4895 180.378 63.2797 186.602 67.6223C171.665 68.5873 160.462 78.2377 160.462 89.8181C160.462 100.916 171.042 110.084 185.357 112.014C178.511 115.874 174.776 121.664 174.776 128.419C174.776 140 186.602 149.168 201.539 149.168C204.028 149.168 205.895 148.685 207.762 148.685C206.518 151.098 205.895 153.993 205.895 156.888C205.895 170.398 220.21 181.496 237.637 181.496C253.818 181.496 266.888 172.328 268.755 160.266H269.378V28.5384C270 28.5384 270 26.1259 270 25.1608Z" stroke="#563A5F" stroke-width="3" stroke-miterlimit="10" stroke-linecap="round" stroke-linejoin="round"/>
<path d="M232.035 27.5737C241.371 27.5737 249.462 32.8814 249.462 39.6367C249.462 46.3919 241.371 51.6996 232.035 51.6996" stroke="#563A5F" stroke-width="3" stroke-miterlimit="10" stroke-linecap="round" stroke-linejoin="round"/>
<path d="M232.035 128.902C241.371 128.902 249.462 134.21 249.462 140.965C249.462 147.72 241.371 153.028 232.035 153.028" stroke="#563A5F" stroke-width="3" stroke-miterlimit="10" stroke-linecap="round" stroke-linejoin="round"/>
<path d="M246.972 100.916C226.433 100.916 209.629 87.8881 209.629 71.9651" stroke="#563A5F" stroke-width="3" stroke-miterlimit="10" stroke-linecap="round" stroke-linejoin="round"/>
<path d="M270 25.1608C270 12.6154 283.07 2 299.874 2C316.056 2 329.748 12.1329 329.748 25.1608C329.748 26.1259 329.748 26.6084 329.748 27.5734C330.993 27.5734 332.86 27.0909 334.105 27.0909C350.287 27.0909 363.979 37.2237 363.979 50.2517C363.979 57.4895 359.622 63.2797 353.399 67.6223C368.336 68.5874 379.538 78.2377 379.538 89.8181C379.538 100.916 368.958 110.084 354.643 112.014C361.49 115.874 365.224 121.664 365.224 128.419C365.224 140 353.399 149.168 338.462 149.168C335.972 149.168 334.105 148.685 332.238 148.685C333.483 151.098 334.105 153.993 334.105 156.888C334.105 170.398 319.79 181.496 302.364 181.496C286.182 181.496 273.112 172.329 271.245 160.266H270.622V28.5384C270 28.5384 270 26.1259 270 25.1608Z" stroke="#563A5F" stroke-width="3" stroke-miterlimit="10" stroke-linecap="round" stroke-linejoin="round"/>
<path d="M307.965 27.5737C298.629 27.5737 290.538 32.8814 290.538 39.6367C290.538 46.3919 298.629 51.6996 307.965 51.6996" stroke="#563A5F" stroke-width="3" stroke-miterlimit="10" stroke-linecap="round" stroke-linejoin="round"/>
<path d="M307.965 128.902C298.629 128.902 290.538 134.21 290.538 140.965C290.538 147.72 298.629 153.028 307.965 153.028" stroke="#563A5F" stroke-width="3" stroke-miterlimit="10" stroke-linecap="round" stroke-linejoin="round"/>
<path d="M292.406 100.916C312.944 100.916 329.748 87.8881 329.748 71.9651" stroke="#563A5F" stroke-width="3" stroke-miterlimit="10" stroke-linecap="round" stroke-linejoin="round"/>
<path d="M476.63 158.335H380.783C372.693 158.335 365.846 162.678 365.846 168.468V193.559V218.65V254.356L396.343 228.783H476.007C484.098 228.783 490.944 224.44 490.944 218.65V168.468C490.944 162.678 484.72 158.335 476.63 158.335Z" stroke="#563A5F" stroke-width="3" stroke-miterlimit="10" stroke-linecap="round" stroke-linejoin="round"/>
<path d="M476.63 158.335H380.783C372.693 158.335 365.846 162.678 365.846 168.468V193.559V218.65V254.356L396.343 228.783H476.007C484.098 228.783 490.944 224.44 490.944 218.65V168.468C490.944 162.678 484.72 158.335 476.63 158.335Z" stroke="#563A5F" stroke-width="3" stroke-miterlimit="10" stroke-linecap="round" stroke-linejoin="round"/>
<path d="M397.587 179.084H460.448" stroke="#563A5F" stroke-width="3" stroke-miterlimit="10" stroke-linecap="round" stroke-linejoin="round"/>
<path d="M397.587 200.797H460.448" stroke="#563A5F" stroke-width="3" stroke-miterlimit="10" stroke-linecap="round" stroke-linejoin="round"/>
<path d="M307.343 236.021H232.035V294.405H307.343V236.021Z" stroke="#563A5F" stroke-width="3" stroke-miterlimit="10" stroke-linecap="round" stroke-linejoin="round"/>
<path d="M307.343 236.021H232.035V294.405H307.343V236.021Z" stroke="#563A5F" stroke-width="3" stroke-miterlimit="10" stroke-linecap="round" stroke-linejoin="round"/>
<path d="M253.818 257.733L271.245 278.482L288.672 252.426" stroke="#563A5F" stroke-width="3" stroke-miterlimit="10" stroke-linecap="round" stroke-linejoin="round"/>
<path d="M3 333.007L205.895 387.532L270 319.497L68.3496 265.937C67.7272 265.455 66.4825 265.937 65.8601 266.42L3 333.007Z" stroke="#563A5F" stroke-width="3" stroke-miterlimit="10"/>
<path d="M537 333.007L333.483 387.532L270 319.979L471.028 265.937C471.65 265.455 472.895 265.937 473.517 266.42L537 333.007Z" stroke="#563A5F" stroke-width="3" stroke-miterlimit="10"/>
</svg>
