<svg fill="none" height="343" viewBox="0 0 375 343" width="375" xmlns="http://www.w3.org/2000/svg"><g stroke-miterlimit="10"><path d="m289.033 76.5461c.43-1.3554.86-2.372 1.721-3.3885l-4.732-3.3885c2.151-2.7107 5.162-5.0826 8.603-6.7769l4.301 3.7273c1.29-.6777 2.581-1.0165 3.871-1.3554l.43-5.0826c1.721-.3389 3.871-.6777 6.022-.6777s3.871.3388 6.022.6777l-.861 5.0826c1.291.3389 3.011.6777 4.302 1.3554l5.591-3.3884c3.441 1.6942 6.022 3.7273 8.173 6.438l-5.162 3.7274c.86 1.0165 1.291 2.3719 1.721 3.7273h6.882c.43 1.3553.43 2.7107.43 4.405 0 1.6942-.43 3.3884-.86 4.7438h-6.882c-.431 1.0165-.861 2.3719-1.721 3.3885l5.162 3.3884c-2.151 2.7108-5.162 5.0827-9.033 7.1155l-3.871-3.727c-1.291.6777-3.011 1.3554-4.301 1.6942v4.7438c-1.721.339-3.872.678-6.022.678-2.151 0-3.871-.339-6.022-.678v-4.7438c-1.72-.3388-3.011-1.0165-4.301-1.3554l-4.301 3.0497c-3.441-1.6943-6.022-4.0662-8.173-6.777l4.732-2.7107c-.861-1.0166-1.291-2.372-2.151-3.3885l-6.452-.3388c-.43-1.6943-.86-3.0497-.86-4.7439 0-1.3554 0-3.0496.43-4.405z" stroke="#563a5f" stroke-width="3"/><path d="m289.033 76.5461c.43-1.3554.86-2.372 1.721-3.3885l-4.732-3.3885c2.151-2.7107 5.162-5.0826 8.603-6.7769l4.301 3.7273c1.29-.6777 2.581-1.0165 3.871-1.3554l.43-5.0826c1.721-.3389 3.871-.6777 6.022-.6777s3.871.3388 6.022.6777l-.861 5.0826c1.291.3389 3.011.6777 4.302 1.3554l5.591-3.3884c3.441 1.6942 6.022 3.7273 8.173 6.438l-5.162 3.7274c.86 1.0165 1.291 2.3719 1.721 3.7273h6.882c.43 1.3553.43 2.7107.43 4.405 0 1.6942-.43 3.3884-.86 4.7438h-6.882c-.431 1.0165-.861 2.3719-1.721 3.3885l5.162 3.3884c-2.151 2.7108-5.162 5.0827-9.033 7.1155l-3.871-3.727c-1.291.6777-3.011 1.3554-4.301 1.6942v4.7438c-1.721.339-3.872.678-6.022.678-2.151 0-3.871-.339-6.022-.678v-4.7438c-1.72-.3388-3.011-1.0165-4.301-1.3554l-4.301 3.0497c-3.441-1.6943-6.022-4.0662-8.173-6.777l4.732-2.7107c-.861-1.0166-1.291-2.372-2.151-3.3885l-6.452-.3388c-.43-1.6943-.86-3.0497-.86-4.7439 0-1.3554 0-3.0496.43-4.405z" stroke="#563a5f" stroke-linecap="round" stroke-linejoin="round" stroke-width="3"/><path d="m322.583 78.9182c1.72 7.7934-6.452 14.2315-16.345 12.8761-5.592-.6777-9.893-4.405-10.753-8.4711-1.721-7.7935 6.452-14.2316 16.344-12.8762 5.592.6777 9.893 4.405 10.754 8.4712z" stroke="#563a5f" stroke-width="3"/><g stroke-linecap="round" stroke-linejoin="round"><path d="m322.583 78.9182c1.72 7.7934-6.452 14.2315-16.345 12.8761-5.592-.6777-9.893-4.405-10.753-8.4711-1.721-7.7935 6.452-14.2316 16.344-12.8762 5.592.6777 9.893 4.405 10.754 8.4712z" stroke="#563a5f" stroke-width="3"/><path d="m187.524 341.185-141.9414-42.695v-109.108c0-1.356 1.2904-2.033 3.0109-1.695l138.9305 37.612" stroke="#563a5f" stroke-width="3"/><path d="m187.524 341.186 141.511-42.695v-111.481l-141.511 38.29" stroke="#563a5f" stroke-width="3"/><path d="m96.3372 73.1573c0-16.2647-16.7749-29.1408-36.9908-29.1408-20.646 0-36.9907 13.215-36.9907 29.1408 0 11.8596 9.0326 22.025 21.9363 26.7688v17.9589h30.5389v-17.9589c12.4737-4.405 21.5063-14.9092 21.5063-26.7688z" stroke="#563a5f" stroke-width="3"/><path d="m43.862 125h30.5389" stroke="#563a5f" stroke-width="3"/><path d="m43.862 131.777h30.5389" stroke="#563a5f" stroke-width="3"/><path d="m49.8838 138.554h18.4954" stroke="#563a5f" stroke-width="3"/><path d="m213.331 307.978 31.4-8.81" stroke="#563a5f" stroke-width="3"/><path d="m48.1632 186.332 139.3608-38.967 141.511 39.645" stroke="#563a5f" stroke-width="3"/><path d="m187.524 225.299v115.885" stroke="#563a5f" stroke-width="3"/><path d="m126.016 161.597c0 10.165-10.323 18.297-23.227 18.297-12.9034 0-23.2264-8.132-23.2264-18.297 0-10.166 10.323-18.298 23.2264-18.298 12.904 0 23.227 8.132 23.227 18.298z" stroke="#3b3b45" stroke-width="2"/><path d="m126.016 161.597c0 10.165-10.323 18.297-23.227 18.297-12.9034 0-23.2264-8.132-23.2264-18.297 0-10.166 10.323-18.298 23.2264-18.298 12.904 0 23.227 8.132 23.227 18.298z" stroke="#563a5f" stroke-width="3"/><path d="m103.219 150.076v20.669" stroke="#563a5f" stroke-width="3"/><path d="m89.8852 160.58h26.2378" stroke="#563a5f" stroke-width="3"/><path d="m187.524 18.2646c0-8.80998-9.033-16.2646-20.646-16.2646-11.183 0-20.646 7.11577-20.646 16.2646v1.6943c-.86 0-2.151-.3389-3.011-.3389-11.183 0-20.646 7.1158-20.646 16.2646 0 5.0827 3.011 9.1489 7.312 12.1985-10.323.6777-18.065 7.4546-18.065 15.5869 0 7.7935 7.312 14.2316 17.205 15.5869-4.731 2.7108-7.312 6.777-7.312 11.5208 0 8.1323 8.172 14.5703 18.495 14.5703 1.721 0 3.011-.339 4.301-.339-.86 1.694-1.29 3.728-1.29 5.761 0 9.487 9.893 17.281 21.937 17.281 11.183 0 20.215-6.438 21.506-14.909h.43v-92.5055c.43 0 .43-1.6942.43-2.3719z" stroke="#563a5f" stroke-width="3"/><path d="m161.286 19.9591c6.452 0 12.044 3.7273 12.044 8.4712 0 4.7438-5.592 8.4711-12.044 8.4711" stroke="#563a5f" stroke-width="3"/><path d="m161.286 91.1167c6.452 0 12.044 3.7273 12.044 8.4712 0 4.7441-5.592 8.4711-12.044 8.4711" stroke="#563a5f" stroke-width="3"/><path d="m171.609 71.4636c-14.194 0-25.808-9.1489-25.808-20.3308" stroke="#563a5f" stroke-width="3"/><path d="m187.524 18.2646c0-8.80998 9.032-16.2646 20.646-16.2646 11.183 0 20.646 7.11577 20.646 16.2646v1.6943c.86 0 2.151-.3389 3.011-.3389 11.183 0 20.646 7.1158 20.646 16.2646 0 5.0827-3.011 9.1489-7.312 12.1985 10.323.6777 18.065 7.4546 18.065 15.5869 0 7.7935-7.312 14.2316-17.205 15.5869 4.731 2.7108 7.312 6.777 7.312 11.5208 0 8.1323-8.172 14.5703-18.495 14.5703-1.721 0-3.011-.339-4.302-.339.861 1.694 1.291 3.728 1.291 5.761 0 9.487-9.893 17.281-21.937 17.281-11.183 0-20.216-6.438-21.506-14.909h-.43v-92.5055c-.43 0-.43-1.6942-.43-2.3719z" stroke="#563a5f" stroke-width="3"/><path d="m213.761 19.9591c-6.452 0-12.043 3.7273-12.043 8.4712 0 4.7438 5.591 8.4711 12.043 8.4711" stroke="#563a5f" stroke-width="3"/><path d="m213.761 91.1167c-6.452 0-12.043 3.7273-12.043 8.4712 0 4.7441 5.591 8.4711 12.043 8.4711" stroke="#563a5f" stroke-width="3"/><path d="m203.008 71.4636c14.194 0 25.808-9.1489 25.808-20.3308" stroke="#563a5f" stroke-width="3"/><path d="m330.326 111.786h-66.24c-5.591 0-10.323 3.049-10.323 7.116v17.62 17.62 25.074l21.076-17.959h55.056c5.592 0 10.323-3.049 10.323-7.115v-35.24c0-4.067-4.301-7.116-9.892-7.116z" stroke="#563a5f" stroke-width="3"/><path d="m330.326 111.786h-66.24c-5.591 0-10.323 3.049-10.323 7.116v17.62 17.62 25.074l21.076-17.959h55.056c5.592 0 10.323-3.049 10.323-7.115v-35.24c0-4.067-4.301-7.116-9.892-7.116z" stroke="#563a5f" stroke-width="3"/><path d="m275.7 126.357h43.442" stroke="#563a5f" stroke-width="3"/><path d="m275.7 141.604h43.442" stroke="#563a5f" stroke-width="3"/><path d="m213.331 166.34h-52.045v41.001h52.045z" stroke="#563a5f" stroke-width="3"/><path d="m213.331 166.34h-52.045v41.001h52.045z" stroke="#563a5f" stroke-width="3"/><path d="m176.341 181.588 12.043 14.57 12.044-18.297" stroke="#563a5f" stroke-width="3"/></g><path d="m3 234.449 140.221 38.29 44.303-47.778-139.3608-37.612c-.4302-.339-1.2904 0-1.7205.339z" stroke="#563a5f" stroke-width="3"/><path d="m372.048 234.449-140.651 38.29-43.873-47.439 138.93-37.951c.43-.339 1.291 0 1.721.339z" stroke="#563a5f" stroke-width="3"/></g></svg>