<svg fill="none" height="135" viewBox="0 0 127 135" width="127" xmlns="http://www.w3.org/2000/svg" xmlns:xlink="http://www.w3.org/1999/xlink"><clipPath id="a"><path d="m0 0h57.7v135h-57.7z"/></clipPath><clipPath id="b"><path d="m73 0h53.2v135h-53.2z"/></clipPath><mask id="c" height="135" maskUnits="userSpaceOnUse" width="54" x="73" y="0"><g clip-path="url(#b)" fill="none"><path d="m110.6 31.1001h-22c-8.6 0-15.6 7-15.6 15.6v22.4c0 5.8 3.1 10.8 7.7 13.5.8.5 1.9-.1 1.9-1.1v-33.4c0-.5.4-1 1-1 .5 0 1 .4 1 1v79.5999c0 3.9 3 7.2 6.8 7.4 4 .1 7.3-3.1 7.3-7.1v-40.3999c0-.5.4-1 1-1 .5 0 1 .4 1 1v40.0999c0 3.9 3 7.2 6.8 7.4 4 .1 7.3-3.1 7.3-7.1v-79.8999c0-.5.4-1 1-1 .5 0 1 .4 1 1v33.3c0 1 1.1 1.6 1.9 1.1 4.5-2.7 7.5-7.7 7.5-13.4v-22.4c0-8.6-7-15.6-15.6-15.6z" fill="#563a5f"/><path d="m113.5 13.8c0 7.6-6.2 13.8-13.8 13.8s-13.8-6.2-13.8-13.8c-.1-7.6 6.1-13.8 13.8-13.8 7.6 0 13.8 6.2 13.8 13.8z" fill="#563a5f"/></g></mask><g clip-path="url(#a)" fill="#563a5f"><path d="m42.8 13.8c0 7.6-6.2 13.8-13.8 13.8s-13.8-6.2-13.8-13.8c-.1-7.6 6.1-13.8 13.8-13.8s13.8 6.2 13.8 13.8z"/><path d="m57.7 100.4-7.6-19.5999c3.3-2.9 5.4-7 5.4-11.7v-22.4c0-8.6-7-15.6-15.6-15.6h-22c-8.6 0-15.6 7-15.6 15.6v22.4c0 4.7 2.1 8.9 5.4 11.7l-7.7 19.5999h13.9v27.3c0 3.9 3 7.2 6.8 7.4 4 .1 7.3-3.1 7.3-7.1v-27.6h2v27.3c0 3.9 3 7.2 6.8 7.4 4 .1 7.3-3.1 7.3-7.1v-27.6zm-12.6-53.2999c.5 0 1 .4 1 1v22.3l-2-5v-17.3c0-.6.4-1 1-1zm-33.2 22.8v-21.8c0-.5.4-1 1-1 .5 0 1 .4 1 1v16.8z"/></g><g mask="url(#c)"><path d="m-78 0h164v135h-164z" fill="#563a5f"/></g></svg>